<svg xmlns="http://www.w3.org/2000/svg" version="1.1"><polyline points="118.0,15.0,117.0,19.0,117.0,22.5,117.5,27.0,117.0,31.5,117.5,35.5,117.5,39.0,117.5,43.0,117.0,47.0,117.0,51.0,117.5,55.0,117.5,59.0,117.5,63.0,117.5,67.0,117.5,70.5,117.5,74.5,117.5,78.0,117.0,82.0,117.0,86.5,117.0,90.5,116.5,94.5,117.0,98.5,117.0,102.5,117.5,106.5,117.5,110.5,117.5,114.5,117.5,119.0,117.5,123.5,117.5,127.5,117.5,131.5,118.0,135.5,117.5,139.0,117.5,143.0,117.0,146.5,117.5,150.5,117.5,154.0,117.0,158.0,117.0,162.0,117.0,166.0,117.0,169.5,117.0,174.0,117.0,178.0,117.0,182.0,116.5,186.0,116.0,190.5,115.5,194.5,115.5,198.5,115.5,203.0,115.5,207.0,115.5,210.5,115.5,214.5,116.0,218.5,116.0,223.0,116.0,227.0,116.0,230.0,116.0,234.0,116.5,238.0,117.0,242.0,117.5,246.5,118.0,250.5,117.5,254.5,117.5,258.5,117.0,262.5,117.0,266.0,116.5,270.0,116.5,274.0,116.0,278.0,116.0,282.0,115.5,286.5,115.5,290.5,118.0,295.0,119.5,295.5,123.5,295.5,128.0,295.5,132.5,295.5,137.0,296.0,141.0,296.0,144.5,296.0,148.5,296.0,152.5,296.0,156.0,295.5,160.5,296.0,164.5,296.0,168.5,296.0,172.5,295.5,176.0,295.5,180.0,295.0,184.5,294.5,188.5,294.0,192.5,294.0,196.5,294.0,200.5,294.0,204.5,294.0,209.0,294.5,213.0,294.5,217.0,295.0,221.5,295.0,225.5,295.0,229.0,295.0,233.0,295.5,237.0,295.5,241.0,295.5,245.0,295.5,249.0,295.5,253.5,295.5,257.5,295.0,261.5,295.0,265.0,295.0,269.0,294.5,273.0,294.0,277.0,293.5,281.0,293.5,285.0,294.0,289.0,294.5,293.0,294.5,296.5,295.0,300.5,295.0,304.5,295.5,308.5,295.5,312.5,295.0,316.0,295.0,320.5,295.0,324.5,294.5,328.5,294.5,333.0,294.5,337.5,294.5,341.0,294.0,345.0,294.0,349.0,294.0,353.0,294.0,356.5,294.0,360.5,294.0,364.5,294.5,368.0,294.5,372.0,294.5,375.5,294.5,379.5,294.5,384.0,294.5,388.0,294.5,391.5,295.0,395.5,294.5" stroke="black" stroke-width="2" fill="none" />
<polyline points="324.5,284.5,316.5,285.0" stroke="black" stroke-width="2" fill="none" />
<polyline points="392.0,289.0,392.5,285.0,392.5,280.5,393.0,276.5,393.5,272.5,393.5,268.5,394.0,264.5,394.0,260.0,394.0,256.0,394.0,252.0,393.5,248.5,393.5,244.5,394.0,241.0,394.0,237.5,393.5,233.5,393.5,229.0,393.0,225.0,392.5,220.5,392.0,216.5,392.5,212.5,392.5,209.0,389.5,208.5,385.0,208.5,381.0,209.0,377.0,209.0,373.5,208.5,369.5,208.5,365.5,208.5,361.5,208.5,357.5,208.0,354.0,208.0,350.5,208.0,346.5,208.0,342.5,208.0,339.0,208.5,335.0,208.5,331.5,208.5,327.5,208.5,323.5,208.5" stroke="black" stroke-width="2" fill="none" />
<polyline points="324.0,204.5,328.0,205.0,332.0,204.5,335.5,204.5,339.0,204.0,342.5,204.0,346.5,204.0,350.0,204.0,354.0,204.5,358.5,205.0,363.0,205.0,366.5,205.0,370.5,205.0,374.5,205.0,378.5,205.0,382.5,205.5,386.0,205.5,390.0,205.0" stroke="black" stroke-width="2" fill="none" />
<polyline points="388.5,203.5,396.5,203.0" stroke="black" stroke-width="2" fill="none" />
<polyline points="331.0,204.5,323.0,205.0,315.0,205.0" stroke="black" stroke-width="2" fill="none" />
<polyline points="392.5,203.0,392.0,199.5,392.0,195.0,392.0,191.5,392.5,187.0,393.0,183.0,393.5,179.0,393.5,175.0,394.0,171.0,394.0,167.0,394.0,163.0,394.0,159.0,394.0,154.5,394.0,151.0,393.5,147.0,393.5,143.0,393.5,139.5,394.0,135.5,393.5,131.5,393.5,128.0,393.5,124.0,394.0,119.5,393.5,115.5,394.0,112.0,393.5,108.0,390.0,107.5,386.0,107.5,381.5,108.0,377.5,108.0,373.0,108.0,369.0,107.5,365.5,107.5,361.5,107.5,357.5,107.5,353.5,107.5,349.5,107.5,345.5,107.0,342.0,107.0,338.0,107.0,334.0,107.0,330.5,106.5,327.0,106.5,323.0,107.5" stroke="black" stroke-width="2" fill="none" />
<polyline points="323.5,103.0,327.5,103.5,331.5,103.5,335.0,103.5,339.0,103.0,342.5,103.0,346.5,103.0,350.5,103.5,354.5,103.5,358.5,103.0,362.5,103.0,366.5,103.5,370.5,103.5,374.0,103.0,378.0,102.5,381.5,102.5,385.5,102.5,390.0,103.0" stroke="black" stroke-width="2" fill="none" />
<polyline points="389.0,100.0,396.5,99.5" stroke="black" stroke-width="2" fill="none" />
<polyline points="331.0,100.5,322.5,101.0,315.0,101.0" stroke="black" stroke-width="2" fill="none" />
<polyline points="393.5,98.0,393.5,94.0,393.0,90.0,393.0,86.0,393.0,82.0,392.5,78.5,393.0,74.5,393.0,71.0,393.0,67.0,393.0,63.0,393.0,59.5,393.0,55.5,393.0,52.0,393.5,48.0,393.0,44.0,393.0,40.0,393.0,36.0,393.0,32.0,393.0,28.0,393.0,24.0,392.5,20.0,389.5,19.0,385.5,18.5,381.5,18.5,377.0,18.5,373.0,18.5,369.0,18.5,365.5,18.5,361.5,19.0,357.5,18.5,353.5,19.0,350.0,19.0,346.0,19.0,342.0,19.0,338.0,19.0,334.0,18.5,330.0,18.5,325.5,18.5,321.5,19.5" stroke="black" stroke-width="2" fill="none" />
<polyline points="324.0,17.5,323.5,21.5,323.0,25.5,323.0,30.0,323.0,34.0,322.5,38.5,322.5,42.5,322.0,46.5,321.5,50.5,321.0,54.5,320.5,58.0,320.5,62.5,320.5,66.5,321.0,70.5,321.5,75.0,322.0,79.0,321.5,83.0,321.5,86.5,322.0,90.5,322.5,94.5,322.5,99.0,322.0,103.0,322.0,109.5,322.0,113.0,321.5,117.0,321.0,121.0,321.0,125.0,321.5,129.0,322.0,133.0,322.5,137.0,322.5,141.0,322.5,145.0,322.5,148.5,322.5,152.5,322.5,156.0,322.5,160.0,322.5,164.0,323.0,168.0,323.0,172.0,323.0,176.5,323.0,180.5,323.0,184.5,323.0,188.5,322.5,192.5,322.5,197.0,322.5,201.0,323.5,208.0,322.0,212.0,322.0,216.0,322.5,219.5,322.5,223.5,322.5,227.5,322.5,232.0,322.5,236.5,322.0,240.5,322.0,244.5,322.0,248.5,322.0,252.5,321.5,256.5,321.5,260.5,321.5,265.0,321.5,269.0,321.5,272.5,321.5,277.0,321.5,281.0,321.5,285.0,321.5,288.5,322.5,292.0,326.5,292.0,330.5,292.0,334.5,292.0,338.5,292.0,342.5,292.0,346.5,292.0,350.5,292.0,354.5,292.0,358.5,292.0,363.0,292.0,367.0,292.0,371.5,292.0,375.5,292.0,379.5,292.0,383.0,292.0,387.0,291.5,391.5,291.5" stroke="black" stroke-width="2" fill="none" />
<polyline points="194.0,285.5,185.5,286.0" stroke="black" stroke-width="2" fill="none" />
<polyline points="196.0,207.5,200.0,207.5,204.0,207.5,208.0,208.0,211.5,208.0,215.5,208.0,219.5,208.0,224.0,208.0,227.5,208.0,231.5,208.0,235.5,208.0,239.5,208.0,243.5,208.0,247.5,207.5,251.5,208.0,255.5,208.0,259.0,208.0,262.5,208.0,266.0,208.0,269.5,208.0,273.5,208.5,277.5,208.0,282.0,208.0,286.0,207.5,290.0,207.5,294.5,207.5,299.0,207.5,303.0,207.5,307.5,207.5,311.5,208.0,315.5,208.0,318.5,208.5,318.5,212.5,318.5,216.5,318.0,220.5,318.0,224.5,318.0,229.0,318.0,233.5,318.0,237.5,318.0,241.5,318.0,245.5,318.0,249.5,318.0,254.0,318.0,257.5,317.5,261.0,317.5,265.0,317.5,269.0,317.5,272.5,317.5,276.5,317.5,281.0,317.5,285.0,317.5,289.0" stroke="black" stroke-width="2" fill="none" />
<polyline points="203.5,204.5,195.0,204.5,187.0,204.5" stroke="black" stroke-width="2" fill="none" />
<polyline points="195.0,205.0,199.0,205.5,202.5,205.0,206.5,205.0,210.5,205.5,214.5,206.0,218.5,205.5,223.0,205.5,226.5,205.5,230.5,206.0,234.5,206.0,238.5,206.0,243.0,205.5,247.0,205.5,251.5,205.5,255.5,205.5,259.5,205.5,264.0,205.5,268.0,205.5,272.0,206.0,276.0,206.0,280.0,206.0,284.5,206.0,288.0,206.0,292.0,206.0,295.5,206.0,299.5,206.0,303.5,206.0,307.0,206.0,311.0,205.5,315.0,205.0" stroke="black" stroke-width="2" fill="none" />
<polyline points="205.0,100.0,197.0,101.0,189.0,102.0" stroke="black" stroke-width="2" fill="none" />
<polyline points="195.5,102.5,199.5,103.0,203.5,103.0,208.0,103.5,212.0,103.5,216.0,103.5,220.0,103.0,224.0,103.0,228.0,103.5,232.0,103.5,236.5,103.5,240.0,103.5,244.0,104.0,247.5,104.0,251.0,104.0,255.0,104.0,259.0,104.0,263.0,103.5,267.5,103.5,271.5,103.5,275.5,103.5,279.5,103.5,283.0,103.5,287.0,103.5,291.0,103.5,295.0,103.5,299.0,103.5,303.0,103.0,307.0,103.0,311.0,102.5,315.0,102.5" stroke="black" stroke-width="2" fill="none" />
<polyline points="319.0,203.0,318.5,199.0,318.5,195.0,318.5,191.0,318.5,187.5,318.5,183.5,318.5,179.5,318.5,175.0,318.0,171.5,318.0,167.5,317.5,164.0,317.5,159.5,318.0,155.5,318.0,151.5,318.0,147.0,318.0,143.0,318.0,139.0,318.0,135.0,318.5,131.0,318.5,127.0,318.5,123.0,318.5,119.0,318.0,115.0,318.5,111.0,318.5,106.5,315.5,106.0,311.5,106.0,307.0,106.0,303.0,106.0,298.5,106.0,294.5,105.5,290.0,105.5,285.5,105.5,281.5,106.0,278.0,106.0,274.0,106.0,270.0,106.5,266.0,106.5,262.5,106.5,259.0,106.5,255.0,106.5,251.5,107.0,248.0,107.5,244.0,107.5,239.5,107.0,235.5,107.0,231.5,107.0,227.5,107.0,223.5,107.0,220.0,107.0,216.0,107.0,212.0,107.0,207.5,106.5,203.5,106.0,199.5,105.5,195.5,106.0" stroke="black" stroke-width="2" fill="none" />
<polyline points="124.0,101.0,116.0,101.5" stroke="black" stroke-width="2" fill="none" />
<polyline points="120.5,102.0,124.0,103.0,128.0,103.0,132.5,103.0,136.5,103.0,140.5,103.0,144.5,103.0,148.5,102.5,152.0,102.5,156.0,102.5,159.5,103.0,164.0,102.5,167.5,102.0,171.5,102.0,175.5,102.0,179.5,101.5,184.0,102.0,188.0,102.0" stroke="black" stroke-width="2" fill="none" />
<polyline points="119.0,107.5,123.0,107.0,127.0,107.0,131.5,106.5,135.5,106.5,139.5,106.5,143.5,107.0,147.5,107.0,151.5,107.5,156.0,107.0,160.0,107.0,164.0,107.0,167.5,107.5,172.0,107.5,176.0,107.5,180.5,107.5,184.5,107.0,189.0,106.0,192.0,106.0,193.0,110.0,193.0,113.5,193.0,118.0,193.0,122.0,192.5,126.0,192.5,130.0,193.0,134.0,192.5,138.0,192.5,142.5,192.5,147.0,192.5,151.5,192.0,155.5,192.0,159.5,192.0,163.0,191.5,166.5,191.5,171.0,191.0,174.5,190.5,179.0,190.5,183.5,190.5,187.5,191.0,191.5,191.0,196.0,191.0,199.5,191.0,203.0" stroke="black" stroke-width="2" fill="none" />
<polyline points="125.5,204.0,117.5,205.0" stroke="black" stroke-width="2" fill="none" />
<polyline points="121.0,204.5,125.0,204.5,129.0,204.5,133.0,204.5,137.0,204.5,140.5,204.5,144.5,205.0,148.5,205.0,152.0,205.0,156.5,205.0,160.5,205.5,164.5,205.5,168.0,205.5,171.5,205.0,175.5,204.5,179.5,204.0,183.5,204.0,187.5,204.0" stroke="black" stroke-width="2" fill="none" />
<polyline points="125.0,196.5,117.5,196.5" stroke="black" stroke-width="2" fill="none" />
<polyline points="119.5,208.5,123.5,208.0,127.5,208.0,132.0,208.0,136.0,208.0,140.0,208.0,144.0,208.0,147.5,208.5,151.5,208.0,156.0,208.0,160.0,208.0,164.0,208.0,168.0,208.0,172.0,208.5,176.0,208.0,180.0,208.0,184.5,208.0,188.5,208.0,191.5,208.5,191.5,212.5,191.5,216.0,191.5,220.0,192.0,224.0,192.0,228.0,192.5,232.0,192.5,236.0,192.5,239.5,192.5,244.0,192.5,248.0,192.5,252.5,192.5,256.5,192.5,260.5,192.5,264.5,192.5,268.0,192.0,272.0,192.0,276.0,192.0,280.0,191.5,284.5,191.5,288.5" stroke="black" stroke-width="2" fill="none" />
<polyline points="318.0,102.5,317.5,98.5,317.5,94.5,317.0,90.5,317.5,86.5,318.0,82.5,318.0,78.5,318.0,74.5,318.0,70.5,318.0,66.5,318.0,62.5,317.5,58.0,317.5,54.0,317.5,50.0,317.5,46.0,318.0,42.0,318.5,38.5,318.5,34.5,318.5,30.5,318.5,27.0,318.5,23.0,317.5,19.0,314.5,18.5,310.5,18.5,306.5,18.0,302.5,18.0,298.0,18.0,293.5,18.0,289.5,17.5,285.5,17.0,281.5,17.0,277.5,17.5,273.5,17.5,269.5,17.5,265.5,17.5,262.0,17.5,258.5,18.5,255.0,19.0,251.0,19.5,247.0,19.0,243.5,19.5,239.5,19.5,235.5,19.5,231.5,19.5,227.5,19.0,223.5,18.5,219.5,18.0,215.5,18.0,211.5,17.5,207.5,17.5,203.5,17.5,199.5,17.0,196.0,18.0" stroke="black" stroke-width="2" fill="none" />
<polyline points="197.0,17.5,196.0,21.5,196.0,25.5,196.0,29.5,195.5,34.0,195.5,38.0,195.0,42.5,194.5,46.5,194.0,51.0,193.5,55.0,193.5,59.0,193.5,63.0,193.5,67.5,194.0,71.5,194.0,75.0,194.0,79.0,194.5,83.5,194.5,87.5,194.5,91.0,194.5,94.5,194.5,98.5,194.5,102.5,195.0,110.0,195.0,114.0,195.5,118.0,195.0,121.5,195.5,125.5,195.0,129.5,195.0,133.0,195.0,136.5,195.0,140.0,195.0,144.0,195.0,148.5,195.0,152.5,195.0,156.5,195.5,160.5,195.5,164.0,196.0,168.0,196.5,172.0,196.5,175.5,196.5,179.5,196.5,183.5,196.0,187.5,196.0,191.5,195.5,196.0,195.0,200.0,196.5,204.0,194.5,210.5,194.5,214.5,194.5,218.0,194.5,222.0,194.5,226.0,194.5,230.5,194.0,235.0,194.0,239.0,194.5,243.5,194.0,248.0,194.0,252.5,194.0,256.5,194.0,260.5,194.0,265.0,194.0,269.0,194.0,273.0,194.5,276.5,194.5,280.0,194.5,284.0,194.5,288.0,194.5,292.5,198.0,293.0,202.5,293.0,206.5,293.0,210.5,293.0,214.5,293.0,219.0,293.0,223.0,293.0,227.5,293.0,231.5,292.5,235.5,292.5,239.5,292.0,243.5,291.5,247.5,291.5,252.0,291.5,255.5,291.5,259.5,291.5,263.0,291.0,266.5,291.0,270.5,291.0,274.5,290.5,278.5,290.5,282.5,290.0,286.5,290.0,290.5,290.0,294.5,290.5,298.5,291.0,302.5,291.5,306.5,291.5,310.5,291.5,314.5,291.5" stroke="black" stroke-width="2" fill="none" />
<polyline points="124.0,21.5,116.0,22.0" stroke="black" stroke-width="2" fill="none" />
<polyline points="120.0,18.0,124.0,17.5,128.0,18.0,132.0,18.5,136.5,19.0,140.5,19.5,144.5,19.5,148.5,19.0,152.0,19.0,155.5,18.5,159.5,18.0,163.0,18.5,167.5,18.0,172.0,18.0,176.0,18.0,180.5,17.5,184.5,17.0,188.5,17.0,191.5,17.0,192.0,21.0,191.5,25.0,192.0,29.0,192.0,33.5,192.0,38.0,192.0,42.0,192.0,46.5,192.0,50.5,192.0,54.5,192.5,58.5,192.5,62.5,192.5,66.0,192.5,70.0,192.0,74.5,192.0,78.5,191.5,83.0,191.5,87.0,191.5,91.0,191.5,94.5,191.5,98.5,190.5,102.0" stroke="black" stroke-width="2" fill="none" />
<polyline points="121.0,18.0,120.5,22.0,120.5,26.0,121.0,30.0,121.0,34.0,121.0,38.0,121.0,42.5,120.5,47.0,120.5,51.0,120.5,55.0,120.0,58.5,120.5,62.5,120.5,66.5,120.0,70.0,120.0,74.0,119.5,78.0,120.0,82.0,120.0,86.0,120.0,90.0,119.5,94.5,119.5,98.5,119.5,102.5,120.0,109.5,120.0,113.0,119.5,117.0,119.5,120.5,120.0,124.5,120.5,129.0,120.5,133.5,121.0,138.0,121.0,142.0,121.0,145.5,121.0,149.5,121.0,153.0,121.0,156.5,121.5,160.5,121.5,164.0,121.5,168.5,121.5,172.0,121.0,176.0,120.5,180.0,120.5,184.0,120.5,188.0,120.0,192.5,119.5,197.0,119.0,201.0,120.5,205.0,119.5,211.5,119.5,215.0,119.0,219.0,119.0,223.0,119.0,227.0,119.5,231.0,119.5,235.5,119.5,239.5,120.0,243.5,120.0,247.5,120.0,252.0,120.0,256.0,120.0,260.0,120.0,264.0,120.5,268.0,120.5,272.0,120.5,276.0,120.5,279.5,120.5,283.5,120.5,288.0,120.0,292.0,123.5,292.0,127.0,292.0,131.0,292.0,135.0,292.5,139.0,292.5,143.0,292.5,147.5,292.5,151.5,293.0,156.0,293.0,160.0,292.5,164.5,292.0,169.0,292.0,173.0,292.0,176.5,292.0,181.0,292.0,185.0,291.5,189.0,291.0" stroke="black" stroke-width="2" fill="none" />
<polyline points="397.0,294.5,397.0,290.5,397.0,286.0,397.0,282.0,396.5,278.0,396.5,274.0,396.5,270.0,397.0,266.0,397.0,262.5,397.0,258.5,397.0,254.5,397.0,250.5,397.0,246.0,397.0,242.0,397.0,238.0,397.0,233.5,397.5,229.5,397.5,225.5,397.5,221.5,397.5,217.5,397.5,213.5,397.0,209.5,397.0,205.5,397.0,201.5,397.0,197.5,397.0,193.5,397.0,189.5,396.0,185.5,396.0,182.0,396.0,178.5,396.0,174.5,396.0,170.5,396.0,166.5,396.0,162.5,396.0,158.5,396.0,155.0,396.0,151.0,396.0,147.0,396.0,143.0,395.5,139.5,396.0,136.0,396.0,131.5,396.0,127.0,395.5,123.0,395.0,119.0,395.5,114.5,395.5,110.5,396.0,106.5,396.5,102.5,396.5,98.5,396.5,94.5,396.5,90.5,396.5,86.5,397.0,82.5,397.0,78.5,397.0,74.5,397.0,71.0,397.0,67.0,397.0,63.0,397.0,59.0,397.0,55.0,397.0,51.0,397.5,47.5,397.5,43.5,397.5,39.0,398.0,35.0,398.0,31.0,398.0,26.5,398.0,22.5,397.5,19.0,397.5,15.5,393.5,15.0,389.0,14.5,384.5,14.5,380.5,14.5,376.0,15.0,372.0,15.0,368.5,15.5,364.5,15.5,360.5,16.0,356.5,16.0,352.5,15.5,349.0,15.5,345.0,15.5,341.0,15.5,337.0,15.0,333.5,15.5,329.5,15.5,326.0,15.5,322.0,15.5,318.0,15.0,313.5,15.5,309.5,15.5,305.0,15.0,301.0,15.0,297.0,14.5,293.0,14.0,289.0,13.5,285.0,13.0,281.5,13.0,277.5,13.0,273.5,13.0,269.0,13.5,265.0,13.5,260.5,13.5,256.5,14.0,252.5,14.0,248.0,14.0,244.5,14.0,240.5,14.0,237.0,14.0,233.0,14.0,229.0,14.0,224.5,14.0,220.5,14.0,216.5,13.5,212.0,13.5,208.0,13.5,204.0,13.5,200.0,13.0,196.0,13.0,192.0,13.5,188.5,14.0,184.0,14.0,179.5,14.0,175.5,14.5,171.5,14.5,167.5,15.0,163.5,15.0,159.5,15.0,155.5,15.0,151.5,15.0,147.5,15.0,143.5,15.0,140.0,15.0,136.5,15.0,133.0,15.0,129.0,14.5,125.5,14.5,121.5,14.5,117.5,15.5" stroke="black" stroke-width="2" fill="none" />
</svg>