<svg xmlns="http://www.w3.org/2000/svg" version="1.1"><polyline points="135.5,125.5,138.5,133.5,143.5,142.0,148.5,150.0,145.0,158.0,140.0,165.5,136.0,173.5,136.5,172.5,144.5,158.0" stroke="black" stroke-width="2" fill="none" />
<polyline points="156.0,159.0,151.0,166.5,147.0,174.5" stroke="black" stroke-width="2" fill="none" />
<polyline points="134.0,178.5,142.0,178.5,150.0,165.5,158.5,162.0,166.5,176.0,174.5,179.0" stroke="black" stroke-width="2" fill="none" />
<polyline points="172.0,165.5,164.0,152.0" stroke="black" stroke-width="2" fill="none" />
<polyline points="164.0,148.0,172.0,134.0" stroke="black" stroke-width="2" fill="none" />
<polyline points="169.0,126.5,164.0,134.0,159.0,142.0" stroke="black" stroke-width="2" fill="none" />
<polyline points="144.0,141.5,136.5,127.5" stroke="black" stroke-width="2" fill="none" />
<polyline points="134.0,124.5,141.5,125.0,150.0,135.0,158.0,139.0,166.0,126.0,174.5,124.5,174.5,130.5,169.5,138.5,164.5,146.5,165.5,154.5,169.5,162.5,175.0,171.0" stroke="black" stroke-width="2" fill="none" />
<polyline points="165.0,174.5,161.0,166.5,156.5,158.0" stroke="black" stroke-width="2" fill="none" />
<polyline points="155.0,142.5,151.0,135.0,145.5,127.0" stroke="black" stroke-width="2" fill="none" />
</svg>