<svg xmlns="http://www.w3.org/2000/svg" version="1.1"><polyline points="232.0,125.5,234.0,133.0,239.0,141.0,244.0,149.0,241.5,156.5,236.5,164.5,232.5,173.0,232.5,172.5,240.0,159.0" stroke="black" stroke-width="2" fill="none" />
<polyline points="244.0,159.0,252.0,158.5,260.0,158.0,268.0,157.5" stroke="black" stroke-width="2" fill="none" />
<polyline points="269.0,154.5,261.0,162.0" stroke="black" stroke-width="2" fill="none" />
<polyline points="260.0,166.0,268.0,165.5,276.5,165.5" stroke="black" stroke-width="2" fill="none" />
<polyline points="269.5,161.5,261.5,169.5" stroke="black" stroke-width="2" fill="none" />
<polyline points="267.0,173.0,275.0,172.5" stroke="black" stroke-width="2" fill="none" />
<polyline points="261.5,154.0,253.5,155.0" stroke="black" stroke-width="2" fill="none" />
<polyline points="251.5,158.0,246.5,166.0,242.5,174.0" stroke="black" stroke-width="2" fill="none" />
<polyline points="244.0,173.0,236.5,173.5" stroke="black" stroke-width="2" fill="none" />
<polyline points="236.0,170.5,244.0,163.5,251.5,156.0,259.0,148.0,267.0,141.0" stroke="black" stroke-width="2" fill="none" />
<polyline points="268.0,134.0,259.5,134.5" stroke="black" stroke-width="2" fill="none" />
<polyline points="252.0,138.0,244.0,145.0" stroke="black" stroke-width="2" fill="none" />
<polyline points="245.5,142.5,253.5,142.0,261.0,141.0,269.0,140.0" stroke="black" stroke-width="2" fill="none" />
<polyline points="269.5,130.5,261.5,138.5,253.0,147.0" stroke="black" stroke-width="2" fill="none" />
<polyline points="246.0,149.5,254.0,149.5,262.0,149.0" stroke="black" stroke-width="2" fill="none" />
<polyline points="260.0,150.0,268.5,135.5" stroke="black" stroke-width="2" fill="none" />
<polyline points="267.5,127.5,275.5,127.0" stroke="black" stroke-width="2" fill="none" />
<polyline points="264.0,124.5,259.0,132.5,253.5,141.0" stroke="black" stroke-width="2" fill="none" />
<polyline points="251.0,132.0,243.5,132.5,235.5,133.0" stroke="black" stroke-width="2" fill="none" />
<polyline points="233.5,129.0,241.5,141.5" stroke="black" stroke-width="2" fill="none" />
<polyline points="250.5,142.5,245.5,135.0,240.5,127.0" stroke="black" stroke-width="2" fill="none" />
<polyline points="243.5,125.0,235.5,126.0" stroke="black" stroke-width="2" fill="none" />
<polyline points="232.5,127.0,240.5,125.5,248.5,134.5,256.5,140.5,264.0,127.0,271.5,126.5,271.5,132.0,266.5,139.5,261.5,147.5,262.5,155.5,266.0,163.5,271.0,171.5" stroke="black" stroke-width="2" fill="none" />
<polyline points="269.5,166.5,261.5,152.5" stroke="black" stroke-width="2" fill="none" />
<polyline points="254.5,159.5,259.0,167.5,263.0,175.5" stroke="black" stroke-width="2" fill="none" />
<polyline points="250.0,165.5,242.5,166.5,234.5,167.0" stroke="black" stroke-width="2" fill="none" />
<polyline points="231.5,178.0,239.5,178.0,247.5,166.0,255.5,162.0,263.5,176.0,271.5,179.5" stroke="black" stroke-width="2" fill="none" />
</svg>