<svg xmlns="http://www.w3.org/2000/svg" height="570px" width="510px" version="1.1">
<polyline points="213.000000,4.000000 209.000000,12.000000 213.000000,20.000000 207.000000,28.000000 214.000000,36.000000 " stroke="black" stroke-width="1" fill="none" />
<polyline points="233.000000,56.000000 241.000000,60.000000 249.000000,56.000000 257.000000,53.000000 265.000000,51.000000 273.000000,43.000000 281.000000,39.000000 289.000000,41.000000 297.000000,36.000000 305.000000,30.000000 " stroke="black" stroke-width="1" fill="none" />
<polyline points="297.000000,41.000000 314.000000,49.000000 " stroke="black" stroke-width="1" fill="none" />
<polyline points="288.000000,40.000000 279.000000,48.000000 281.000000,56.000000 " stroke="black" stroke-width="1" fill="none" />
<polyline points="318.000000,1.000000 326.000000,2.000000 334.000000,1.000000 342.000000,4.000000 350.000000,2.000000 358.000000,5.000000 366.000000,6.000000 374.000000,7.000000 382.000000,11.000000 390.000000,13.000000 398.000000,18.000000 406.000000,18.000000 414.000000,18.000000 422.000000,13.000000 " stroke="black" stroke-width="1" fill="none" />
<polyline points="429.000000,25.000000 437.000000,31.000000 445.000000,35.000000 453.000000,49.000000 " stroke="black" stroke-width="1" fill="none" />
<polyline points="453.000000,63.000000 461.000000,72.000000 469.000000,79.000000 477.000000,81.000000 485.000000,94.000000 493.000000,107.000000 501.000000,122.000000 " stroke="black" stroke-width="1" fill="none" />
<polyline points="508.000000,187.000000 502.000000,205.000000 494.000000,211.000000 486.000000,220.000000 478.000000,233.000000 470.000000,242.000000 462.000000,248.000000 454.000000,253.000000 446.000000,258.000000 438.000000,263.000000 430.000000,261.000000 422.000000,258.000000 414.000000,256.000000 406.000000,255.000000 398.000000,259.000000 390.000000,259.000000 382.000000,255.000000 374.000000,253.000000 366.000000,250.000000 358.000000,248.000000 350.000000,250.000000 342.000000,260.000000 334.000000,263.000000 326.000000,263.000000 318.000000,263.000000 310.000000,270.000000 " stroke="black" stroke-width="1" fill="none" />
<polyline points="308.000000,316.000000 300.000000,321.000000 292.000000,332.000000 " stroke="black" stroke-width="1" fill="none" />
<polyline points="291.000000,342.000000 283.000000,355.000000 " stroke="black" stroke-width="1" fill="none" />
<polyline points="280.000000,382.000000 288.000000,391.000000 " stroke="black" stroke-width="1" fill="none" />
<polyline points="291.000000,435.000000 283.000000,447.000000 " stroke="black" stroke-width="1" fill="none" />
<polyline points="263.000000,514.000000 255.000000,529.000000 247.000000,543.000000 " stroke="black" stroke-width="1" fill="none" />
<polyline points="246.000000,559.000000 238.000000,568.000000 " stroke="black" stroke-width="1" fill="none" />
<polyline points="229.000000,568.000000 221.000000,566.000000 213.000000,564.000000 205.000000,564.000000 197.000000,565.000000 189.000000,562.000000 181.000000,560.000000 173.000000,553.000000 165.000000,545.000000 157.000000,536.000000 149.000000,521.000000 141.000000,515.000000 " stroke="black" stroke-width="1" fill="none" />
<polyline points="135.000000,488.000000 127.000000,486.000000 119.000000,481.000000 " stroke="black" stroke-width="1" fill="none" />
<polyline points="121.000000,444.000000 113.000000,437.000000 105.000000,429.000000 97.000000,425.000000 89.000000,421.000000 81.000000,406.000000 " stroke="black" stroke-width="1" fill="none" />
<polyline points="51.000000,416.000000 43.000000,413.000000 35.000000,410.000000 27.000000,396.000000 19.000000,386.000000 11.000000,395.000000 " stroke="black" stroke-width="1" fill="none" />
<polyline points="32.000000,483.000000 40.000000,490.000000 48.000000,492.000000 56.000000,485.000000 " stroke="black" stroke-width="1" fill="none" />
<polyline points="84.000000,319.000000 76.000000,310.000000 68.000000,300.000000 60.000000,292.000000 52.000000,285.000000 44.000000,280.000000 36.000000,272.000000 28.000000,263.000000 20.000000,252.000000 " stroke="black" stroke-width="1" fill="none" />
<polyline points="15.000000,241.000000 7.000000,227.000000 " stroke="black" stroke-width="1" fill="none" />
<polyline points="4.000000,208.000000 12.000000,209.000000 20.000000,212.000000 28.000000,212.000000 36.000000,215.000000 44.000000,215.000000 52.000000,218.000000 60.000000,210.000000 " stroke="black" stroke-width="1" fill="none" />
<polyline points="61.000000,202.000000 69.000000,194.000000 77.000000,186.000000 85.000000,181.000000 93.000000,165.000000 101.000000,155.000000 " stroke="black" stroke-width="1" fill="none" />
<polyline points="109.000000,129.000000 117.000000,121.000000 " stroke="black" stroke-width="1" fill="none" />
<polyline points="118.000000,112.000000 126.000000,97.000000 134.000000,82.000000 " stroke="black" stroke-width="1" fill="none" />
<polyline points="128.000000,83.000000 136.000000,74.000000 " stroke="black" stroke-width="1" fill="none" />
<polyline points="129.000000,55.000000 137.000000,54.000000 145.000000,52.000000 153.000000,49.000000 161.000000,53.000000 169.000000,56.000000 177.000000,52.000000 185.000000,50.000000 193.000000,50.000000 201.000000,47.000000 209.000000,43.000000 217.000000,39.000000 225.000000,39.000000 233.000000,43.000000 244.000000,47.000000 " stroke="black" stroke-width="1" fill="none" />
<polyline points="139.000000,8.000000 121.000000,16.000000 " stroke="black" stroke-width="1" fill="none" />
<polyline points="89.000000,14.000000 85.000000,22.000000 80.000000,30.000000 67.000000,38.000000 62.000000,46.000000 58.000000,54.000000 61.000000,62.000000 55.000000,70.000000 47.000000,78.000000 34.000000,86.000000 29.000000,94.000000 23.000000,102.000000 17.000000,110.000000 15.000000,118.000000 9.000000,126.000000 6.000000,134.000000 11.000000,142.000000 12.000000,150.000000 14.000000,158.000000 12.000000,166.000000 10.000000,174.000000 2.000000,182.000000 7.000000,192.000000 8.000000,200.000000 15.000000,208.000000 21.000000,216.000000 28.000000,224.000000 33.000000,232.000000 39.000000,240.000000 48.000000,248.000000 60.000000,256.000000 73.000000,264.000000 " stroke="black" stroke-width="1" fill="none" />
<polyline points="166.000000,252.000000 170.000000,260.000000 " stroke="black" stroke-width="1" fill="none" />
<polyline points="197.000000,265.000000 203.000000,273.000000 202.000000,281.000000 201.000000,289.000000 199.000000,297.000000 198.000000,305.000000 200.000000,313.000000 209.000000,321.000000 216.000000,329.000000 221.000000,337.000000 222.000000,345.000000 228.000000,353.000000 228.000000,361.000000 229.000000,369.000000 234.000000,377.000000 232.000000,385.000000 224.000000,393.000000 224.000000,401.000000 222.000000,409.000000 219.000000,417.000000 218.000000,425.000000 218.000000,433.000000 226.000000,441.000000 230.000000,449.000000 232.000000,457.000000 238.000000,465.000000 237.000000,473.000000 239.000000,481.000000 241.000000,489.000000 241.000000,497.000000 244.000000,505.000000 247.000000,513.000000 254.000000,521.000000 257.000000,529.000000 261.000000,537.000000 266.000000,545.000000 264.000000,553.000000 267.000000,561.000000 274.000000,569.000000 " stroke="black" stroke-width="1" fill="none" />
<polyline points="481.000000,484.000000 484.000000,476.000000 486.000000,468.000000 487.000000,460.000000 490.000000,452.000000 492.000000,444.000000 493.000000,436.000000 496.000000,428.000000 497.000000,420.000000 503.000000,412.000000 503.000000,404.000000 502.000000,396.000000 497.000000,388.000000 " stroke="black" stroke-width="1" fill="none" />
<polyline points="332.000000,561.000000 341.000000,553.000000 349.000000,545.000000 356.000000,537.000000 359.000000,529.000000 365.000000,521.000000 373.000000,513.000000 375.000000,505.000000 376.000000,497.000000 378.000000,489.000000 395.000000,481.000000 394.000000,473.000000 394.000000,465.000000 393.000000,457.000000 389.000000,449.000000 396.000000,441.000000 405.000000,433.000000 418.000000,425.000000 428.000000,417.000000 432.000000,409.000000 432.000000,401.000000 432.000000,393.000000 432.000000,385.000000 431.000000,377.000000 426.000000,369.000000 424.000000,361.000000 423.000000,353.000000 422.000000,345.000000 420.000000,337.000000 423.000000,329.000000 428.000000,321.000000 436.000000,313.000000 443.000000,305.000000 449.000000,297.000000 457.000000,289.000000 469.000000,281.000000 477.000000,273.000000 485.000000,265.000000 490.000000,257.000000 494.000000,249.000000 499.000000,241.000000 504.000000,233.000000 507.000000,225.000000 509.000000,217.000000 508.000000,209.000000 " stroke="black" stroke-width="1" fill="none" />
<polyline points="382.000000,83.000000 376.000000,75.000000 373.000000,67.000000 " stroke="black" stroke-width="1" fill="none" />
<polyline points="386.000000,80.000000 386.000000,72.000000 385.000000,64.000000 383.000000,56.000000 " stroke="black" stroke-width="1" fill="none" />
<polyline points="202.500000,0.000000 206.500000,0.000000 " stroke="black" stroke-width="1" fill="none" />
<polyline points="324.500000,563.500000 360.000000,528.000000 " stroke="black" stroke-width="1" fill="none" />
<polyline points="368.000000,520.000000 373.000000,515.000000 " stroke="black" stroke-width="1" fill="none" />
<polyline points="375.000000,505.000000 314.000000,566.000000 " stroke="black" stroke-width="1" fill="none" />
<polyline points="307.500000,564.500000 376.000000,496.000000 " stroke="black" stroke-width="1" fill="none" />
<polyline points="385.000000,487.000000 395.000000,477.000000 " stroke="black" stroke-width="1" fill="none" />
<polyline points="394.500000,469.500000 299.000000,565.000000 " stroke="black" stroke-width="1" fill="none" />
<polyline points="288.000000,568.000000 394.000000,462.000000 " stroke="black" stroke-width="1" fill="none" />
<polyline points="392.500000,455.500000 277.500000,570.500000 " stroke="black" stroke-width="1" fill="none" />
<polyline points="495.000000,249.000000 243.500000,500.500000 " stroke="black" stroke-width="1" fill="none" />
<polyline points="282.500000,570.500000 264.500000,552.500000 " stroke="black" stroke-width="1" fill="none" />
<polyline points="288.500000,568.500000 267.000000,547.000000 " stroke="black" stroke-width="1" fill="none" />
<polyline points="295.500000,567.500000 258.500000,530.500000 " stroke="black" stroke-width="1" fill="none" />
<polyline points="429.000000,371.000000 262.500000,537.500000 " stroke="black" stroke-width="1" fill="none" />
<polyline points="302.000000,566.000000 247.500000,511.500000 " stroke="black" stroke-width="1" fill="none" />
<polyline points="340.000000,556.000000 229.000000,445.000000 " stroke="black" stroke-width="1" fill="none" />
<polyline points="423.000000,345.000000 252.000000,516.000000 " stroke="black" stroke-width="1" fill="none" />
<polyline points="324.000000,564.000000 239.000000,479.000000 " stroke="black" stroke-width="1" fill="none" />
<polyline points="378.000000,490.000000 221.500000,333.500000 " stroke="black" stroke-width="1" fill="none" />
<polyline points="318.000000,566.000000 242.000000,490.000000 " stroke="black" stroke-width="1" fill="none" />
<polyline points="372.500000,516.500000 235.000000,379.000000 " stroke="black" stroke-width="1" fill="none" />
<polyline points="419.000000,341.000000 248.000000,512.000000 " stroke="black" stroke-width="1" fill="none" />
<polyline points="245.500000,506.500000 425.000000,327.000000 " stroke="black" stroke-width="1" fill="none" />
<polyline points="435.500000,315.500000 133.000000,13.000000 " stroke="black" stroke-width="1" fill="none" />
<polyline points="397.000000,123.000000 204.000000,316.000000 " stroke="black" stroke-width="1" fill="none" />
<polyline points="374.000000,510.000000 227.500000,363.500000 " stroke="black" stroke-width="1" fill="none" />
<polyline points="422.500000,177.500000 230.500000,369.500000 " stroke="black" stroke-width="1" fill="none" />
<polyline points="431.000000,375.000000 84.500000,28.500000 " stroke="black" stroke-width="1" fill="none" />
<polyline points="312.000000,48.000000 103.500000,256.500000 " stroke="black" stroke-width="1" fill="none" />
<polyline points="111.000000,257.000000 316.500000,51.500000 " stroke="black" stroke-width="1" fill="none" />
<polyline points="330.500000,562.500000 239.000000,471.000000 " stroke="black" stroke-width="1" fill="none" />
<polyline points="395.000000,483.000000 202.000000,290.000000 " stroke="black" stroke-width="1" fill="none" />
<polyline points="501.500000,237.500000 479.500000,215.500000 " stroke="black" stroke-width="1" fill="none" />
<polyline points="239.500000,480.500000 509.500000,210.500000 " stroke="black" stroke-width="1" fill="none" />
<polyline points="359.000000,535.000000 224.500000,400.500000 " stroke="black" stroke-width="1" fill="none" />
<polyline points="414.500000,425.500000 432.500000,407.500000 " stroke="black" stroke-width="1" fill="none" />
<polyline points="510.000000,222.000000 500.000000,212.000000 " stroke="black" stroke-width="1" fill="none" />
<polyline points="239.000000,465.000000 490.500000,213.500000 " stroke="black" stroke-width="1" fill="none" />
<polyline points="507.500000,227.500000 494.000000,214.000000 " stroke="black" stroke-width="1" fill="none" />
<polyline points="505.000000,233.000000 486.000000,214.000000 " stroke="black" stroke-width="1" fill="none" />
<polyline points="389.000000,451.000000 273.500000,566.500000 " stroke="black" stroke-width="1" fill="none" />
<polyline points="266.000000,558.000000 432.500000,391.500000 " stroke="black" stroke-width="1" fill="none" />
<polyline points="288.000000,568.500000 288.000000,41.500000 " stroke="black" stroke-width="1" fill="none" />
<polyline points="424.000000,179.500000 424.000000,329.000000 " stroke="black" stroke-width="1" fill="none" />
<polyline points="430.500000,318.500000 126.500000,14.500000 " stroke="black" stroke-width="1" fill="none" />
<polyline points="137.500000,254.500000 338.000000,54.000000 " stroke="black" stroke-width="1" fill="none" />
<polyline points="348.000000,548.000000 219.000000,419.000000 " stroke="black" stroke-width="1" fill="none" />
<polyline points="484.000000,268.000000 278.000000,62.000000 " stroke="black" stroke-width="1" fill="none" />
<polyline points="281.500000,56.000000 342.500000,56.000000 " stroke="black" stroke-width="1" fill="none" />
<polyline points="158.000000,250.000000 354.000000,54.000000 " stroke="black" stroke-width="1" fill="none" />
<polyline points="499.000000,243.000000 473.000000,217.000000 " stroke="black" stroke-width="1" fill="none" />
<polyline points="495.000000,247.000000 467.000000,219.000000 " stroke="black" stroke-width="1" fill="none" />
<polyline points="471.000000,217.000000 232.500000,455.500000 " stroke="black" stroke-width="1" fill="none" />
<polyline points="231.000000,449.000000 461.000000,219.000000 " stroke="black" stroke-width="1" fill="none" />
<polyline points="453.000000,211.000000 225.000000,439.000000 " stroke="black" stroke-width="1" fill="none" />
<polyline points="427.500000,419.500000 60.000000,52.000000 " stroke="black" stroke-width="1" fill="none" />
<polyline points="452.000000,204.000000 221.500000,434.500000 " stroke="black" stroke-width="1" fill="none" />
<polyline points="394.000000,466.000000 204.500000,276.500000 " stroke="black" stroke-width="1" fill="none" />
<polyline points="455.500000,480.500000 492.000000,444.000000 " stroke="black" stroke-width="1" fill="none" />
<polyline points="486.500000,465.500000 461.500000,490.500000 " stroke="black" stroke-width="1" fill="none" />
<polyline points="488.500000,455.500000 457.500000,486.500000 " stroke="black" stroke-width="1" fill="none" />
<polyline points="467.000000,493.000000 485.000000,475.000000 " stroke="black" stroke-width="1" fill="none" />
<polyline points="491.000000,451.000000 461.000000,421.000000 " stroke="black" stroke-width="1" fill="none" />
<polyline points="493.500000,437.500000 470.500000,414.500000 " stroke="black" stroke-width="1" fill="none" />
<polyline points="485.000000,477.000000 460.000000,452.000000 " stroke="black" stroke-width="1" fill="none" />
<polyline points="494.000000,434.000000 455.500000,472.500000 " stroke="black" stroke-width="1" fill="none" />
<polyline points="489.000000,457.000000 459.500000,427.500000 " stroke="black" stroke-width="1" fill="none" />
<polyline points="498.500000,418.500000 485.000000,405.000000 " stroke="black" stroke-width="1" fill="none" />
<polyline points="497.000000,425.000000 481.000000,409.000000 " stroke="black" stroke-width="1" fill="none" />
<polyline points="469.000000,493.000000 455.500000,479.500000 " stroke="black" stroke-width="1" fill="none" />
<polyline points="475.500000,491.500000 454.000000,470.000000 " stroke="black" stroke-width="1" fill="none" />
<polyline points="456.000000,476.500000 456.000000,484.000000 " stroke="black" stroke-width="1" fill="none" />
<polyline points="453.000000,461.000000 479.000000,487.000000 " stroke="black" stroke-width="1" fill="none" />
<polyline points="482.500000,482.500000 457.000000,457.000000 " stroke="black" stroke-width="1" fill="none" />
<polyline points="493.000000,389.000000 502.500000,398.500000 " stroke="black" stroke-width="1" fill="none" />
<polyline points="502.000000,416.000000 503.000000,416.000000 " stroke="black" stroke-width="1" fill="none" />
<polyline points="480.000000,410.000000 480.000000,486.500000 " stroke="black" stroke-width="1" fill="none" />
<polyline points="456.000000,474.500000 456.000000,458.000000 " stroke="black" stroke-width="1" fill="none" />
<polyline points="460.000000,448.000000 492.000000,448.000000 " stroke="black" stroke-width="1" fill="none" />
<polyline points="492.500000,440.000000 460.000000,440.000000 " stroke="black" stroke-width="1" fill="none" />
<polyline points="459.000000,432.000000 496.500000,432.000000 " stroke="black" stroke-width="1" fill="none" />
<polyline points="498.500000,416.000000 465.000000,416.000000 " stroke="black" stroke-width="1" fill="none" />
<polyline points="432.000000,410.000000 432.000000,401.000000 " stroke="black" stroke-width="1" fill="none" />
<polyline points="64.000000,44.000000 64.000000,258.500000 " stroke="black" stroke-width="1" fill="none" />
<polyline points="432.000000,386.500000 432.000000,394.500000 " stroke="black" stroke-width="1" fill="none" />
<polyline points="418.000000,426.000000 59.500000,67.500000 " stroke="black" stroke-width="1" fill="none" />
<polyline points="386.000000,70.000000 379.000000,77.000000 " stroke="black" stroke-width="1" fill="none" />
<polyline points="203.000000,269.000000 382.500000,89.500000 " stroke="black" stroke-width="1" fill="none" />
<polyline points="388.000000,100.000000 202.000000,286.000000 " stroke="black" stroke-width="1" fill="none" />
<polyline points="355.500000,539.500000 224.000000,408.000000 " stroke="black" stroke-width="1" fill="none" />
<polyline points="399.500000,439.500000 41.500000,81.500000 " stroke="black" stroke-width="1" fill="none" />
<polyline points="244.000000,504.000000 376.500000,504.000000 " stroke="black" stroke-width="1" fill="none" />
<polyline points="360.500000,528.500000 226.000000,394.000000 " stroke="black" stroke-width="1" fill="none" />
<polyline points="424.000000,360.500000 424.000000,423.500000 " stroke="black" stroke-width="1" fill="none" />
<polyline points="424.000000,360.000000 257.000000,527.000000 " stroke="black" stroke-width="1" fill="none" />
<polyline points="230.000000,448.000000 390.500000,448.000000 " stroke="black" stroke-width="1" fill="none" />
<polyline points="425.500000,350.500000 255.000000,521.000000 " stroke="black" stroke-width="1" fill="none" />
<polyline points="494.000000,254.000000 284.000000,44.000000 " stroke="black" stroke-width="1" fill="none" />
<polyline points="323.500000,51.500000 404.500000,132.500000 " stroke="black" stroke-width="1" fill="none" />
<polyline points="490.500000,258.500000 279.500000,47.500000 " stroke="black" stroke-width="1" fill="none" />
<polyline points="328.000000,563.000000 328.000000,52.000000 " stroke="black" stroke-width="1" fill="none" />
<polyline points="81.000000,265.000000 9.500000,193.500000 " stroke="black" stroke-width="1" fill="none" />
<polyline points="218.500000,424.000000 423.500000,424.000000 " stroke="black" stroke-width="1" fill="none" />
<polyline points="424.500000,352.500000 88.000000,16.000000 " stroke="black" stroke-width="1" fill="none" />
<polyline points="203.500000,272.000000 480.000000,272.000000 " stroke="black" stroke-width="1" fill="none" />
<polyline points="471.500000,279.500000 233.500000,41.500000 " stroke="black" stroke-width="1" fill="none" />
<polyline points="436.000000,188.000000 439.000000,191.000000 " stroke="black" stroke-width="1" fill="none" />
<polyline points="467.500000,283.500000 226.500000,42.500000 " stroke="black" stroke-width="1" fill="none" />
<polyline points="257.000000,55.000000 58.500000,253.500000 " stroke="black" stroke-width="1" fill="none" />
<polyline points="424.000000,360.000000 86.500000,22.500000 " stroke="black" stroke-width="1" fill="none" />
<polyline points="368.500000,520.500000 233.500000,385.500000 " stroke="black" stroke-width="1" fill="none" />
<polyline points="424.000000,353.500000 424.000000,346.000000 " stroke="black" stroke-width="1" fill="none" />
<polyline points="462.500000,286.500000 216.000000,40.000000 " stroke="black" stroke-width="1" fill="none" />
<polyline points="213.500000,322.500000 404.000000,132.000000 " stroke="black" stroke-width="1" fill="none" />
<polyline points="401.000000,127.000000 208.500000,319.500000 " stroke="black" stroke-width="1" fill="none" />
<polyline points="458.000000,290.000000 174.000000,6.000000 " stroke="black" stroke-width="1" fill="none" />
<polyline points="386.500000,74.500000 363.500000,51.500000 " stroke="black" stroke-width="1" fill="none" />
<polyline points="169.500000,254.500000 369.500000,54.500000 " stroke="black" stroke-width="1" fill="none" />
<polyline points="376.000000,504.000000 231.500000,359.500000 " stroke="black" stroke-width="1" fill="none" />
<polyline points="454.000000,294.000000 164.000000,4.000000 " stroke="black" stroke-width="1" fill="none" />
<polyline points="450.000000,298.000000 158.000000,6.000000 " stroke="black" stroke-width="1" fill="none" />
<polyline points="153.500000,249.500000 17.000000,113.000000 " stroke="black" stroke-width="1" fill="none" />
<polyline points="135.500000,255.500000 8.000000,128.000000 " stroke="black" stroke-width="1" fill="none" />
<polyline points="124.000000,260.000000 13.000000,149.000000 " stroke="black" stroke-width="1" fill="none" />
<polyline points="146.000000,8.000000 214.000000,8.000000 " stroke="black" stroke-width="1" fill="none" />
<polyline points="436.500000,187.500000 225.000000,399.000000 " stroke="black" stroke-width="1" fill="none" />
<polyline points="233.500000,376.000000 431.500000,376.000000 " stroke="black" stroke-width="1" fill="none" />
<polyline points="443.000000,307.000000 144.500000,8.500000 " stroke="black" stroke-width="1" fill="none" />
<polyline points="138.000000,10.000000 439.000000,311.000000 " stroke="black" stroke-width="1" fill="none" />
<polyline points="424.500000,328.500000 116.000000,20.000000 " stroke="black" stroke-width="1" fill="none" />
<polyline points="422.500000,334.500000 107.500000,19.500000 " stroke="black" stroke-width="1" fill="none" />
<polyline points="419.500000,339.500000 100.500000,20.500000 " stroke="black" stroke-width="1" fill="none" />
<polyline points="373.500000,493.500000 221.500000,341.500000 " stroke="black" stroke-width="1" fill="none" />
<polyline points="394.000000,458.000000 30.500000,94.500000 " stroke="black" stroke-width="1" fill="none" />
<polyline points="387.000000,83.000000 376.500000,72.500000 " stroke="black" stroke-width="1" fill="none" />
<polyline points="385.000000,63.000000 376.500000,71.500000 " stroke="black" stroke-width="1" fill="none" />
<polyline points="480.000000,215.000000 480.000000,271.500000 " stroke="black" stroke-width="1" fill="none" />
<polyline points="419.500000,164.500000 229.500000,354.500000 " stroke="black" stroke-width="1" fill="none" />
<polyline points="384.000000,488.000000 199.500000,303.500000 " stroke="black" stroke-width="1" fill="none" />
<polyline points="199.500000,311.500000 208.500000,320.500000 " stroke="black" stroke-width="1" fill="none" />
<polyline points="227.000000,349.000000 416.000000,160.000000 " stroke="black" stroke-width="1" fill="none" />
<polyline points="391.000000,447.000000 33.500000,89.500000 " stroke="black" stroke-width="1" fill="none" />
<polyline points="377.500000,81.500000 351.000000,55.000000 " stroke="black" stroke-width="1" fill="none" />
<polyline points="376.500000,55.500000 171.000000,261.000000 " stroke="black" stroke-width="1" fill="none" />
<polyline points="208.000000,32.000000 179.000000,3.000000 " stroke="black" stroke-width="1" fill="none" />
<polyline points="188.500000,3.500000 5.000000,187.000000 " stroke="black" stroke-width="1" fill="none" />
<polyline points="408.000000,147.500000 408.000000,432.000000 " stroke="black" stroke-width="1" fill="none" />
<polyline points="395.500000,443.500000 36.500000,84.500000 " stroke="black" stroke-width="1" fill="none" />
<polyline points="32.000000,91.500000 32.000000,229.000000 " stroke="black" stroke-width="1" fill="none" />
<polyline points="36.000000,236.000000 45.500000,245.500000 " stroke="black" stroke-width="1" fill="none" />
<polyline points="248.000000,53.000000 248.000000,513.000000 " stroke="black" stroke-width="1" fill="none" />
<polyline points="266.000000,544.000000 352.000000,544.000000 " stroke="black" stroke-width="1" fill="none" />
<polyline points="404.000000,436.000000 47.500000,79.500000 " stroke="black" stroke-width="1" fill="none" />
<polyline points="53.500000,250.500000 250.000000,54.000000 " stroke="black" stroke-width="1" fill="none" />
<polyline points="231.500000,40.500000 36.000000,236.000000 " stroke="black" stroke-width="1" fill="none" />
<polyline points="408.000000,140.000000 408.000000,136.500000 " stroke="black" stroke-width="1" fill="none" />
<polyline points="400.000000,127.500000 400.000000,439.000000 " stroke="black" stroke-width="1" fill="none" />
<polyline points="408.000000,432.000000 51.500000,75.500000 " stroke="black" stroke-width="1" fill="none" />
<polyline points="385.500000,65.500000 376.000000,56.000000 " stroke="black" stroke-width="1" fill="none" />
<polyline points="371.500000,67.500000 356.500000,52.500000 " stroke="black" stroke-width="1" fill="none" />
<polyline points="392.000000,446.000000 392.000000,107.500000 " stroke="black" stroke-width="1" fill="none" />
<polyline points="387.000000,99.000000 346.000000,58.000000 " stroke="black" stroke-width="1" fill="none" />
<polyline points="208.000000,320.500000 208.000000,32.500000 " stroke="black" stroke-width="1" fill="none" />
<polyline points="210.000000,14.000000 16.500000,207.500000 " stroke="black" stroke-width="1" fill="none" />
<polyline points="141.000000,253.000000 13.000000,125.000000 " stroke="black" stroke-width="1" fill="none" />
<polyline points="210.500000,10.500000 201.500000,1.500000 " stroke="black" stroke-width="1" fill="none" />
<polyline points="208.000000,5.500000 208.000000,28.000000 " stroke="black" stroke-width="1" fill="none" />
<polyline points="181.000000,3.000000 12.000000,172.000000 " stroke="black" stroke-width="1" fill="none" />
<polyline points="92.000000,260.000000 11.000000,179.000000 " stroke="black" stroke-width="1" fill="none" />
<polyline points="471.500000,280.000000 203.500000,280.000000 " stroke="black" stroke-width="1" fill="none" />
<polyline points="192.000000,264.000000 26.500000,98.500000 " stroke="black" stroke-width="1" fill="none" />
<polyline points="21.000000,109.000000 163.000000,251.000000 " stroke="black" stroke-width="1" fill="none" />
<polyline points="168.000000,254.000000 168.000000,4.500000 " stroke="black" stroke-width="1" fill="none" />
<polyline points="486.500000,264.000000 186.000000,264.000000 " stroke="black" stroke-width="1" fill="none" />
<polyline points="169.000000,256.000000 492.500000,256.000000 " stroke="black" stroke-width="1" fill="none" />
<polyline points="105.000000,257.000000 13.000000,165.000000 " stroke="black" stroke-width="1" fill="none" />
<polyline points="117.000000,261.000000 15.000000,159.000000 " stroke="black" stroke-width="1" fill="none" />
<polyline points="12.000000,144.000000 407.000000,144.000000 " stroke="black" stroke-width="1" fill="none" />
<polyline points="136.000000,255.500000 136.000000,10.500000 " stroke="black" stroke-width="1" fill="none" />
<polyline points="120.000000,20.000000 120.000000,261.000000 " stroke="black" stroke-width="1" fill="none" />
<polyline points="112.000000,259.500000 112.000000,19.000000 " stroke="black" stroke-width="1" fill="none" />
<polyline points="104.000000,19.500000 104.000000,257.000000 " stroke="black" stroke-width="1" fill="none" />
<polyline points="82.500000,264.000000 74.000000,264.000000 " stroke="black" stroke-width="1" fill="none" />
<polyline points="60.500000,256.000000 132.500000,256.000000 " stroke="black" stroke-width="1" fill="none" />
<polyline points="0.000000,186.500000 0.000000,185.500000 " stroke="black" stroke-width="1" fill="none" />
<polyline points="7.500000,136.000000 408.500000,136.000000 " stroke="black" stroke-width="1" fill="none" />
<polyline points="377.500000,80.000000 46.000000,80.000000 " stroke="black" stroke-width="1" fill="none" />
<polyline points="59.000000,56.000000 262.000000,56.000000 " stroke="black" stroke-width="1" fill="none" />
<polyline points="94.500000,16.000000 87.500000,16.000000 " stroke="black" stroke-width="1" fill="none" />
</svg>