<?xml version="1.0" encoding="UTF-8"?>
<!DOCTYPE svg PUBLIC "-//W3C//DTD SVG 1.1//EN" "http://www.w3.org/Graphics/SVG/1.1/DTD/svg11.dtd">
<svg xmlns="http://www.w3.org/2000/svg" version="1.1" width="96px" height="96px" style="shape-rendering:geometricPrecision; text-rendering:geometricPrecision; image-rendering:optimizeQuality; fill-rule:evenodd; clip-rule:evenodd" xmlns:xlink="http://www.w3.org/1999/xlink">
<g><path style="opacity:0.972" fill="#32c2ff" d="M 72.5,-0.5 C 73.5,-0.5 74.5,-0.5 75.5,-0.5C 81.8996,3.8899 88.5663,7.8899 95.5,11.5C 95.5,12.1667 95.5,12.8333 95.5,13.5C 94.3183,15.8381 92.6517,17.8381 90.5,19.5C 85.415,16.8758 80.5817,13.8758 76,10.5C 72.1008,14.2141 69.2675,18.5474 67.5,23.5C 69.2675,28.4526 72.1008,32.7859 76,36.5C 80.5817,33.1242 85.415,30.1242 90.5,27.5C 92.6517,29.1619 94.3183,31.1619 95.5,33.5C 95.5,34.1667 95.5,34.8333 95.5,35.5C 88.4851,39.6607 81.3184,43.6607 74,47.5C 70.2007,44.0298 66.7007,40.1965 63.5,36C 59.5138,35.5012 55.5138,35.3345 51.5,35.5C 51.5,27.5 51.5,19.5 51.5,11.5C 55.5138,11.6655 59.5138,11.4988 63.5,11C 66.7146,7.29121 69.7146,3.45787 72.5,-0.5 Z"/></g>
<g><path style="opacity:0.967" fill="#33c1ff" d="M -0.5,29.5 C -0.5,25.5 -0.5,21.5 -0.5,17.5C 4.20824,8.65305 11.5416,5.48639 21.5,8C 28.487,10.8068 31.8203,15.9735 31.5,23.5C 30.0926,36.7252 22.7593,41.8918 9.5,39C 4.98004,36.9777 1.6467,33.811 -0.5,29.5 Z M 12.5,16.5 C 21.8504,16.3654 24.517,20.532 20.5,29C 11.9562,32.3224 8.12291,29.4891 9,20.5C 9.68972,18.6498 10.8564,17.3164 12.5,16.5 Z"/></g>
<g><path style="opacity:0.978" fill="#32c2ff" d="M 34.5,15.5 C 38.8333,15.5 43.1667,15.5 47.5,15.5C 47.5,20.8333 47.5,26.1667 47.5,31.5C 43.1667,31.5 38.8333,31.5 34.5,31.5C 35.7752,26.1529 35.7752,20.8195 34.5,15.5 Z"/></g>
<g><path style="opacity:0.974" fill="#32c2ff" d="M 13.5,18.5 C 18.6646,18.1619 20.8313,20.4953 20,25.5C 17,29.5 14,29.5 11,25.5C 10.162,22.5193 10.9953,20.1859 13.5,18.5 Z"/></g>
<g><path style="opacity:0.992" fill="#33c2ff" d="M 79.5,95.5 C 55.5,95.5 31.5,95.5 7.5,95.5C 7.5,91.5 7.5,87.5 7.5,83.5C 14.5079,83.6663 21.5079,83.4996 28.5,83C 21.3333,71.1667 14.1667,59.3333 7,47.5C 5.3737,44.9417 4.3737,42.275 4,39.5C 13.5535,46.5983 22.5535,45.9316 31,37.5C 39.8333,52.5 48.6667,67.5 57.5,82.5C 64.8032,83.4973 72.1365,83.8306 79.5,83.5C 79.5,87.5 79.5,91.5 79.5,95.5 Z"/></g>
</svg>
