<svg xmlns="http://www.w3.org/2000/svg" height="80px" width="160px" version="1.1">
<polyline points="111.000000,25.000000 111.000000,25.500000 111.000000,26.000000 111.000000,26.500000 111.000000,27.000000 111.000000,27.500000 111.000000,28.000000 111.000000,28.500000 111.000000,29.000000 111.000000,29.500000 111.000000,30.000000 111.500000,30.500000 111.500000,31.000000 111.500000,31.500000 111.500000,32.000000 111.500000,32.500000 111.500000,33.000000 111.500000,33.500000 111.500000,34.000000 111.500000,34.500000 111.500000,35.000000 111.500000,35.500000 112.000000,36.000000 112.000000,36.500000 112.000000,37.000000 112.000000,37.500000 112.500000,38.000000 112.500000,38.500000 112.500000,39.000000 112.500000,39.500000 112.500000,40.000000 112.500000,40.500000 112.500000,41.000000 " stroke="black" stroke-width="1" fill="none" />
<polyline points="112.000000,25.500000 112.000000,26.000000 112.000000,26.500000 112.000000,27.000000 112.000000,27.500000 112.000000,28.000000 112.000000,28.500000 112.000000,29.000000 " stroke="black" stroke-width="1" fill="none" />
<polyline points="43.500000,26.500000 42.000000,27.000000 41.500000,27.500000 40.500000,28.000000 39.000000,28.500000 " stroke="black" stroke-width="1" fill="none" />
<polyline points="85.500000,27.500000 85.500000,28.000000 85.500000,28.500000 85.500000,29.000000 86.000000,29.500000 86.000000,30.000000 86.000000,30.500000 86.500000,31.000000 87.000000,31.500000 87.000000,32.000000 87.500000,32.500000 87.500000,33.000000 87.500000,33.500000 87.500000,34.000000 87.500000,34.500000 " stroke="black" stroke-width="1" fill="none" />
<polyline points="86.500000,28.000000 86.500000,28.500000 87.000000,29.000000 87.000000,29.500000 87.500000,30.000000 87.500000,30.500000 88.000000,31.000000 88.000000,31.500000 88.000000,32.000000 88.500000,32.500000 88.500000,33.000000 88.500000,33.500000 " stroke="black" stroke-width="1" fill="none" />
<polyline points="43.500000,28.500000 43.500000,29.000000 43.500000,29.500000 43.500000,30.000000 43.500000,30.500000 43.500000,31.000000 43.500000,31.500000 44.000000,32.000000 44.000000,32.500000 44.000000,33.000000 44.000000,33.500000 44.000000,34.000000 44.000000,34.500000 44.000000,35.000000 44.000000,35.500000 44.500000,36.000000 44.500000,36.500000 44.500000,37.000000 44.500000,37.500000 44.500000,38.000000 44.500000,38.500000 44.500000,39.000000 45.000000,39.500000 45.000000,40.000000 45.000000,40.500000 45.000000,41.000000 45.000000,41.500000 45.000000,42.000000 45.500000,42.500000 45.500000,43.000000 46.000000,43.500000 46.000000,44.000000 46.000000,44.500000 46.000000,45.000000 46.000000,45.500000 " stroke="black" stroke-width="1" fill="none" />
<polyline points="44.500000,28.500000 44.500000,29.000000 44.500000,29.500000 44.500000,30.000000 44.500000,30.500000 " stroke="black" stroke-width="1" fill="none" />
<polyline points="36.500000,29.000000 37.000000,29.500000 35.500000,30.000000 35.500000,30.500000 " stroke="black" stroke-width="1" fill="none" />
<polyline points="147.000000,29.000000 147.500000,29.500000 146.000000,30.000000 146.500000,30.500000 146.500000,31.000000 147.000000,31.500000 147.500000,32.000000 147.500000,32.500000 147.500000,33.000000 147.500000,33.500000 147.500000,34.000000 147.500000,34.500000 147.500000,35.000000 147.500000,35.500000 147.500000,36.000000 147.500000,36.500000 148.000000,37.000000 148.000000,37.500000 148.000000,38.000000 148.000000,38.500000 148.000000,39.000000 148.000000,39.500000 148.000000,40.000000 148.000000,40.500000 148.000000,41.000000 148.000000,41.500000 148.000000,42.000000 148.000000,42.500000 148.000000,43.000000 148.000000,43.500000 148.000000,44.000000 147.500000,44.500000 147.500000,45.000000 147.000000,45.500000 146.500000,46.000000 146.500000,46.500000 146.500000,47.000000 146.000000,47.500000 146.000000,48.000000 145.500000,48.500000 145.500000,49.000000 145.000000,49.500000 145.000000,50.000000 145.000000,50.500000 144.500000,51.000000 144.000000,51.500000 144.000000,52.000000 144.000000,52.500000 144.500000,53.000000 145.000000,53.500000 146.000000,54.000000 147.000000,54.500000 147.500000,55.000000 148.000000,55.500000 148.500000,56.000000 149.500000,56.500000 150.500000,57.000000 151.000000,57.500000 151.500000,58.000000 152.000000,58.500000 152.500000,59.000000 152.500000,59.500000 153.000000,60.000000 " stroke="black" stroke-width="1" fill="none" />
<polyline points="33.000000,29.500000 32.500000,30.000000 32.500000,30.500000 32.500000,31.000000 " stroke="black" stroke-width="1" fill="none" />
<polyline points="112.500000,30.000000 112.500000,30.500000 112.500000,31.000000 112.500000,31.500000 112.500000,32.000000 112.500000,32.500000 112.500000,33.000000 112.500000,33.500000 112.500000,34.000000 112.500000,34.500000 " stroke="black" stroke-width="1" fill="none" />
<polyline points="45.000000,31.500000 45.000000,32.000000 45.000000,32.500000 45.000000,33.000000 45.000000,33.500000 45.000000,34.000000 45.000000,34.500000 45.000000,35.000000 45.500000,35.500000 45.500000,36.000000 45.500000,36.500000 45.500000,37.000000 45.500000,37.500000 45.500000,38.000000 46.000000,38.500000 46.000000,39.000000 46.000000,39.500000 46.000000,40.000000 46.000000,40.500000 " stroke="black" stroke-width="1" fill="none" />
<polyline points="148.500000,31.500000 148.500000,32.000000 148.500000,32.500000 148.500000,33.000000 148.500000,33.500000 148.500000,34.000000 148.500000,34.500000 148.500000,35.000000 148.500000,35.500000 148.500000,36.000000 149.000000,36.500000 149.000000,37.000000 149.000000,37.500000 149.000000,38.000000 149.000000,38.500000 149.000000,39.000000 149.000000,39.500000 149.000000,40.000000 149.000000,40.500000 149.000000,41.000000 149.000000,41.500000 149.000000,42.000000 149.000000,42.500000 149.000000,43.000000 149.000000,43.500000 149.000000,44.000000 " stroke="black" stroke-width="1" fill="none" />
<polyline points="128.500000,35.000000 128.000000,35.500000 127.500000,36.000000 127.000000,36.500000 126.500000,37.000000 126.000000,37.500000 126.500000,38.000000 125.500000,38.500000 125.500000,39.000000 125.500000,39.500000 125.500000,40.000000 " stroke="black" stroke-width="1" fill="none" />
<polyline points="88.000000,35.500000 88.000000,36.000000 88.000000,36.500000 88.000000,37.000000 88.000000,37.500000 88.500000,38.000000 88.500000,38.500000 88.500000,39.000000 " stroke="black" stroke-width="1" fill="none" />
<polyline points="131.000000,35.500000 132.000000,36.000000 132.000000,36.500000 132.500000,37.000000 132.500000,37.500000 " stroke="black" stroke-width="1" fill="none" />
<polyline points="89.000000,36.000000 89.000000,36.500000 89.500000,37.000000 89.500000,37.500000 89.500000,38.000000 " stroke="black" stroke-width="1" fill="none" />
<polyline points="129.500000,36.000000 129.000000,36.500000 128.500000,37.000000 128.000000,37.500000 127.500000,38.000000 " stroke="black" stroke-width="1" fill="none" />
<polyline points="113.000000,36.500000 113.500000,37.000000 113.500000,37.500000 113.500000,38.000000 113.500000,38.500000 113.500000,39.000000 113.500000,39.500000 113.500000,40.000000 113.500000,40.500000 " stroke="black" stroke-width="1" fill="none" />
<polyline points="130.500000,36.500000 131.000000,37.000000 131.500000,37.500000 131.500000,38.000000 131.500000,38.500000 131.500000,39.000000 131.500000,39.500000 131.500000,40.000000 132.000000,40.500000 132.000000,41.000000 132.000000,41.500000 132.000000,42.000000 132.000000,42.500000 132.000000,43.000000 132.000000,43.500000 132.000000,44.000000 132.000000,44.500000 132.000000,45.000000 132.000000,45.500000 132.000000,46.000000 132.000000,46.500000 132.000000,47.000000 132.000000,47.500000 132.000000,48.000000 132.000000,48.500000 132.000000,49.000000 132.000000,49.500000 132.000000,50.000000 132.000000,50.500000 132.000000,51.000000 132.000000,51.500000 132.000000,52.000000 132.000000,52.500000 132.000000,53.000000 132.000000,53.500000 132.000000,54.000000 132.000000,54.500000 132.000000,55.000000 132.000000,55.500000 131.500000,56.000000 131.500000,56.500000 131.500000,57.000000 131.500000,57.500000 131.000000,58.000000 131.000000,58.500000 131.000000,59.000000 130.500000,59.500000 130.000000,60.000000 130.000000,60.500000 130.000000,61.000000 129.500000,61.500000 129.500000,62.000000 129.500000,62.500000 129.000000,63.000000 129.000000,63.500000 129.000000,64.000000 129.000000,64.500000 129.000000,65.000000 129.000000,65.500000 129.000000,66.000000 129.500000,66.500000 " stroke="black" stroke-width="1" fill="none" />
<polyline points="132.500000,38.500000 132.500000,39.000000 133.000000,39.500000 133.000000,40.000000 133.000000,40.500000 133.000000,41.000000 133.000000,41.500000 133.000000,42.000000 133.000000,42.500000 133.000000,43.000000 133.000000,43.500000 133.000000,44.000000 133.000000,44.500000 133.000000,45.000000 133.000000,45.500000 133.000000,46.000000 133.000000,46.500000 133.000000,47.000000 133.000000,47.500000 133.000000,48.000000 133.000000,48.500000 133.000000,49.000000 133.000000,49.500000 133.000000,50.000000 133.000000,50.500000 133.000000,51.000000 133.000000,51.500000 133.000000,52.000000 133.000000,52.500000 133.000000,53.000000 133.000000,53.500000 133.000000,54.000000 133.000000,54.500000 " stroke="black" stroke-width="1" fill="none" />
<polyline points="89.000000,40.000000 89.000000,40.500000 89.000000,41.000000 89.000000,41.500000 89.000000,42.000000 89.500000,42.500000 89.500000,43.000000 89.500000,43.500000 89.000000,44.000000 87.500000,44.500000 87.000000,45.000000 86.500000,45.500000 86.500000,46.000000 86.500000,46.500000 86.500000,47.000000 " stroke="black" stroke-width="1" fill="none" />
<polyline points="46.500000,41.500000 46.500000,42.000000 46.500000,42.500000 47.000000,43.000000 " stroke="black" stroke-width="1" fill="none" />
<polyline points="92.000000,42.500000 93.500000,43.000000 93.000000,43.500000 92.000000,44.000000 " stroke="black" stroke-width="1" fill="none" />
<polyline points="114.000000,42.500000 113.000000,43.000000 113.000000,43.500000 113.000000,44.000000 113.000000,44.500000 113.000000,45.000000 113.000000,45.500000 113.000000,46.000000 113.000000,46.500000 113.000000,47.000000 113.000000,47.500000 113.000000,48.000000 113.000000,48.500000 113.000000,49.000000 113.000000,49.500000 113.000000,50.000000 113.000000,50.500000 " stroke="black" stroke-width="1" fill="none" />
<polyline points="73.500000,43.000000 72.500000,43.500000 72.000000,44.000000 71.500000,44.500000 71.500000,45.000000 71.000000,45.500000 70.500000,46.000000 70.000000,46.500000 70.000000,47.000000 70.000000,47.500000 70.000000,48.000000 70.000000,48.500000 " stroke="black" stroke-width="1" fill="none" />
<polyline points="114.000000,43.500000 114.000000,44.000000 114.000000,44.500000 114.000000,45.000000 114.000000,45.500000 114.000000,46.000000 114.000000,46.500000 114.000000,47.000000 114.000000,47.500000 114.000000,48.000000 114.000000,48.500000 114.000000,49.000000 " stroke="black" stroke-width="1" fill="none" />
<polyline points="73.000000,44.500000 73.000000,45.000000 72.500000,45.500000 72.000000,46.000000 72.000000,46.500000 71.500000,47.000000 71.000000,47.500000 71.000000,48.000000 " stroke="black" stroke-width="1" fill="none" />
<polyline points="90.000000,44.500000 91.500000,45.000000 91.500000,45.500000 90.500000,46.000000 90.500000,46.500000 91.000000,47.000000 91.000000,47.500000 91.500000,48.000000 91.500000,48.500000 91.500000,49.000000 91.500000,49.500000 92.000000,50.000000 92.000000,50.500000 92.000000,51.000000 92.500000,51.500000 92.500000,52.000000 93.500000,52.500000 93.500000,53.000000 94.000000,53.500000 94.000000,54.000000 " stroke="black" stroke-width="1" fill="none" />
<polyline points="148.500000,44.500000 148.500000,45.000000 148.500000,45.500000 148.000000,46.000000 148.000000,46.500000 " stroke="black" stroke-width="1" fill="none" />
<polyline points="59.000000,45.500000 58.000000,46.000000 57.500000,46.500000 57.500000,47.000000 57.000000,47.500000 57.000000,48.000000 57.000000,48.500000 57.000000,49.000000 " stroke="black" stroke-width="1" fill="none" />
<polyline points="62.000000,46.000000 62.500000,46.500000 62.500000,47.000000 62.500000,47.500000 62.500000,48.000000 62.500000,48.500000 62.500000,49.000000 62.500000,49.500000 62.500000,50.000000 " stroke="black" stroke-width="1" fill="none" />
<polyline points="91.500000,46.000000 92.000000,46.500000 92.000000,47.000000 92.500000,47.500000 " stroke="black" stroke-width="1" fill="none" />
<polyline points="46.500000,46.500000 46.500000,47.000000 46.500000,47.500000 47.000000,48.000000 47.000000,48.500000 47.000000,49.000000 47.000000,49.500000 47.000000,50.000000 47.000000,50.500000 47.000000,51.000000 47.500000,51.500000 47.500000,52.000000 47.500000,52.500000 47.500000,53.000000 47.500000,53.500000 47.500000,54.000000 " stroke="black" stroke-width="1" fill="none" />
<polyline points="47.500000,46.500000 47.500000,47.000000 48.000000,47.500000 48.000000,48.000000 48.000000,48.500000 48.000000,49.000000 48.000000,49.500000 48.000000,50.000000 48.000000,50.500000 48.500000,51.000000 48.500000,51.500000 48.500000,52.000000 48.500000,52.500000 48.500000,53.000000 48.500000,53.500000 49.000000,54.000000 49.000000,54.500000 48.000000,55.000000 48.000000,55.500000 48.000000,56.000000 48.000000,56.500000 48.000000,57.000000 48.000000,57.500000 48.000000,58.000000 48.000000,58.500000 48.500000,59.000000 48.500000,59.500000 49.000000,60.000000 49.000000,60.500000 " stroke="black" stroke-width="1" fill="none" />
<polyline points="59.500000,46.500000 59.000000,47.000000 58.500000,47.500000 58.500000,48.000000 58.000000,48.500000 58.000000,49.000000 58.000000,49.500000 58.000000,50.000000 57.500000,50.500000 56.500000,51.000000 56.500000,51.500000 56.500000,52.000000 56.500000,52.500000 56.500000,53.000000 56.500000,53.500000 56.500000,54.000000 56.500000,54.500000 56.500000,55.000000 56.500000,55.500000 56.500000,56.000000 56.500000,56.500000 56.500000,57.000000 56.500000,57.500000 56.500000,58.000000 56.500000,58.500000 56.500000,59.000000 56.500000,59.500000 56.500000,60.000000 56.500000,60.500000 56.500000,61.000000 56.500000,61.500000 56.500000,62.000000 57.000000,62.500000 57.500000,63.000000 " stroke="black" stroke-width="1" fill="none" />
<polyline points="61.000000,47.000000 61.500000,47.500000 61.500000,48.000000 61.500000,48.500000 61.500000,49.000000 61.500000,49.500000 61.000000,50.000000 61.500000,50.500000 61.500000,51.000000 " stroke="black" stroke-width="1" fill="none" />
<polyline points="147.500000,47.500000 147.000000,48.000000 147.000000,48.500000 146.500000,49.000000 146.500000,49.500000 146.000000,50.000000 146.000000,50.500000 146.000000,51.000000 145.500000,51.500000 145.500000,52.000000 146.000000,52.500000 146.000000,53.000000 " stroke="black" stroke-width="1" fill="none" />
<polyline points="80.500000,48.000000 81.000000,48.500000 80.000000,49.000000 80.500000,49.500000 80.500000,50.000000 80.500000,50.500000 80.000000,51.000000 78.500000,51.500000 78.000000,52.000000 79.500000,52.500000 78.500000,53.000000 " stroke="black" stroke-width="1" fill="none" />
<polyline points="92.500000,48.500000 92.500000,49.000000 93.000000,49.500000 93.000000,50.000000 93.500000,50.500000 93.500000,51.000000 94.000000,51.500000 94.500000,52.000000 95.000000,52.500000 95.000000,53.000000 95.500000,53.500000 95.500000,54.000000 95.000000,54.500000 95.000000,55.000000 95.000000,55.500000 95.000000,56.000000 96.000000,56.500000 96.500000,57.000000 " stroke="black" stroke-width="1" fill="none" />
<polyline points="81.500000,49.000000 81.500000,49.500000 81.500000,50.000000 81.500000,50.500000 81.500000,51.000000 81.500000,51.500000 81.000000,52.000000 " stroke="black" stroke-width="1" fill="none" />
<polyline points="57.500000,51.500000 57.500000,52.000000 57.500000,52.500000 57.500000,53.000000 57.500000,53.500000 57.500000,54.000000 57.500000,54.500000 57.500000,55.000000 57.500000,55.500000 57.500000,56.000000 57.500000,56.500000 57.500000,57.000000 57.500000,57.500000 57.500000,58.000000 57.500000,58.500000 57.500000,59.000000 57.500000,59.500000 57.500000,60.000000 57.500000,60.500000 57.500000,61.000000 57.500000,61.500000 58.000000,62.000000 " stroke="black" stroke-width="1" fill="none" />
<polyline points="113.500000,51.500000 113.500000,52.000000 113.500000,52.500000 113.500000,53.000000 113.500000,53.500000 113.500000,54.000000 113.500000,54.500000 113.500000,55.000000 113.500000,55.500000 113.500000,56.000000 113.500000,56.500000 113.500000,57.000000 113.500000,57.500000 113.500000,58.000000 113.500000,58.500000 113.500000,59.000000 113.500000,59.500000 113.500000,60.000000 113.500000,60.500000 113.500000,61.000000 113.500000,61.500000 113.500000,62.000000 113.500000,62.500000 113.500000,63.000000 113.500000,63.500000 113.500000,64.000000 113.500000,64.500000 113.500000,65.000000 113.500000,65.500000 113.500000,66.000000 113.500000,66.500000 113.500000,67.000000 113.500000,67.500000 113.500000,68.000000 113.500000,68.500000 113.500000,69.000000 113.500000,69.500000 113.500000,70.000000 113.500000,70.500000 113.500000,71.000000 " stroke="black" stroke-width="1" fill="none" />
<polyline points="114.500000,52.000000 114.500000,52.500000 114.500000,53.000000 114.500000,53.500000 114.500000,54.000000 114.500000,54.500000 114.500000,55.000000 114.500000,55.500000 114.500000,56.000000 114.500000,56.500000 114.500000,57.000000 114.500000,57.500000 114.500000,58.000000 114.500000,58.500000 114.500000,59.000000 114.500000,59.500000 114.500000,60.000000 114.500000,60.500000 114.500000,61.000000 114.500000,61.500000 114.500000,62.000000 114.500000,62.500000 114.500000,63.000000 114.500000,63.500000 114.500000,64.000000 114.500000,64.500000 114.500000,65.000000 114.500000,65.500000 114.500000,66.000000 114.500000,66.500000 114.500000,67.000000 114.500000,67.500000 114.500000,68.000000 114.500000,68.500000 114.500000,69.000000 " stroke="black" stroke-width="1" fill="none" />
<polyline points="147.000000,53.000000 147.500000,53.500000 148.500000,54.000000 149.000000,54.500000 149.500000,55.000000 150.000000,55.500000 151.000000,56.000000 151.500000,56.500000 152.000000,57.000000 153.000000,57.500000 153.000000,58.000000 153.500000,58.500000 154.000000,59.000000 " stroke="black" stroke-width="1" fill="none" />
<polyline points="49.000000,55.000000 49.000000,55.500000 49.000000,56.000000 49.000000,56.500000 49.000000,57.000000 49.000000,57.500000 49.500000,58.000000 49.500000,58.500000 49.500000,59.000000 50.000000,59.500000 50.000000,60.000000 " stroke="black" stroke-width="1" fill="none" />
<polyline points="133.000000,55.500000 133.000000,56.000000 132.500000,56.500000 132.500000,57.000000 " stroke="black" stroke-width="1" fill="none" />
<polyline points="132.000000,58.500000 132.000000,59.000000 132.000000,59.500000 131.500000,60.000000 131.000000,60.500000 131.000000,61.000000 131.000000,61.500000 130.500000,62.000000 130.500000,62.500000 130.500000,63.000000 130.500000,63.500000 130.500000,64.000000 130.500000,64.500000 130.500000,65.000000 130.500000,65.500000 130.500000,66.000000 " stroke="black" stroke-width="1" fill="none" />
<polyline points="155.500000,60.500000 155.000000,61.000000 155.000000,61.500000 155.000000,62.000000 155.500000,62.500000 155.500000,63.000000 156.000000,63.500000 156.500000,64.000000 156.500000,64.500000 157.500000,65.000000 158.000000,65.500000 158.500000,66.000000 159.000000,66.500000 159.000000,67.000000 159.000000,67.500000 159.000000,68.000000 159.000000,68.500000 158.500000,69.000000 158.500000,69.500000 158.000000,70.000000 157.500000,70.500000 157.000000,71.000000 156.500000,71.500000 156.000000,72.000000 155.500000,72.500000 154.500000,73.000000 154.000000,73.500000 153.500000,74.000000 154.000000,74.500000 153.000000,75.000000 152.000000,75.500000 151.500000,76.000000 151.000000,76.500000 150.000000,77.000000 " stroke="black" stroke-width="1" fill="none" />
<polyline points="156.000000,61.500000 156.500000,62.000000 157.000000,62.500000 157.000000,63.000000 157.500000,63.500000 158.000000,64.000000 159.000000,64.500000 159.500000,65.000000 160.000000,65.500000 160.000000,66.000000 160.000000,66.500000 160.000000,67.000000 160.000000,67.500000 160.000000,68.000000 160.000000,68.500000 160.000000,69.000000 160.000000,69.500000 159.500000,70.000000 " stroke="black" stroke-width="1" fill="none" />
<polyline points="157.500000,72.000000 157.000000,72.500000 157.000000,73.000000 156.000000,73.500000 155.500000,74.000000 155.000000,74.500000 " stroke="black" stroke-width="1" fill="none" />
<polyline points="151.000000,74.500000 150.500000,75.000000 150.000000,75.500000 149.500000,76.000000 " stroke="black" stroke-width="1" fill="none" />
<polyline points="146.500000,76.500000 145.500000,77.000000 147.000000,77.500000 146.000000,78.000000 " stroke="black" stroke-width="1" fill="none" />
<polyline points="138.500000,78.500000 137.000000,79.000000 137.000000,79.500000 137.000000,80.000000 " stroke="black" stroke-width="1" fill="none" />
</svg>