<svg xmlns="http://www.w3.org/2000/svg" height="300px" width="392px" version="1.1"><polyline points="357.0,110.0,338.0,118.0,325.0,126.0,315.0,134.0,306.0,142.0,298.0,150.0,290.0,158.0" stroke="black" stroke-width="1" fill="none"/>
<polyline points="264.0,163.0,272.0,166.0,280.0,165.0,288.0,160.0,296.0,152.0,304.0,144.0,312.0,137.0,320.0,130.0,328.0,124.0,336.0,119.0,344.0,115.0,352.0,112.0,360.0,110.0,368.0,108.0,376.0,108.0,384.0,108.0,392.0,109.0" stroke="black" stroke-width="1" fill="none"/>
<polyline points="386.0,111.0,378.0,112.0,370.0,114.0,362.0,117.0,354.0,121.0,346.0,126.0,338.0,133.0,330.0,141.0,322.0,152.0,314.0,162.0,306.0,170.0,298.0,177.0,290.0,181.0,282.0,184.0" stroke="black" stroke-width="1" fill="none"/>
<polyline points="283.0,184.0,291.0,184.0,299.0,182.0,307.0,177.0,315.0,170.0,323.0,160.0,331.0,151.0,339.0,142.0,347.0,135.0,355.0,129.0,363.0,125.0,371.0,122.0,379.0,120.0,387.0,118.0,369.0,127.0,358.0,135.0,350.0,143.0,343.0,151.0,337.0,159.0,330.0,167.0,323.0,175.0,313.0,183.0" stroke="black" stroke-width="1" fill="none"/>
<polyline points="307.0,197.0,315.0,198.0,323.0,197.0,331.0,194.0,339.0,189.0,347.0,182.0,355.0,172.0,363.0,157.0,371.0,146.0,371.0,151.0,367.0,159.0,364.0,167.0,361.0,175.0,357.0,183.0,350.0,191.0,338.0,199.0" stroke="black" stroke-width="1" fill="none"/>
<polyline points="328.0,195.0,342.0,187.0,350.0,179.0,356.0,171.0,361.0,163.0,365.0,155.0,371.0,147.0,370.0,153.0,362.0,172.0,354.0,186.0,346.0,194.0,338.0,199.0,330.0,202.0,322.0,204.0,314.0,205.0,306.0,204.0,298.0,204.0" stroke="black" stroke-width="1" fill="none"/>
<polyline points="300.0,203.0,299.0,211.0,305.0,219.0,316.0,227.0,328.0,235.0,337.0,243.0,343.0,251.0,346.0,259.0,347.0,267.0" stroke="black" stroke-width="1" fill="none"/>
<polyline points="340.0,267.0,332.0,256.0,324.0,247.0,316.0,240.0" stroke="black" stroke-width="1" fill="none"/>
<polyline points="315.0,239.0,323.0,241.0,331.0,248.0,339.0,257.0" stroke="black" stroke-width="1" fill="none"/>
<polyline points="344.0,279.0,336.0,270.0,328.0,263.0,320.0,255.0,312.0,246.0,304.0,240.0" stroke="black" stroke-width="1" fill="none"/>
<polyline points="305.0,239.0,308.0,247.0,315.0,255.0,321.0,263.0,326.0,271.0,332.0,279.0,338.0,287.0,335.0,295.0" stroke="black" stroke-width="1" fill="none"/>
<polyline points="337.0,284.0,329.0,273.0,321.0,262.0,313.0,252.0,305.0,242.0" stroke="black" stroke-width="1" fill="none"/>
<polyline points="306.0,240.0,313.0,248.0,320.0,256.0,328.0,264.0,337.0,272.0" stroke="black" stroke-width="1" fill="none"/>
<polyline points="307.0,283.0,306.0,275.0,304.0,267.0,303.0,259.0,301.0,251.0,300.0,248.0" stroke="black" stroke-width="1" fill="none"/>
<polyline points="302.0,248.0,304.0,256.0,307.0,264.0,309.0,272.0,311.0,280.0,314.0,288.0,317.0,296.0" stroke="black" stroke-width="1" fill="none"/>
<polyline points="332.0,300.0,324.0,299.0,316.0,293.0,306.0,287.0,298.0,267.0" stroke="black" stroke-width="1" fill="none"/>
<polyline points="296.0,252.0,296.0,260.0,298.0,268.0,301.0,276.0,304.0,284.0" stroke="black" stroke-width="1" fill="none"/>
<polyline points="294.0,286.0,286.0,279.0,278.0,264.0" stroke="black" stroke-width="1" fill="none"/>
<polyline points="294.0,252.0,294.0,260.0,294.0,268.0,296.0,276.0,298.0,284.0" stroke="black" stroke-width="1" fill="none"/>
<polyline points="345.0,278.0,341.0,270.0,335.0,262.0,329.0,254.0,322.0,246.0,316.0,238.0" stroke="black" stroke-width="1" fill="none"/>
<polyline points="319.0,239.0,329.0,247.0,336.0,255.0,343.0,263.0" stroke="black" stroke-width="1" fill="none"/>
<polyline points="339.0,244.0,331.0,236.0,323.0,230.0,315.0,225.0,307.0,220.0,299.0,209.0" stroke="black" stroke-width="1" fill="none"/>
<polyline points="296.0,190.0,304.0,189.0,312.0,187.0,320.0,184.0,328.0,178.0,336.0,169.0,344.0,159.0,352.0,149.0,360.0,141.0,368.0,135.0,376.0,132.0,368.0,135.0,358.0,143.0,350.0,151.0,344.0,159.0,338.0,167.0,331.0,175.0,321.0,183.0,309.0,195.0,317.0,195.0,325.0,193.0,333.0,189.0,341.0,183.0,349.0,173.0,357.0,158.0,365.0,146.0,373.0,137.0,375.0,135.0,368.0,143.0,362.0,151.0,357.0,159.0,353.0,167.0,348.0,175.0,341.0,183.0,329.0,191.0" stroke="black" stroke-width="1" fill="none"/>
<polyline points="270.0,225.0,262.0,217.0,254.0,209.0,246.0,197.0" stroke="black" stroke-width="1" fill="none"/>
<polyline points="243.0,170.0,235.0,156.0,227.0,149.0,219.0,144.0,211.0,142.0" stroke="black" stroke-width="1" fill="none"/>
<polyline points="211.0,140.0,219.0,141.0,227.0,141.0,235.0,136.0,243.0,135.0,251.0,138.0,259.0,145.0,267.0,155.0" stroke="black" stroke-width="1" fill="none"/>
<polyline points="274.0,161.0,266.0,161.0,264.0,161.0,264.0,152.0,257.0,144.0,247.0,136.0" stroke="black" stroke-width="1" fill="none"/>
<polyline points="216.0,144.0,230.0,152.0,237.0,160.0,242.0,168.0,244.0,176.0,245.0,184.0,245.0,192.0,247.0,200.0,252.0,208.0,260.0,216.0,269.0,224.0,274.0,232.0,276.0,240.0,276.0,248.0,276.0,256.0,278.0,264.0,281.0,272.0,286.0,280.0,296.0,288.0" stroke="black" stroke-width="1" fill="none"/>
<polyline points="241.0,187.0,233.0,200.0,225.0,206.0,217.0,207.0,209.0,207.0,201.0,206.0" stroke="black" stroke-width="1" fill="none"/>
<polyline points="201.0,204.0,209.0,204.0,217.0,202.0,225.0,198.0,233.0,192.0" stroke="black" stroke-width="1" fill="none"/>
<polyline points="226.0,197.0,230.0,191.0,222.0,196.0,214.0,200.0,206.0,200.0,198.0,199.0,190.0,197.0,182.0,194.0,174.0,189.0,166.0,184.0,158.0,181.0,150.0,179.0,142.0,179.0" stroke="black" stroke-width="1" fill="none"/>
<polyline points="142.0,177.0,150.0,176.0,158.0,176.0,166.0,178.0,174.0,180.0,182.0,183.0,190.0,186.0,198.0,188.0,206.0,189.0,214.0,189.0,222.0,188.0,230.0,185.0,224.0,195.0" stroke="black" stroke-width="1" fill="none"/>
<polyline points="229.0,183.0,221.0,185.0,213.0,186.0,205.0,185.0,197.0,184.0,189.0,182.0,181.0,179.0,173.0,176.0,165.0,173.0,157.0,170.0,149.0,168.0,141.0,168.0,133.0,167.0,125.0,168.0" stroke="black" stroke-width="1" fill="none"/>
<polyline points="124.0,166.0,132.0,164.0,140.0,163.0,148.0,163.0,156.0,164.0,164.0,165.0,172.0,167.0,180.0,170.0,188.0,173.0,196.0,175.0,204.0,177.0,212.0,179.0,220.0,180.0,228.0,180.0" stroke="black" stroke-width="1" fill="none"/>
<polyline points="230.0,178.0,222.0,178.0,214.0,177.0,206.0,175.0,198.0,173.0,190.0,170.0,182.0,167.0,174.0,165.0,166.0,161.0,158.0,159.0,150.0,157.0,142.0,156.0,134.0,156.0,126.0,158.0,118.0,159.0" stroke="black" stroke-width="1" fill="none"/>
<polyline points="118.0,157.0,126.0,155.0,134.0,153.0,142.0,151.0,150.0,150.0,158.0,149.0,166.0,150.0,174.0,151.0,182.0,154.0,190.0,157.0,198.0,161.0,206.0,164.0,214.0,167.0,222.0,169.0,230.0,171.0,238.0,171.0" stroke="black" stroke-width="1" fill="none"/>
<polyline points="236.0,170.0,242.0,178.0,242.0,186.0,238.0,194.0,231.0,202.0" stroke="black" stroke-width="1" fill="none"/>
<polyline points="186.0,196.0,171.0,188.0,154.0,180.0" stroke="black" stroke-width="1" fill="none"/>
<polyline points="159.0,171.0,180.0,179.0" stroke="black" stroke-width="1" fill="none"/>
<polyline points="183.0,168.0,161.0,160.0" stroke="black" stroke-width="1" fill="none"/>
<polyline points="175.0,152.0,195.0,160.0,216.0,168.0" stroke="black" stroke-width="1" fill="none"/>
<polyline points="375.0,120.0,356.0,128.0,346.0,136.0,337.0,144.0,330.0,152.0,323.0,160.0,317.0,168.0,309.0,176.0,297.0,188.0,305.0,187.0,313.0,183.0,321.0,177.0,329.0,169.0,337.0,159.0,345.0,148.0,353.0,140.0,361.0,133.0,369.0,127.0,377.0,123.0,385.0,121.0" stroke="black" stroke-width="1" fill="none"/>
<polyline points="375.0,112.0,355.0,120.0,343.0,128.0,335.0,136.0,328.0,144.0,322.0,152.0,316.0,160.0,309.0,168.0,299.0,176.0" stroke="black" stroke-width="1" fill="none"/>
<polyline points="144.0,154.0,184.0,154.0" stroke="black" stroke-width="1" fill="none"/>
<polyline points="176.0,152.0,168.0,160.0" stroke="black" stroke-width="1" fill="none"/>
<polyline points="168.0,152.0,160.0,160.0" stroke="black" stroke-width="1" fill="none"/>
<polyline points="160.0,170.0,304.0,170.0" stroke="black" stroke-width="1" fill="none"/>
<polyline points="304.0,168.0,320.0,152.0" stroke="black" stroke-width="1" fill="none"/>
<polyline points="328.0,154.0,360.0,154.0" stroke="black" stroke-width="1" fill="none"/>
<polyline points="360.0,152.0,312.0,200.0" stroke="black" stroke-width="1" fill="none"/>
<polyline points="312.0,192.0,304.0,200.0" stroke="black" stroke-width="1" fill="none"/>
<polyline points="304.0,192.0,272.0,224.0" stroke="black" stroke-width="1" fill="none"/>
<polyline points="272.0,226.0,320.0,226.0" stroke="black" stroke-width="1" fill="none"/>
<polyline points="320.0,232.0,312.0,240.0" stroke="black" stroke-width="1" fill="none"/>
<polyline points="312.0,232.0,280.0,264.0" stroke="black" stroke-width="1" fill="none"/>
<polyline points="280.0,266.0,328.0,266.0" stroke="black" stroke-width="1" fill="none"/>
<polyline points="328.0,272.0,320.0,280.0" stroke="black" stroke-width="1" fill="none"/>
<polyline points="320.0,272.0,312.0,280.0" stroke="black" stroke-width="1" fill="none"/>
<polyline points="312.0,282.0,336.0,282.0" stroke="black" stroke-width="1" fill="none"/>
<polyline points="336.0,280.0,320.0,296.0" stroke="black" stroke-width="1" fill="none"/>
<polyline points="320.0,294.0,328.0,294.0" stroke="black" stroke-width="1" fill="none"/>
<polyline points="328.0,296.0,336.0,288.0" stroke="black" stroke-width="1" fill="none"/>
<polyline points="328.0,280.0,320.0,288.0" stroke="black" stroke-width="1" fill="none"/>
<polyline points="312.0,290.0,336.0,290.0" stroke="black" stroke-width="1" fill="none"/>
<polyline points="336.0,266.0,344.0,266.0" stroke="black" stroke-width="1" fill="none"/>
<polyline points="344.0,250.0,336.0,250.0" stroke="black" stroke-width="1" fill="none"/>
<polyline points="328.0,248.0,336.0,240.0" stroke="black" stroke-width="1" fill="none"/>
<polyline points="328.0,232.0,304.0,256.0" stroke="black" stroke-width="1" fill="none"/>
<polyline points="304.0,248.0,296.0,256.0" stroke="black" stroke-width="1" fill="none"/>
<polyline points="288.0,264.0,280.0,272.0" stroke="black" stroke-width="1" fill="none"/>
<polyline points="288.0,274.0,296.0,274.0" stroke="black" stroke-width="1" fill="none"/>
<polyline points="296.0,272.0,288.0,280.0" stroke="black" stroke-width="1" fill="none"/>
<polyline points="288.0,282.0,296.0,282.0" stroke="black" stroke-width="1" fill="none"/>
<polyline points="304.0,274.0,328.0,274.0" stroke="black" stroke-width="1" fill="none"/>
<polyline points="320.0,264.0,312.0,272.0" stroke="black" stroke-width="1" fill="none"/>
<polyline points="304.0,264.0,312.0,256.0" stroke="black" stroke-width="1" fill="none"/>
<polyline points="328.0,258.0,336.0,258.0" stroke="black" stroke-width="1" fill="none"/>
<polyline points="312.0,224.0,280.0,256.0" stroke="black" stroke-width="1" fill="none"/>
<polyline points="280.0,258.0,320.0,258.0" stroke="black" stroke-width="1" fill="none"/>
<polyline points="304.0,224.0,280.0,248.0" stroke="black" stroke-width="1" fill="none"/>
<polyline points="280.0,250.0,328.0,250.0" stroke="black" stroke-width="1" fill="none"/>
<polyline points="304.0,216.0,280.0,240.0" stroke="black" stroke-width="1" fill="none"/>
<polyline points="280.0,242.0,336.0,242.0" stroke="black" stroke-width="1" fill="none"/>
<polyline points="296.0,216.0,280.0,232.0" stroke="black" stroke-width="1" fill="none"/>
<polyline points="272.0,232.0,296.0,208.0" stroke="black" stroke-width="1" fill="none"/>
<polyline points="296.0,184.0,264.0,216.0" stroke="black" stroke-width="1" fill="none"/>
<polyline points="264.0,218.0,304.0,218.0" stroke="black" stroke-width="1" fill="none"/>
<polyline points="272.0,216.0,304.0,184.0" stroke="black" stroke-width="1" fill="none"/>
<polyline points="304.0,178.0,320.0,178.0" stroke="black" stroke-width="1" fill="none"/>
<polyline points="328.0,178.0,344.0,178.0" stroke="black" stroke-width="1" fill="none"/>
<polyline points="344.0,176.0,336.0,184.0" stroke="black" stroke-width="1" fill="none"/>
<polyline points="344.0,192.0,352.0,184.0" stroke="black" stroke-width="1" fill="none"/>
<polyline points="352.0,178.0,360.0,178.0" stroke="black" stroke-width="1" fill="none"/>
<polyline points="360.0,162.0,368.0,162.0" stroke="black" stroke-width="1" fill="none"/>
<polyline points="368.0,146.0,352.0,146.0" stroke="black" stroke-width="1" fill="none"/>
<polyline points="352.0,136.0,328.0,160.0" stroke="black" stroke-width="1" fill="none"/>
<polyline points="320.0,162.0,336.0,162.0" stroke="black" stroke-width="1" fill="none"/>
<polyline points="336.0,170.0,360.0,170.0" stroke="black" stroke-width="1" fill="none"/>
<polyline points="352.0,162.0,344.0,162.0" stroke="black" stroke-width="1" fill="none"/>
<polyline points="344.0,146.0,336.0,146.0" stroke="black" stroke-width="1" fill="none"/>
<polyline points="344.0,138.0,352.0,138.0" stroke="black" stroke-width="1" fill="none"/>
<polyline points="352.0,130.0,360.0,130.0" stroke="black" stroke-width="1" fill="none"/>
<polyline points="360.0,138.0,368.0,138.0" stroke="black" stroke-width="1" fill="none"/>
<polyline points="352.0,120.0,360.0,112.0" stroke="black" stroke-width="1" fill="none"/>
<polyline points="368.0,114.0,344.0,114.0" stroke="black" stroke-width="1" fill="none"/>
<polyline points="344.0,120.0,256.0,208.0" stroke="black" stroke-width="1" fill="none"/>
<polyline points="256.0,210.0,304.0,210.0" stroke="black" stroke-width="1" fill="none"/>
<polyline points="288.0,184.0,264.0,208.0" stroke="black" stroke-width="1" fill="none"/>
<polyline points="256.0,200.0,328.0,128.0" stroke="black" stroke-width="1" fill="none"/>
<polyline points="328.0,122.0,352.0,122.0" stroke="black" stroke-width="1" fill="none"/>
<polyline points="336.0,130.0,320.0,130.0" stroke="black" stroke-width="1" fill="none"/>
<polyline points="312.0,138.0,328.0,138.0" stroke="black" stroke-width="1" fill="none"/>
<polyline points="328.0,146.0,304.0,146.0" stroke="black" stroke-width="1" fill="none"/>
<polyline points="296.0,154.0,320.0,154.0" stroke="black" stroke-width="1" fill="none"/>
<polyline points="312.0,170.0,328.0,170.0" stroke="black" stroke-width="1" fill="none"/>
<polyline points="280.0,168.0,248.0,200.0" stroke="black" stroke-width="1" fill="none"/>
<polyline points="248.0,202.0,320.0,202.0" stroke="black" stroke-width="1" fill="none"/>
<polyline points="312.0,162.0,280.0,162.0" stroke="black" stroke-width="1" fill="none"/>
<polyline points="272.0,168.0,248.0,192.0" stroke="black" stroke-width="1" fill="none"/>
<polyline points="248.0,194.0,344.0,194.0" stroke="black" stroke-width="1" fill="none"/>
<polyline points="328.0,234.0,272.0,234.0" stroke="black" stroke-width="1" fill="none"/>
<polyline points="248.0,184.0,264.0,168.0" stroke="black" stroke-width="1" fill="none"/>
<polyline points="264.0,160.0,248.0,176.0" stroke="black" stroke-width="1" fill="none"/>
<polyline points="240.0,176.0,224.0,192.0" stroke="black" stroke-width="1" fill="none"/>
<polyline points="216.0,192.0,208.0,200.0" stroke="black" stroke-width="1" fill="none"/>
<polyline points="208.0,202.0,232.0,202.0" stroke="black" stroke-width="1" fill="none"/>
<polyline points="224.0,200.0,240.0,184.0" stroke="black" stroke-width="1" fill="none"/>
<polyline points="248.0,168.0,264.0,152.0" stroke="black" stroke-width="1" fill="none"/>
<polyline points="256.0,152.0,240.0,168.0" stroke="black" stroke-width="1" fill="none"/>
<polyline points="240.0,162.0,272.0,162.0" stroke="black" stroke-width="1" fill="none"/>
<polyline points="256.0,144.0,240.0,160.0" stroke="black" stroke-width="1" fill="none"/>
<polyline points="240.0,152.0,248.0,144.0" stroke="black" stroke-width="1" fill="none"/>
<polyline points="248.0,136.0,232.0,152.0" stroke="black" stroke-width="1" fill="none"/>
<polyline points="232.0,154.0,272.0,154.0" stroke="black" stroke-width="1" fill="none"/>
<polyline points="240.0,136.0,232.0,144.0" stroke="black" stroke-width="1" fill="none"/>
<polyline points="232.0,138.0,256.0,138.0" stroke="black" stroke-width="1" fill="none"/>
<polyline points="264.0,146.0,224.0,146.0" stroke="black" stroke-width="1" fill="none"/>
<polyline points="216.0,168.0,208.0,176.0" stroke="black" stroke-width="1" fill="none"/>
<polyline points="208.0,192.0,200.0,200.0" stroke="black" stroke-width="1" fill="none"/>
<polyline points="200.0,192.0,192.0,200.0" stroke="black" stroke-width="1" fill="none"/>
<polyline points="184.0,194.0,240.0,194.0" stroke="black" stroke-width="1" fill="none"/>
<polyline points="192.0,184.0,184.0,192.0" stroke="black" stroke-width="1" fill="none"/>
<polyline points="184.0,184.0,176.0,192.0" stroke="black" stroke-width="1" fill="none"/>
<polyline points="168.0,186.0,352.0,186.0" stroke="black" stroke-width="1" fill="none"/>
<polyline points="200.0,160.0,192.0,168.0" stroke="black" stroke-width="1" fill="none"/>
<polyline points="192.0,160.0,184.0,168.0" stroke="black" stroke-width="1" fill="none"/>
<polyline points="160.0,178.0,296.0,178.0" stroke="black" stroke-width="1" fill="none"/>
<polyline points="208.0,162.0,144.0,162.0" stroke="black" stroke-width="1" fill="none"/>
</svg>