<svg xmlns="http://www.w3.org/2000/svg" height="497px" width="464px" version="1.1"><polyline points="139.0,116.0,135.0,124.0,134.0,132.0,132.0,140.0,131.0,148.0,130.0,156.0,129.0,164.0,129.0,172.0,128.0,180.0,127.0,188.0,128.0,196.0,139.0,203.0,147.0,204.0,155.0,204.0" stroke="black" stroke-width="1" fill="none"/>
<polyline points="166.0,217.0,174.0,220.0,182.0,217.0,190.0,212.0,198.0,219.0,206.0,219.0" stroke="black" stroke-width="1" fill="none"/>
<polyline points="220.0,209.0,228.0,207.0,236.0,205.0,244.0,205.0" stroke="black" stroke-width="1" fill="none"/>
<polyline points="241.0,210.0,233.0,231.0" stroke="black" stroke-width="1" fill="none"/>
<polyline points="240.0,228.0,248.0,208.0,256.0,201.0,264.0,200.0" stroke="black" stroke-width="1" fill="none"/>
<polyline points="249.0,189.0,247.0,197.0,241.0,210.0,238.0,218.0,235.0,226.0,233.0,234.0,232.0,242.0,232.0,250.0,235.0,258.0,241.0,266.0,251.0,274.0,265.0,282.0,279.0,290.0,293.0,298.0,306.0,306.0,319.0,314.0,330.0,322.0,339.0,330.0,348.0,338.0,354.0,346.0,360.0,354.0,364.0,362.0,366.0,370.0,367.0,378.0,367.0,386.0,366.0,394.0,365.0,402.0,364.0,410.0,363.0,418.0,362.0,426.0,360.0,434.0,357.0,442.0,354.0,450.0,350.0,458.0,345.0,466.0,335.0,474.0" stroke="black" stroke-width="1" fill="none"/>
<polyline points="281.0,478.0,277.0,486.0" stroke="black" stroke-width="1" fill="none"/>
<polyline points="264.0,488.0,273.0,480.0,280.0,472.0" stroke="black" stroke-width="1" fill="none"/>
<polyline points="235.0,453.0,227.0,435.0" stroke="black" stroke-width="1" fill="none"/>
<polyline points="225.0,451.0,217.0,452.0" stroke="black" stroke-width="1" fill="none"/>
<polyline points="214.0,462.0,222.0,458.0,230.0,456.0" stroke="black" stroke-width="1" fill="none"/>
<polyline points="231.0,468.0,223.0,473.0" stroke="black" stroke-width="1" fill="none"/>
<polyline points="222.0,479.0,230.0,477.0,230.0,473.0" stroke="black" stroke-width="1" fill="none"/>
<polyline points="231.0,484.0,223.0,484.0" stroke="black" stroke-width="1" fill="none"/>
<polyline points="217.0,485.0,225.0,493.0,233.0,496.0,241.0,497.0,249.0,496.0,257.0,496.0,265.0,494.0,273.0,490.0,281.0,478.0,289.0,479.0,297.0,481.0,305.0,483.0,313.0,484.0,321.0,484.0,329.0,483.0,337.0,480.0,345.0,474.0,353.0,464.0,361.0,460.0,369.0,456.0,377.0,451.0,385.0,446.0,393.0,439.0,401.0,432.0,409.0,423.0,417.0,413.0,425.0,398.0" stroke="black" stroke-width="1" fill="none"/>
<polyline points="407.0,376.0,399.0,393.0,391.0,404.0,383.0,412.0,375.0,420.0,367.0,428.0" stroke="black" stroke-width="1" fill="none"/>
<polyline points="367.0,354.0,359.0,341.0,351.0,332.0,343.0,324.0,335.0,318.0,327.0,312.0,319.0,306.0,311.0,301.0,303.0,296.0,295.0,292.0,287.0,287.0,279.0,283.0,271.0,278.0,263.0,273.0,255.0,269.0,247.0,263.0,239.0,252.0" stroke="black" stroke-width="1" fill="none"/>
<polyline points="233.0,252.0,241.0,265.0,249.0,272.0,257.0,277.0,265.0,281.0,273.0,286.0,281.0,290.0,289.0,295.0,297.0,300.0,305.0,304.0,313.0,309.0,321.0,315.0,329.0,320.0,337.0,327.0,345.0,334.0,353.0,343.0,361.0,355.0" stroke="black" stroke-width="1" fill="none"/>
<polyline points="422.0,322.0,414.0,300.0,406.0,285.0,398.0,269.0,390.0,249.0" stroke="black" stroke-width="1" fill="none"/>
<polyline points="395.0,245.0,403.0,266.0,411.0,282.0,419.0,297.0,427.0,318.0" stroke="black" stroke-width="1" fill="none"/>
<polyline points="404.0,323.0,396.0,301.0,388.0,284.0,380.0,268.0,372.0,251.0" stroke="black" stroke-width="1" fill="none"/>
<polyline points="367.0,255.0,375.0,272.0,383.0,288.0,391.0,305.0,399.0,327.0" stroke="black" stroke-width="1" fill="none"/>
<polyline points="387.0,218.0,395.0,198.0,403.0,185.0,411.0,178.0,419.0,172.0,427.0,169.0,435.0,166.0,443.0,164.0,451.0,161.0,455.0,156.0" stroke="black" stroke-width="1" fill="none"/>
<polyline points="458.0,162.0,450.0,168.0,442.0,171.0,434.0,173.0,426.0,175.0,418.0,180.0,410.0,187.0,402.0,197.0,394.0,215.0" stroke="black" stroke-width="1" fill="none"/>
<polyline points="371.0,209.0,379.0,191.0,387.0,180.0,395.0,172.0,403.0,166.0,411.0,161.0,419.0,158.0,427.0,155.0,435.0,153.0,443.0,151.0,451.0,152.0,459.0,150.0,461.0,158.0,453.0,166.0" stroke="black" stroke-width="1" fill="none"/>
<polyline points="460.0,150.0,452.0,146.0,444.0,145.0,436.0,147.0,428.0,149.0,420.0,151.0,412.0,154.0,404.0,158.0,396.0,164.0,388.0,170.0,380.0,179.0,372.0,191.0,364.0,212.0" stroke="black" stroke-width="1" fill="none"/>
<polyline points="435.0,172.0,417.0,180.0,409.0,188.0,403.0,196.0,399.0,204.0,396.0,212.0,393.0,220.0,392.0,228.0,393.0,236.0,394.0,244.0,397.0,252.0,400.0,260.0,403.0,268.0,407.0,276.0,411.0,284.0,415.0,292.0,420.0,300.0,423.0,308.0,426.0,316.0,428.0,324.0,430.0,332.0,431.0,340.0,432.0,348.0,432.0,356.0,432.0,364.0,432.0,372.0,430.0,380.0,429.0,388.0,426.0,396.0,423.0,404.0,418.0,412.0,412.0,420.0,405.0,428.0,396.0,436.0,387.0,444.0,375.0,452.0,360.0,460.0,351.0,468.0,343.0,476.0" stroke="black" stroke-width="1" fill="none"/>
<polyline points="313.0,395.0,305.0,382.0,297.0,374.0,289.0,369.0,281.0,367.0,273.0,366.0,265.0,367.0,257.0,369.0,249.0,372.0,241.0,377.0,233.0,385.0,225.0,401.0" stroke="black" stroke-width="1" fill="none"/>
<polyline points="219.0,400.0,227.0,383.0,235.0,374.0,243.0,369.0,251.0,365.0,259.0,362.0,267.0,360.0,275.0,360.0,283.0,361.0,291.0,363.0,299.0,368.0,307.0,375.0,315.0,387.0" stroke="black" stroke-width="1" fill="none"/>
<polyline points="310.0,392.0,306.0,384.0,298.0,376.0,285.0,368.0" stroke="black" stroke-width="1" fill="none"/>
<polyline points="289.0,363.0,302.0,371.0,309.0,379.0,314.0,387.0,316.0,395.0" stroke="black" stroke-width="1" fill="none"/>
<polyline points="259.0,368.0,242.0,376.0,234.0,384.0,229.0,392.0,226.0,400.0,224.0,408.0,223.0,416.0,224.0,424.0,226.0,432.0,228.0,440.0,231.0,448.0,236.0,456.0,238.0,464.0,224.0,472.0,222.0,482.0" stroke="black" stroke-width="1" fill="none"/>
<polyline points="202.0,481.0,207.0,473.0,208.0,465.0,209.0,457.0,210.0,449.0,210.0,441.0,210.0,433.0,209.0,425.0,209.0,417.0,208.0,409.0,207.0,401.0,207.0,393.0,207.0,393.0" stroke="black" stroke-width="1" fill="none"/>
<polyline points="211.0,393.0,213.0,401.0,214.0,409.0,215.0,417.0,215.0,425.0,216.0,433.0,216.0,441.0,216.0,449.0,214.0,462.0,213.0,470.0,211.0,478.0,206.0,486.0" stroke="black" stroke-width="1" fill="none"/>
<polyline points="171.0,482.0,163.0,482.0" stroke="black" stroke-width="1" fill="none"/>
<polyline points="158.0,487.0,166.0,494.0,174.0,496.0,182.0,496.0,190.0,494.0,198.0,492.0,206.0,486.0,217.0,473.0,225.0,464.0" stroke="black" stroke-width="1" fill="none"/>
<polyline points="180.0,456.0,172.0,464.0,164.0,473.0" stroke="black" stroke-width="1" fill="none"/>
<polyline points="157.0,475.0,165.0,463.0,173.0,455.0" stroke="black" stroke-width="1" fill="none"/>
<polyline points="167.0,455.0,159.0,464.0,151.0,468.0,143.0,470.0,135.0,471.0,127.0,470.0,119.0,467.0,119.0,459.0,119.0,451.0,128.0,444.0,120.0,447.0" stroke="black" stroke-width="1" fill="none"/>
<polyline points="120.0,445.0,128.0,438.0,136.0,433.0,144.0,426.0" stroke="black" stroke-width="1" fill="none"/>
<polyline points="136.0,426.0,128.0,431.0,120.0,437.0,112.0,449.0" stroke="black" stroke-width="1" fill="none"/>
<polyline points="119.0,458.0,127.0,458.0" stroke="black" stroke-width="1" fill="none"/>
<polyline points="173.0,473.0,162.0,481.0,166.0,486.0,174.0,484.0" stroke="black" stroke-width="1" fill="none"/>
<polyline points="200.0,483.0,192.0,488.0,184.0,489.0,176.0,490.0,168.0,488.0,158.0,487.0,156.0,479.0,159.0,471.0,165.0,463.0,173.0,455.0,177.0,447.0,177.0,439.0,176.0,431.0" stroke="black" stroke-width="1" fill="none"/>
<polyline points="174.0,429.0,173.0,437.0,171.0,445.0,168.0,453.0,162.0,461.0" stroke="black" stroke-width="1" fill="none"/>
<polyline points="172.0,412.0,164.0,390.0,156.0,374.0" stroke="black" stroke-width="1" fill="none"/>
<polyline points="156.0,374.0,159.0,382.0,163.0,390.0,167.0,398.0,170.0,406.0,172.0,414.0,170.0,422.0,169.0,430.0,167.0,438.0,165.0,446.0,161.0,454.0,150.0,462.0" stroke="black" stroke-width="1" fill="none"/>
<polyline points="176.0,405.0,168.0,384.0,160.0,369.0,152.0,350.0" stroke="black" stroke-width="1" fill="none"/>
<polyline points="154.0,374.0,154.0,382.0,153.0,390.0,152.0,398.0,151.0,406.0,149.0,414.0,146.0,422.0,140.0,430.0,128.0,438.0,126.0,444.0,122.0,450.0" stroke="black" stroke-width="1" fill="none"/>
<polyline points="258.0,362.0,241.0,370.0,231.0,378.0,225.0,386.0,221.0,394.0,219.0,402.0,218.0,410.0,218.0,418.0,219.0,426.0,220.0,434.0,223.0,442.0,226.0,450.0,227.0,463.0,218.0,471.0,216.0,479.0,217.0,487.0,228.0,495.0,235.0,485.0,236.0,490.0,244.0,491.0,252.0,490.0,260.0,489.0,268.0,487.0,276.0,475.0,284.0,472.0,292.0,474.0,300.0,476.0,308.0,477.0,316.0,478.0,324.0,478.0,332.0,476.0,340.0,471.0,348.0,461.0,356.0,445.0" stroke="black" stroke-width="1" fill="none"/>
<polyline points="222.0,203.0,230.0,199.0,238.0,194.0,246.0,189.0,241.0,192.0,228.0,200.0,226.0,197.0,234.0,192.0,242.0,188.0,250.0,183.0,262.0,182.0,263.0,178.0" stroke="black" stroke-width="1" fill="none"/>
<polyline points="230.0,144.0,236.0,136.0,241.0,128.0,247.0,123.0,239.0,131.0,231.0,142.0,223.0,151.0,215.0,152.0,207.0,151.0,199.0,149.0,191.0,149.0,183.0,149.0,175.0,151.0,167.0,151.0,159.0,147.0,151.0,136.0,143.0,124.0" stroke="black" stroke-width="1" fill="none"/>
<polyline points="143.0,124.0,148.0,132.0,153.0,140.0,159.0,148.0" stroke="black" stroke-width="1" fill="none"/>
<polyline points="164.0,172.0,166.0,170.0,163.0,178.0,164.0,186.0,168.0,188.0" stroke="black" stroke-width="1" fill="none"/>
<polyline points="178.0,195.0,186.0,192.0,194.0,192.0,198.0,196.0,191.0,204.0,195.0,212.0" stroke="black" stroke-width="1" fill="none"/>
<polyline points="189.0,212.0,200.0,220.0" stroke="black" stroke-width="1" fill="none"/>
<polyline points="208.0,214.0,200.0,215.0,192.0,207.0,179.0,197.0" stroke="black" stroke-width="1" fill="none"/>
<polyline points="183.0,192.0,181.0,200.0,184.0,208.0,173.0,216.0,166.0,214.0,174.0,216.0,182.0,211.0,195.0,200.0" stroke="black" stroke-width="1" fill="none"/>
<polyline points="187.0,211.0,177.0,219.0" stroke="black" stroke-width="1" fill="none"/>
<polyline points="157.0,247.0,149.0,235.0,141.0,221.0" stroke="black" stroke-width="1" fill="none"/>
<polyline points="140.0,217.0,148.0,215.0,156.0,212.0" stroke="black" stroke-width="1" fill="none"/>
<polyline points="152.0,210.0,144.0,212.0,136.0,209.0" stroke="black" stroke-width="1" fill="none"/>
<polyline points="160.0,206.0,152.0,207.0,144.0,207.0,136.0,207.0,123.0,203.0,115.0,200.0,107.0,196.0" stroke="black" stroke-width="1" fill="none"/>
<polyline points="106.0,193.0,117.0,201.0,130.0,209.0,131.0,219.0,137.0,227.0,141.0,235.0,146.0,243.0,152.0,251.0,155.0,259.0,156.0,267.0,156.0,275.0,155.0,283.0,153.0,291.0,151.0,299.0,149.0,307.0,147.0,315.0,145.0,323.0,144.0,331.0,144.0,339.0,145.0,347.0,147.0,355.0,149.0,363.0,149.0,371.0,148.0,379.0,148.0,387.0,147.0,395.0,146.0,403.0,144.0,411.0,141.0,419.0,135.0,427.0,122.0,435.0,114.0,443.0,112.0,451.0,113.0,459.0,118.0,467.0,129.0,465.0,137.0,465.0,145.0,464.0,153.0,461.0,161.0,454.0" stroke="black" stroke-width="1" fill="none"/>
<polyline points="155.0,258.0,147.0,243.0,139.0,230.0,131.0,219.0,123.0,221.0,115.0,223.0,107.0,223.0" stroke="black" stroke-width="1" fill="none"/>
<polyline points="106.0,220.0,114.0,219.0,122.0,218.0,130.0,216.0" stroke="black" stroke-width="1" fill="none"/>
<polyline points="122.0,199.0,114.0,196.0,106.0,193.0" stroke="black" stroke-width="1" fill="none"/>
<polyline points="169.0,187.0,172.0,179.0,168.0,171.0" stroke="black" stroke-width="1" fill="none"/>
<polyline points="206.0,172.0,208.0,170.0,205.0,178.0,206.0,186.0,210.0,188.0" stroke="black" stroke-width="1" fill="none"/>
<polyline points="212.0,187.0,214.0,179.0,210.0,171.0" stroke="black" stroke-width="1" fill="none"/>
<polyline points="249.0,124.0,250.0,132.0,251.0,140.0,251.0,148.0,252.0,156.0,252.0,164.0,252.0,172.0,251.0,180.0,241.0,188.0,227.0,196.0,219.0,206.0,223.0,205.0,231.0,203.0,239.0,201.0,247.0,195.0,260.0,197.0,268.0,197.0" stroke="black" stroke-width="1" fill="none"/>
<polyline points="226.0,140.0,231.0,132.0,237.0,124.0,245.0,116.0" stroke="black" stroke-width="1" fill="none"/>
<polyline points="161.0,141.0,156.0,133.0,150.0,125.0,144.0,117.0" stroke="black" stroke-width="1" fill="none"/>
<polyline points="141.0,124.0,140.0,132.0,138.0,140.0,137.0,148.0,136.0,156.0,135.0,164.0,135.0,172.0,134.0,180.0,133.0,188.0,133.0,196.0,137.0,206.0,139.0,214.0,141.0,222.0,145.0,230.0,150.0,238.0,155.0,246.0,160.0,254.0,162.0,262.0,162.0,270.0,162.0,278.0,160.0,286.0,158.0,294.0,156.0,302.0,154.0,310.0,152.0,318.0,151.0,326.0,150.0,334.0,150.0,342.0,152.0,350.0,154.0,358.0,158.0,366.0,162.0,374.0,166.0,382.0,170.0,390.0,173.0,398.0,176.0,406.0,178.0,414.0,180.0,422.0,182.0,430.0,183.0,438.0,183.0,446.0,181.0,454.0,175.0,462.0,166.0,470.0,165.0,478.0,165.0,474.0,173.0,472.0" stroke="black" stroke-width="1" fill="none"/>
<polyline points="398.0,382.0,390.0,395.0,382.0,405.0,374.0,413.0,370.0,412.0,371.0,404.0,372.0,396.0,372.0,388.0,373.0,380.0,372.0,372.0,370.0,364.0,367.0,356.0,363.0,348.0,357.0,340.0,350.0,332.0,342.0,324.0,332.0,316.0,320.0,308.0,308.0,300.0,294.0,292.0,280.0,284.0,266.0,276.0,253.0,268.0,243.0,260.0,239.0,252.0,237.0,244.0,238.0,236.0,240.0,228.0,243.0,220.0,247.0,212.0,250.0,204.0,254.0,194.0,256.0,186.0,262.0,178.0,257.0,172.0,258.0,164.0,258.0,156.0,257.0,148.0,257.0,140.0,256.0,132.0,255.0,124.0,255.0,123.0,247.0,116.0,239.0,121.0,231.0,132.0,223.0,143.0,215.0,146.0,207.0,145.0,199.0,143.0,191.0,143.0,183.0,143.0,175.0,145.0,167.0,145.0,159.0,137.0,151.0,125.0,143.0,116.0,135.0,124.0" stroke="black" stroke-width="1" fill="none"/>
<polyline points="425.0,149.0,406.0,157.0,394.0,165.0,385.0,173.0,379.0,181.0,374.0,189.0,369.0,197.0,367.0,205.0,364.0,213.0,363.0,221.0,362.0,229.0,363.0,237.0,364.0,245.0,366.0,253.0,369.0,261.0,373.0,269.0,377.0,277.0,381.0,285.0,385.0,293.0,389.0,301.0,392.0,309.0,395.0,317.0,398.0,325.0,400.0,333.0,402.0,341.0,403.0,349.0,403.0,357.0,403.0,365.0,402.0,373.0,399.0,381.0,394.0,389.0,389.0,397.0,382.0,405.0,374.0,413.0" stroke="black" stroke-width="1" fill="none"/>
<polyline points="417.0,402.0,409.0,414.0,401.0,423.0,393.0,431.0,385.0,438.0,377.0,444.0,369.0,449.0,361.0,454.0,374.0,446.0,385.0,438.0,394.0,430.0,402.0,422.0,409.0,414.0,415.0,406.0,419.0,398.0,422.0,390.0,424.0,382.0,425.0,374.0,426.0,366.0,426.0,358.0,426.0,350.0,425.0,342.0,424.0,334.0,423.0,326.0,420.0,318.0,418.0,310.0,414.0,302.0,410.0,294.0,406.0,286.0,402.0,278.0,398.0,270.0,394.0,262.0,391.0,254.0,389.0,246.0,387.0,238.0,386.0,230.0,387.0,222.0,389.0,214.0,392.0,206.0,395.0,198.0,400.0,190.0,406.0,182.0,416.0,174.0,435.0,166.0" stroke="black" stroke-width="1" fill="none"/>
<polyline points="429.0,154.0,409.0,162.0,397.0,170.0,389.0,178.0,383.0,186.0,378.0,194.0,374.0,202.0,371.0,210.0,369.0,218.0,368.0,226.0,368.0,234.0,369.0,242.0,371.0,250.0,374.0,258.0,378.0,266.0,382.0,274.0,386.0,282.0,390.0,290.0,394.0,298.0,398.0,306.0,401.0,314.0,403.0,322.0,405.0,330.0,407.0,338.0,408.0,346.0,409.0,354.0,410.0,362.0,409.0,370.0,407.0,378.0,403.0,386.0,398.0,394.0,392.0,402.0,385.0,410.0,377.0,418.0,368.0,426.0,366.0,434.0,364.0,442.0,361.0,450.0,363.0,443.0" stroke="black" stroke-width="1" fill="none"/>
<polyline points="112.0,442.0,128.0,442.0" stroke="black" stroke-width="1" fill="none"/>
<polyline points="120.0,434.0,136.0,434.0" stroke="black" stroke-width="1" fill="none"/>
<polyline points="136.0,426.0,144.0,426.0" stroke="black" stroke-width="1" fill="none"/>
<polyline points="144.0,418.0,152.0,418.0" stroke="black" stroke-width="1" fill="none"/>
<polyline points="152.0,410.0,144.0,410.0" stroke="black" stroke-width="1" fill="none"/>
<polyline points="144.0,402.0,152.0,402.0" stroke="black" stroke-width="1" fill="none"/>
<polyline points="152.0,394.0,144.0,394.0" stroke="black" stroke-width="1" fill="none"/>
<polyline points="144.0,386.0,152.0,386.0" stroke="black" stroke-width="1" fill="none"/>
<polyline points="152.0,378.0,168.0,378.0" stroke="black" stroke-width="1" fill="none"/>
<polyline points="168.0,386.0,160.0,386.0" stroke="black" stroke-width="1" fill="none"/>
<polyline points="168.0,394.0,176.0,394.0" stroke="black" stroke-width="1" fill="none"/>
<polyline points="176.0,402.0,168.0,402.0" stroke="black" stroke-width="1" fill="none"/>
<polyline points="168.0,410.0,176.0,410.0" stroke="black" stroke-width="1" fill="none"/>
<polyline points="168.0,418.0,184.0,418.0" stroke="black" stroke-width="1" fill="none"/>
<polyline points="176.0,424.0,168.0,432.0" stroke="black" stroke-width="1" fill="none"/>
<polyline points="168.0,434.0,184.0,434.0" stroke="black" stroke-width="1" fill="none"/>
<polyline points="184.0,450.0,176.0,450.0" stroke="black" stroke-width="1" fill="none"/>
<polyline points="168.0,442.0,184.0,442.0" stroke="black" stroke-width="1" fill="none"/>
<polyline points="184.0,426.0,168.0,426.0" stroke="black" stroke-width="1" fill="none"/>
<polyline points="168.0,450.0,160.0,450.0" stroke="black" stroke-width="1" fill="none"/>
<polyline points="152.0,458.0,176.0,458.0" stroke="black" stroke-width="1" fill="none"/>
<polyline points="168.0,466.0,160.0,466.0" stroke="black" stroke-width="1" fill="none"/>
<polyline points="160.0,474.0,168.0,474.0" stroke="black" stroke-width="1" fill="none"/>
<polyline points="168.0,480.0,160.0,488.0" stroke="black" stroke-width="1" fill="none"/>
<polyline points="160.0,490.0,200.0,490.0" stroke="black" stroke-width="1" fill="none"/>
<polyline points="200.0,482.0,208.0,482.0" stroke="black" stroke-width="1" fill="none"/>
<polyline points="208.0,474.0,232.0,474.0" stroke="black" stroke-width="1" fill="none"/>
<polyline points="232.0,464.0,240.0,456.0" stroke="black" stroke-width="1" fill="none"/>
<polyline points="240.0,458.0,232.0,458.0" stroke="black" stroke-width="1" fill="none"/>
<polyline points="224.0,456.0,232.0,448.0" stroke="black" stroke-width="1" fill="none"/>
<polyline points="232.0,442.0,224.0,442.0" stroke="black" stroke-width="1" fill="none"/>
<polyline points="232.0,450.0,208.0,450.0" stroke="black" stroke-width="1" fill="none"/>
<polyline points="208.0,442.0,216.0,442.0" stroke="black" stroke-width="1" fill="none"/>
<polyline points="208.0,434.0,232.0,434.0" stroke="black" stroke-width="1" fill="none"/>
<polyline points="224.0,426.0,208.0,426.0" stroke="black" stroke-width="1" fill="none"/>
<polyline points="208.0,418.0,224.0,418.0" stroke="black" stroke-width="1" fill="none"/>
<polyline points="224.0,410.0,208.0,410.0" stroke="black" stroke-width="1" fill="none"/>
<polyline points="208.0,402.0,224.0,402.0" stroke="black" stroke-width="1" fill="none"/>
<polyline points="224.0,394.0,232.0,394.0" stroke="black" stroke-width="1" fill="none"/>
<polyline points="232.0,386.0,224.0,386.0" stroke="black" stroke-width="1" fill="none"/>
<polyline points="232.0,378.0,240.0,378.0" stroke="black" stroke-width="1" fill="none"/>
<polyline points="240.0,370.0,256.0,370.0" stroke="black" stroke-width="1" fill="none"/>
<polyline points="248.0,362.0,296.0,362.0" stroke="black" stroke-width="1" fill="none"/>
<polyline points="296.0,370.0,304.0,370.0" stroke="black" stroke-width="1" fill="none"/>
<polyline points="304.0,378.0,312.0,378.0" stroke="black" stroke-width="1" fill="none"/>
<polyline points="312.0,386.0,320.0,386.0" stroke="black" stroke-width="1" fill="none"/>
<polyline points="360.0,362.0,368.0,362.0" stroke="black" stroke-width="1" fill="none"/>
<polyline points="368.0,370.0,376.0,370.0" stroke="black" stroke-width="1" fill="none"/>
<polyline points="376.0,378.0,368.0,378.0" stroke="black" stroke-width="1" fill="none"/>
<polyline points="368.0,386.0,376.0,386.0" stroke="black" stroke-width="1" fill="none"/>
<polyline points="376.0,394.0,368.0,394.0" stroke="black" stroke-width="1" fill="none"/>
<polyline points="368.0,402.0,376.0,402.0" stroke="black" stroke-width="1" fill="none"/>
<polyline points="384.0,402.0,392.0,402.0" stroke="black" stroke-width="1" fill="none"/>
<polyline points="392.0,394.0,400.0,394.0" stroke="black" stroke-width="1" fill="none"/>
<polyline points="400.0,386.0,392.0,386.0" stroke="black" stroke-width="1" fill="none"/>
<polyline points="400.0,378.0,408.0,378.0" stroke="black" stroke-width="1" fill="none"/>
<polyline points="408.0,370.0,400.0,370.0" stroke="black" stroke-width="1" fill="none"/>
<polyline points="400.0,362.0,408.0,362.0" stroke="black" stroke-width="1" fill="none"/>
<polyline points="408.0,354.0,400.0,354.0" stroke="black" stroke-width="1" fill="none"/>
<polyline points="400.0,346.0,408.0,346.0" stroke="black" stroke-width="1" fill="none"/>
<polyline points="408.0,338.0,400.0,338.0" stroke="black" stroke-width="1" fill="none"/>
<polyline points="400.0,330.0,408.0,330.0" stroke="black" stroke-width="1" fill="none"/>
<polyline points="408.0,322.0,400.0,322.0" stroke="black" stroke-width="1" fill="none"/>
<polyline points="400.0,314.0,392.0,314.0" stroke="black" stroke-width="1" fill="none"/>
<polyline points="392.0,306.0,400.0,306.0" stroke="black" stroke-width="1" fill="none"/>
<polyline points="400.0,298.0,392.0,298.0" stroke="black" stroke-width="1" fill="none"/>
<polyline points="392.0,290.0,384.0,290.0" stroke="black" stroke-width="1" fill="none"/>
<polyline points="384.0,282.0,392.0,282.0" stroke="black" stroke-width="1" fill="none"/>
<polyline points="400.0,274.0,408.0,274.0" stroke="black" stroke-width="1" fill="none"/>
<polyline points="408.0,282.0,416.0,282.0" stroke="black" stroke-width="1" fill="none"/>
<polyline points="416.0,290.0,408.0,290.0" stroke="black" stroke-width="1" fill="none"/>
<polyline points="416.0,298.0,424.0,298.0" stroke="black" stroke-width="1" fill="none"/>
<polyline points="424.0,306.0,416.0,306.0" stroke="black" stroke-width="1" fill="none"/>
<polyline points="416.0,314.0,424.0,314.0" stroke="black" stroke-width="1" fill="none"/>
<polyline points="424.0,322.0,432.0,322.0" stroke="black" stroke-width="1" fill="none"/>
<polyline points="432.0,330.0,424.0,330.0" stroke="black" stroke-width="1" fill="none"/>
<polyline points="424.0,338.0,432.0,338.0" stroke="black" stroke-width="1" fill="none"/>
<polyline points="432.0,346.0,424.0,346.0" stroke="black" stroke-width="1" fill="none"/>
<polyline points="424.0,354.0,432.0,354.0" stroke="black" stroke-width="1" fill="none"/>
<polyline points="432.0,362.0,424.0,362.0" stroke="black" stroke-width="1" fill="none"/>
<polyline points="424.0,370.0,432.0,370.0" stroke="black" stroke-width="1" fill="none"/>
<polyline points="432.0,378.0,424.0,378.0" stroke="black" stroke-width="1" fill="none"/>
<polyline points="424.0,386.0,432.0,386.0" stroke="black" stroke-width="1" fill="none"/>
<polyline points="424.0,394.0,416.0,394.0" stroke="black" stroke-width="1" fill="none"/>
<polyline points="416.0,402.0,424.0,402.0" stroke="black" stroke-width="1" fill="none"/>
<polyline points="416.0,410.0,408.0,410.0" stroke="black" stroke-width="1" fill="none"/>
<polyline points="400.0,418.0,416.0,418.0" stroke="black" stroke-width="1" fill="none"/>
<polyline points="408.0,426.0,392.0,426.0" stroke="black" stroke-width="1" fill="none"/>
<polyline points="384.0,434.0,400.0,434.0" stroke="black" stroke-width="1" fill="none"/>
<polyline points="392.0,442.0,376.0,442.0" stroke="black" stroke-width="1" fill="none"/>
<polyline points="360.0,448.0,352.0,456.0" stroke="black" stroke-width="1" fill="none"/>
<polyline points="352.0,458.0,360.0,458.0" stroke="black" stroke-width="1" fill="none"/>
<polyline points="360.0,456.0,352.0,464.0" stroke="black" stroke-width="1" fill="none"/>
<polyline points="352.0,466.0,344.0,466.0" stroke="black" stroke-width="1" fill="none"/>
<polyline points="344.0,474.0,328.0,474.0" stroke="black" stroke-width="1" fill="none"/>
<polyline points="328.0,482.0,312.0,482.0" stroke="black" stroke-width="1" fill="none"/>
<polyline points="280.0,482.0,272.0,482.0" stroke="black" stroke-width="1" fill="none"/>
<polyline points="272.0,474.0,304.0,474.0" stroke="black" stroke-width="1" fill="none"/>
<polyline points="352.0,450.0,376.0,450.0" stroke="black" stroke-width="1" fill="none"/>
<polyline points="368.0,434.0,360.0,434.0" stroke="black" stroke-width="1" fill="none"/>
<polyline points="360.0,426.0,368.0,426.0" stroke="black" stroke-width="1" fill="none"/>
<polyline points="368.0,424.0,376.0,416.0" stroke="black" stroke-width="1" fill="none"/>
<polyline points="368.0,410.0,384.0,410.0" stroke="black" stroke-width="1" fill="none"/>
<polyline points="376.0,418.0,360.0,418.0" stroke="black" stroke-width="1" fill="none"/>
<polyline points="360.0,354.0,368.0,354.0" stroke="black" stroke-width="1" fill="none"/>
<polyline points="368.0,346.0,352.0,346.0" stroke="black" stroke-width="1" fill="none"/>
<polyline points="352.0,338.0,360.0,338.0" stroke="black" stroke-width="1" fill="none"/>
<polyline points="352.0,330.0,344.0,330.0" stroke="black" stroke-width="1" fill="none"/>
<polyline points="344.0,322.0,336.0,322.0" stroke="black" stroke-width="1" fill="none"/>
<polyline points="336.0,314.0,320.0,314.0" stroke="black" stroke-width="1" fill="none"/>
<polyline points="320.0,306.0,312.0,306.0" stroke="black" stroke-width="1" fill="none"/>
<polyline points="312.0,298.0,296.0,298.0" stroke="black" stroke-width="1" fill="none"/>
<polyline points="296.0,290.0,280.0,290.0" stroke="black" stroke-width="1" fill="none"/>
<polyline points="280.0,282.0,264.0,282.0" stroke="black" stroke-width="1" fill="none"/>
<polyline points="256.0,274.0,272.0,274.0" stroke="black" stroke-width="1" fill="none"/>
<polyline points="256.0,266.0,240.0,266.0" stroke="black" stroke-width="1" fill="none"/>
<polyline points="232.0,258.0,248.0,258.0" stroke="black" stroke-width="1" fill="none"/>
<polyline points="240.0,250.0,232.0,250.0" stroke="black" stroke-width="1" fill="none"/>
<polyline points="232.0,242.0,240.0,242.0" stroke="black" stroke-width="1" fill="none"/>
<polyline points="240.0,234.0,232.0,234.0" stroke="black" stroke-width="1" fill="none"/>
<polyline points="232.0,226.0,240.0,226.0" stroke="black" stroke-width="1" fill="none"/>
<polyline points="240.0,218.0,248.0,218.0" stroke="black" stroke-width="1" fill="none"/>
<polyline points="248.0,210.0,240.0,210.0" stroke="black" stroke-width="1" fill="none"/>
<polyline points="240.0,202.0,256.0,202.0" stroke="black" stroke-width="1" fill="none"/>
<polyline points="248.0,200.0,256.0,192.0" stroke="black" stroke-width="1" fill="none"/>
<polyline points="256.0,184.0,248.0,192.0" stroke="black" stroke-width="1" fill="none"/>
<polyline points="248.0,194.0,256.0,194.0" stroke="black" stroke-width="1" fill="none"/>
<polyline points="256.0,186.0,248.0,186.0" stroke="black" stroke-width="1" fill="none"/>
<polyline points="248.0,178.0,264.0,178.0" stroke="black" stroke-width="1" fill="none"/>
<polyline points="256.0,170.0,248.0,170.0" stroke="black" stroke-width="1" fill="none"/>
<polyline points="248.0,162.0,256.0,162.0" stroke="black" stroke-width="1" fill="none"/>
<polyline points="256.0,154.0,248.0,154.0" stroke="black" stroke-width="1" fill="none"/>
<polyline points="248.0,146.0,256.0,146.0" stroke="black" stroke-width="1" fill="none"/>
<polyline points="256.0,138.0,248.0,138.0" stroke="black" stroke-width="1" fill="none"/>
<polyline points="248.0,130.0,256.0,130.0" stroke="black" stroke-width="1" fill="none"/>
<polyline points="256.0,122.0,240.0,122.0" stroke="black" stroke-width="1" fill="none"/>
<polyline points="240.0,130.0,232.0,130.0" stroke="black" stroke-width="1" fill="none"/>
<polyline points="232.0,138.0,224.0,138.0" stroke="black" stroke-width="1" fill="none"/>
<polyline points="216.0,176.0,208.0,184.0" stroke="black" stroke-width="1" fill="none"/>
<polyline points="208.0,178.0,216.0,178.0" stroke="black" stroke-width="1" fill="none"/>
<polyline points="224.0,202.0,232.0,202.0" stroke="black" stroke-width="1" fill="none"/>
<polyline points="192.0,200.0,184.0,208.0" stroke="black" stroke-width="1" fill="none"/>
<polyline points="184.0,210.0,200.0,210.0" stroke="black" stroke-width="1" fill="none"/>
<polyline points="192.0,202.0,184.0,202.0" stroke="black" stroke-width="1" fill="none"/>
<polyline points="184.0,200.0,192.0,192.0" stroke="black" stroke-width="1" fill="none"/>
<polyline points="200.0,194.0,176.0,194.0" stroke="black" stroke-width="1" fill="none"/>
<polyline points="176.0,178.0,160.0,178.0" stroke="black" stroke-width="1" fill="none"/>
<polyline points="136.0,194.0,128.0,194.0" stroke="black" stroke-width="1" fill="none"/>
<polyline points="128.0,186.0,136.0,186.0" stroke="black" stroke-width="1" fill="none"/>
<polyline points="136.0,178.0,128.0,178.0" stroke="black" stroke-width="1" fill="none"/>
<polyline points="128.0,170.0,136.0,170.0" stroke="black" stroke-width="1" fill="none"/>
<polyline points="136.0,162.0,128.0,162.0" stroke="black" stroke-width="1" fill="none"/>
<polyline points="128.0,154.0,136.0,154.0" stroke="black" stroke-width="1" fill="none"/>
<polyline points="136.0,146.0,128.0,146.0" stroke="black" stroke-width="1" fill="none"/>
<polyline points="128.0,138.0,136.0,138.0" stroke="black" stroke-width="1" fill="none"/>
<polyline points="136.0,130.0,160.0,130.0" stroke="black" stroke-width="1" fill="none"/>
<polyline points="160.0,138.0,152.0,138.0" stroke="black" stroke-width="1" fill="none"/>
<polyline points="160.0,146.0,232.0,146.0" stroke="black" stroke-width="1" fill="none"/>
<polyline points="144.0,120.0,136.0,128.0" stroke="black" stroke-width="1" fill="none"/>
<polyline points="136.0,122.0,152.0,122.0" stroke="black" stroke-width="1" fill="none"/>
<polyline points="136.0,200.0,128.0,208.0" stroke="black" stroke-width="1" fill="none"/>
<polyline points="128.0,210.0,152.0,210.0" stroke="black" stroke-width="1" fill="none"/>
<polyline points="144.0,226.0,136.0,226.0" stroke="black" stroke-width="1" fill="none"/>
<polyline points="128.0,218.0,144.0,218.0" stroke="black" stroke-width="1" fill="none"/>
<polyline points="144.0,234.0,152.0,234.0" stroke="black" stroke-width="1" fill="none"/>
<polyline points="152.0,242.0,144.0,242.0" stroke="black" stroke-width="1" fill="none"/>
<polyline points="152.0,250.0,160.0,250.0" stroke="black" stroke-width="1" fill="none"/>
<polyline points="160.0,258.0,152.0,258.0" stroke="black" stroke-width="1" fill="none"/>
<polyline points="152.0,274.0,160.0,274.0" stroke="black" stroke-width="1" fill="none"/>
<polyline points="160.0,282.0,152.0,282.0" stroke="black" stroke-width="1" fill="none"/>
<polyline points="152.0,290.0,160.0,290.0" stroke="black" stroke-width="1" fill="none"/>
<polyline points="160.0,298.0,152.0,298.0" stroke="black" stroke-width="1" fill="none"/>
<polyline points="152.0,314.0,144.0,314.0" stroke="black" stroke-width="1" fill="none"/>
<polyline points="144.0,322.0,152.0,322.0" stroke="black" stroke-width="1" fill="none"/>
<polyline points="152.0,330.0,144.0,330.0" stroke="black" stroke-width="1" fill="none"/>
<polyline points="144.0,338.0,152.0,338.0" stroke="black" stroke-width="1" fill="none"/>
<polyline points="152.0,346.0,144.0,346.0" stroke="black" stroke-width="1" fill="none"/>
<polyline points="144.0,354.0,152.0,354.0" stroke="black" stroke-width="1" fill="none"/>
<polyline points="152.0,362.0,160.0,362.0" stroke="black" stroke-width="1" fill="none"/>
<polyline points="160.0,368.0,152.0,376.0" stroke="black" stroke-width="1" fill="none"/>
<polyline points="152.0,374.0,160.0,374.0" stroke="black" stroke-width="1" fill="none"/>
<polyline points="160.0,370.0,152.0,370.0" stroke="black" stroke-width="1" fill="none"/>
<polyline points="208.0,394.0,216.0,394.0" stroke="black" stroke-width="1" fill="none"/>
<polyline points="216.0,458.0,208.0,458.0" stroke="black" stroke-width="1" fill="none"/>
<polyline points="208.0,466.0,216.0,466.0" stroke="black" stroke-width="1" fill="none"/>
<polyline points="224.0,466.0,232.0,466.0" stroke="black" stroke-width="1" fill="none"/>
<polyline points="232.0,482.0,216.0,482.0" stroke="black" stroke-width="1" fill="none"/>
<polyline points="224.0,490.0,272.0,490.0" stroke="black" stroke-width="1" fill="none"/>
<polyline points="168.0,482.0,160.0,482.0" stroke="black" stroke-width="1" fill="none"/>
<polyline points="152.0,466.0,120.0,466.0" stroke="black" stroke-width="1" fill="none"/>
<polyline points="112.0,458.0,128.0,458.0" stroke="black" stroke-width="1" fill="none"/>
<polyline points="120.0,450.0,112.0,450.0" stroke="black" stroke-width="1" fill="none"/>
<polyline points="128.0,202.0,136.0,202.0" stroke="black" stroke-width="1" fill="none"/>
<polyline points="360.0,218.0,368.0,218.0" stroke="black" stroke-width="1" fill="none"/>
<polyline points="368.0,226.0,360.0,226.0" stroke="black" stroke-width="1" fill="none"/>
<polyline points="360.0,234.0,368.0,234.0" stroke="black" stroke-width="1" fill="none"/>
<polyline points="368.0,242.0,360.0,242.0" stroke="black" stroke-width="1" fill="none"/>
<polyline points="368.0,250.0,376.0,250.0" stroke="black" stroke-width="1" fill="none"/>
<polyline points="376.0,258.0,368.0,258.0" stroke="black" stroke-width="1" fill="none"/>
<polyline points="376.0,266.0,384.0,266.0" stroke="black" stroke-width="1" fill="none"/>
<polyline points="384.0,274.0,376.0,274.0" stroke="black" stroke-width="1" fill="none"/>
<polyline points="392.0,258.0,400.0,258.0" stroke="black" stroke-width="1" fill="none"/>
<polyline points="400.0,266.0,408.0,266.0" stroke="black" stroke-width="1" fill="none"/>
<polyline points="400.0,250.0,392.0,250.0" stroke="black" stroke-width="1" fill="none"/>
<polyline points="392.0,234.0,384.0,234.0" stroke="black" stroke-width="1" fill="none"/>
<polyline points="384.0,226.0,392.0,226.0" stroke="black" stroke-width="1" fill="none"/>
<polyline points="392.0,218.0,384.0,218.0" stroke="black" stroke-width="1" fill="none"/>
<polyline points="392.0,210.0,400.0,210.0" stroke="black" stroke-width="1" fill="none"/>
<polyline points="400.0,202.0,392.0,202.0" stroke="black" stroke-width="1" fill="none"/>
<polyline points="400.0,194.0,408.0,194.0" stroke="black" stroke-width="1" fill="none"/>
<polyline points="408.0,186.0,400.0,186.0" stroke="black" stroke-width="1" fill="none"/>
<polyline points="408.0,178.0,424.0,178.0" stroke="black" stroke-width="1" fill="none"/>
<polyline points="416.0,170.0,440.0,170.0" stroke="black" stroke-width="1" fill="none"/>
<polyline points="440.0,162.0,456.0,162.0" stroke="black" stroke-width="1" fill="none"/>
<polyline points="456.0,154.0,464.0,154.0" stroke="black" stroke-width="1" fill="none"/>
<polyline points="456.0,146.0,432.0,146.0" stroke="black" stroke-width="1" fill="none"/>
<polyline points="424.0,154.0,408.0,154.0" stroke="black" stroke-width="1" fill="none"/>
<polyline points="408.0,162.0,392.0,162.0" stroke="black" stroke-width="1" fill="none"/>
<polyline points="384.0,170.0,400.0,170.0" stroke="black" stroke-width="1" fill="none"/>
<polyline points="384.0,186.0,376.0,186.0" stroke="black" stroke-width="1" fill="none"/>
<polyline points="376.0,178.0,392.0,178.0" stroke="black" stroke-width="1" fill="none"/>
<polyline points="376.0,194.0,368.0,194.0" stroke="black" stroke-width="1" fill="none"/>
<polyline points="368.0,202.0,376.0,202.0" stroke="black" stroke-width="1" fill="none"/>
</svg>