<svg xmlns="http://www.w3.org/2000/svg" height="212px" width="426px" version="1.1"><polyline points="424.0,165.0,426.0,173.0,425.0,181.0,424.0,189.0,424.0,197.0" stroke="black" stroke-width="1" fill="none"/>
<polyline points="425.0,204.0,426.0,209.0,419.0,208.0,422.0,196.0,421.0,188.0,420.0,180.0,419.0,172.0,423.0,164.0,419.0,168.0" stroke="black" stroke-width="1" fill="none"/>
<polyline points="396.0,168.0,399.0,170.0,399.0,178.0,382.0,184.0,378.0,192.0,378.0,200.0,382.0,208.0" stroke="black" stroke-width="1" fill="none"/>
<polyline points="379.0,202.0,387.0,211.0,395.0,210.0,403.0,210.0" stroke="black" stroke-width="1" fill="none"/>
<polyline points="401.0,211.0,405.0,202.0,405.0,194.0,405.0,186.0,405.0,178.0,405.0,170.0,403.0,164.0,395.0,166.0" stroke="black" stroke-width="1" fill="none"/>
<polyline points="384.0,189.0,392.0,181.0,394.0,182.0,399.0,190.0,399.0,198.0,396.0,206.0" stroke="black" stroke-width="1" fill="none"/>
<polyline points="393.0,207.0,385.0,200.0" stroke="black" stroke-width="1" fill="none"/>
<polyline points="385.0,200.0,384.0,192.0,386.0,184.0,394.0,179.0,386.0,180.0,378.0,191.0" stroke="black" stroke-width="1" fill="none"/>
<polyline points="372.0,208.0,364.0,211.0,360.0,209.0,364.0,203.0,364.0,195.0,364.0,187.0,364.0,179.0,364.0,171.0,359.0,168.0" stroke="black" stroke-width="1" fill="none"/>
<polyline points="358.0,167.0,366.0,165.0,370.0,168.0,370.0,176.0,370.0,184.0,370.0,192.0,370.0,200.0,370.0,208.0" stroke="black" stroke-width="1" fill="none"/>
<polyline points="355.0,186.0,347.0,186.0" stroke="black" stroke-width="1" fill="none"/>
<polyline points="350.0,180.0,337.0,184.0,326.0,182.0,318.0,179.0,310.0,181.0,302.0,191.0" stroke="black" stroke-width="1" fill="none"/>
<polyline points="309.0,187.0,317.0,182.0,325.0,189.0,325.0,190.0,326.0,198.0,324.0,206.0" stroke="black" stroke-width="1" fill="none"/>
<polyline points="318.0,209.0,310.0,201.0" stroke="black" stroke-width="1" fill="none"/>
<polyline points="303.0,200.0,311.0,210.0,319.0,212.0,327.0,208.0" stroke="black" stroke-width="1" fill="none"/>
<polyline points="348.0,209.0,345.0,201.0,345.0,193.0,346.0,185.0,343.0,180.0,335.0,182.0" stroke="black" stroke-width="1" fill="none"/>
<polyline points="335.0,182.0,340.0,190.0,340.0,198.0,340.0,206.0,337.0,209.0,341.0,211.0,349.0,211.0" stroke="black" stroke-width="1" fill="none"/>
<polyline points="312.0,206.0,309.0,198.0,309.0,190.0,313.0,182.0" stroke="black" stroke-width="1" fill="none"/>
<polyline points="314.0,179.0,304.0,187.0,302.0,195.0,303.0,203.0,311.0,211.0" stroke="black" stroke-width="1" fill="none"/>
<polyline points="287.0,200.0,290.0,192.0,293.0,184.0,279.0,182.0" stroke="black" stroke-width="1" fill="none"/>
<polyline points="269.0,181.0,271.0,179.0,279.0,179.0,279.0,184.0,282.0,192.0,285.0,200.0,291.0,179.0,298.0,181.0,294.0,189.0,291.0,197.0,287.0,205.0,286.0,208.0,294.0,188.0" stroke="black" stroke-width="1" fill="none"/>
<polyline points="282.0,206.0,279.0,198.0,271.0,196.0,263.0,187.0" stroke="black" stroke-width="1" fill="none"/>
<polyline points="262.0,182.0,273.0,185.0,273.0,193.0,275.0,195.0,271.0,203.0" stroke="black" stroke-width="1" fill="none"/>
<polyline points="277.0,194.0,269.0,207.0,261.0,197.0,253.0,181.0" stroke="black" stroke-width="1" fill="none"/>
<polyline points="253.0,179.0,257.0,187.0,260.0,195.0,263.0,203.0,266.0,211.0" stroke="black" stroke-width="1" fill="none"/>
<polyline points="268.0,200.0,265.0,192.0,262.0,184.0,261.0,180.0,253.0,179.0" stroke="black" stroke-width="1" fill="none"/>
<polyline points="224.0,188.0,216.0,182.0,208.0,189.0" stroke="black" stroke-width="1" fill="none"/>
<polyline points="202.0,190.0,210.0,180.0,218.0,179.0,226.0,182.0" stroke="black" stroke-width="1" fill="none"/>
<polyline points="221.0,180.0,230.0,188.0,232.0,196.0,229.0,204.0" stroke="black" stroke-width="1" fill="none"/>
<polyline points="217.0,209.0,209.0,199.0" stroke="black" stroke-width="1" fill="none"/>
<polyline points="203.0,202.0,211.0,210.0,219.0,212.0,227.0,207.0" stroke="black" stroke-width="1" fill="none"/>
<polyline points="222.0,207.0,225.0,199.0,225.0,191.0,219.0,183.0" stroke="black" stroke-width="1" fill="none"/>
<polyline points="213.0,182.0,208.0,190.0,208.0,198.0,211.0,206.0" stroke="black" stroke-width="1" fill="none"/>
<polyline points="187.0,204.0,187.0,196.0,187.0,188.0,187.0,180.0,187.0,172.0,183.0,168.0" stroke="black" stroke-width="1" fill="none"/>
<polyline points="182.0,166.0,190.0,165.0,193.0,168.0,193.0,176.0,193.0,184.0,193.0,192.0,193.0,200.0,194.0,208.0" stroke="black" stroke-width="1" fill="none"/>
<polyline points="175.0,211.0,167.0,211.0,163.0,209.0,168.0,204.0,169.0,196.0,169.0,188.0,169.0,180.0,168.0,172.0,164.0,168.0" stroke="black" stroke-width="1" fill="none"/>
<polyline points="163.0,166.0,171.0,165.0,174.0,168.0,174.0,176.0,174.0,184.0,174.0,192.0,174.0,200.0,175.0,208.0,180.0,209.0,185.0,211.0,193.0,211.0,197.0,209.0" stroke="black" stroke-width="1" fill="none"/>
<polyline points="212.0,211.0,203.0,203.0,202.0,195.0,203.0,187.0,213.0,179.0" stroke="black" stroke-width="1" fill="none"/>
<polyline points="155.0,204.0,147.0,206.0,139.0,197.0" stroke="black" stroke-width="1" fill="none"/>
<polyline points="140.0,200.0,138.0,192.0" stroke="black" stroke-width="1" fill="none"/>
<polyline points="138.0,192.0,146.0,192.0,154.0,192.0" stroke="black" stroke-width="1" fill="none"/>
<polyline points="147.0,189.0,139.0,189.0" stroke="black" stroke-width="1" fill="none"/>
<polyline points="138.0,188.0,146.0,182.0,154.0,182.0,159.0,190.0" stroke="black" stroke-width="1" fill="none"/>
<polyline points="156.0,207.0,158.0,204.0,150.0,211.0,142.0,211.0,134.0,201.0" stroke="black" stroke-width="1" fill="none"/>
<polyline points="133.0,191.0,141.0,180.0,149.0,179.0,157.0,184.0" stroke="black" stroke-width="1" fill="none"/>
<polyline points="144.0,179.0,135.0,187.0,133.0,195.0,134.0,203.0,142.0,211.0" stroke="black" stroke-width="1" fill="none"/>
<polyline points="129.0,211.0,121.0,211.0,113.0,211.0,111.0,211.0,117.0,203.0,117.0,195.0,117.0,183.0,117.0,175.0,111.0,167.0,112.0,167.0" stroke="black" stroke-width="1" fill="none"/>
<polyline points="111.0,165.0,119.0,165.0,127.0,165.0,124.0,170.0,124.0,178.0,124.0,186.0,124.0,194.0,124.0,202.0,130.0,210.0" stroke="black" stroke-width="1" fill="none"/>
<polyline points="113.0,186.0,105.0,186.0,97.0,185.0" stroke="black" stroke-width="1" fill="none"/>
<polyline points="96.0,191.0,104.0,189.0,112.0,189.0" stroke="black" stroke-width="1" fill="none"/>
<polyline points="100.0,208.0,97.0,211.0,89.0,211.0,86.0,208.0,88.0,207.0,89.0,199.0,89.0,191.0,89.0,183.0,89.0,175.0,83.0,167.0,84.0,167.0" stroke="black" stroke-width="1" fill="none"/>
<polyline points="83.0,165.0,91.0,165.0,99.0,165.0,97.0,170.0,96.0,178.0,97.0,186.0,96.0,196.0,96.0,204.0" stroke="black" stroke-width="1" fill="none"/>
<polyline points="321.0,180.0,331.0,188.0,332.0,196.0,330.0,204.0" stroke="black" stroke-width="1" fill="none"/>
<polyline points="88.0,170.0,96.0,170.0" stroke="black" stroke-width="1" fill="none"/>
<polyline points="96.0,168.0,88.0,176.0" stroke="black" stroke-width="1" fill="none"/>
<polyline points="88.0,178.0,96.0,178.0" stroke="black" stroke-width="1" fill="none"/>
<polyline points="88.0,186.0,104.0,186.0" stroke="black" stroke-width="1" fill="none"/>
<polyline points="112.0,186.0,128.0,186.0" stroke="black" stroke-width="1" fill="none"/>
<polyline points="136.0,186.0,144.0,186.0" stroke="black" stroke-width="1" fill="none"/>
<polyline points="152.0,186.0,160.0,186.0" stroke="black" stroke-width="1" fill="none"/>
<polyline points="168.0,186.0,176.0,186.0" stroke="black" stroke-width="1" fill="none"/>
<polyline points="184.0,186.0,192.0,186.0" stroke="black" stroke-width="1" fill="none"/>
<polyline points="200.0,186.0,208.0,186.0" stroke="black" stroke-width="1" fill="none"/>
<polyline points="208.0,194.0,200.0,194.0" stroke="black" stroke-width="1" fill="none"/>
<polyline points="200.0,202.0,208.0,202.0" stroke="black" stroke-width="1" fill="none"/>
<polyline points="224.0,202.0,232.0,202.0" stroke="black" stroke-width="1" fill="none"/>
<polyline points="232.0,194.0,224.0,194.0" stroke="black" stroke-width="1" fill="none"/>
<polyline points="224.0,186.0,232.0,186.0" stroke="black" stroke-width="1" fill="none"/>
<polyline points="256.0,186.0,264.0,186.0" stroke="black" stroke-width="1" fill="none"/>
<polyline points="264.0,194.0,288.0,194.0" stroke="black" stroke-width="1" fill="none"/>
<polyline points="288.0,202.0,280.0,202.0" stroke="black" stroke-width="1" fill="none"/>
<polyline points="272.0,202.0,264.0,202.0" stroke="black" stroke-width="1" fill="none"/>
<polyline points="272.0,186.0,280.0,186.0" stroke="black" stroke-width="1" fill="none"/>
<polyline points="304.0,186.0,312.0,186.0" stroke="black" stroke-width="1" fill="none"/>
<polyline points="320.0,186.0,328.0,186.0" stroke="black" stroke-width="1" fill="none"/>
<polyline points="328.0,194.0,336.0,194.0" stroke="black" stroke-width="1" fill="none"/>
<polyline points="336.0,186.0,352.0,186.0" stroke="black" stroke-width="1" fill="none"/>
<polyline points="360.0,186.0,368.0,186.0" stroke="black" stroke-width="1" fill="none"/>
<polyline points="368.0,194.0,360.0,194.0" stroke="black" stroke-width="1" fill="none"/>
<polyline points="360.0,202.0,368.0,202.0" stroke="black" stroke-width="1" fill="none"/>
<polyline points="376.0,202.0,392.0,202.0" stroke="black" stroke-width="1" fill="none"/>
<polyline points="400.0,202.0,408.0,202.0" stroke="black" stroke-width="1" fill="none"/>
<polyline points="408.0,194.0,400.0,194.0" stroke="black" stroke-width="1" fill="none"/>
<polyline points="400.0,186.0,408.0,186.0" stroke="black" stroke-width="1" fill="none"/>
<polyline points="408.0,178.0,400.0,178.0" stroke="black" stroke-width="1" fill="none"/>
<polyline points="400.0,170.0,408.0,170.0" stroke="black" stroke-width="1" fill="none"/>
<polyline points="416.0,170.0,424.0,170.0" stroke="black" stroke-width="1" fill="none"/>
<polyline points="384.0,194.0,376.0,194.0" stroke="black" stroke-width="1" fill="none"/>
<polyline points="368.0,178.0,360.0,178.0" stroke="black" stroke-width="1" fill="none"/>
<polyline points="360.0,170.0,368.0,170.0" stroke="black" stroke-width="1" fill="none"/>
<polyline points="344.0,202.0,336.0,202.0" stroke="black" stroke-width="1" fill="none"/>
<polyline points="312.0,202.0,304.0,202.0" stroke="black" stroke-width="1" fill="none"/>
<polyline points="304.0,194.0,312.0,194.0" stroke="black" stroke-width="1" fill="none"/>
<polyline points="192.0,202.0,184.0,202.0" stroke="black" stroke-width="1" fill="none"/>
<polyline points="184.0,194.0,192.0,194.0" stroke="black" stroke-width="1" fill="none"/>
<polyline points="192.0,178.0,184.0,178.0" stroke="black" stroke-width="1" fill="none"/>
<polyline points="184.0,170.0,192.0,170.0" stroke="black" stroke-width="1" fill="none"/>
<polyline points="176.0,178.0,168.0,178.0" stroke="black" stroke-width="1" fill="none"/>
<polyline points="168.0,170.0,176.0,170.0" stroke="black" stroke-width="1" fill="none"/>
<polyline points="176.0,194.0,168.0,194.0" stroke="black" stroke-width="1" fill="none"/>
<polyline points="168.0,202.0,176.0,202.0" stroke="black" stroke-width="1" fill="none"/>
<polyline points="152.0,210.0,144.0,210.0" stroke="black" stroke-width="1" fill="none"/>
<polyline points="144.0,202.0,136.0,202.0" stroke="black" stroke-width="1" fill="none"/>
<polyline points="136.0,194.0,144.0,194.0" stroke="black" stroke-width="1" fill="none"/>
<polyline points="128.0,202.0,120.0,202.0" stroke="black" stroke-width="1" fill="none"/>
<polyline points="120.0,194.0,128.0,194.0" stroke="black" stroke-width="1" fill="none"/>
<polyline points="128.0,178.0,120.0,178.0" stroke="black" stroke-width="1" fill="none"/>
<polyline points="112.0,170.0,128.0,170.0" stroke="black" stroke-width="1" fill="none"/>
<polyline points="96.0,200.0,88.0,208.0" stroke="black" stroke-width="1" fill="none"/>
<polyline points="88.0,202.0,96.0,202.0" stroke="black" stroke-width="1" fill="none"/>
<polyline points="96.0,194.0,88.0,194.0" stroke="black" stroke-width="1" fill="none"/>
</svg>