<svg version="1.0" xmlns="http://www.w3.org/2000/svg"
 width="21" height="21" viewBox="0 0 21.000000 21.000000"
 preserveAspectRatio="xMidYMid meet">

<g transform="translate(0.000000,21.000000) scale(0.100000,-0.100000)"
fill="#000000" stroke="none">
<path d="M4 197 c-2 -7 -4 -54 -2 -103 l3 -89 100 0 100 0 0 100 0 100 -98 3
c-75 2 -99 0 -103 -11z m191 -92 l0 -90 -90 0 -90 0 -3 79 c-2 44 -1 85 2 93
4 11 26 13 93 11 l88 -3 0 -90z"/>
<path d="M114 156 c-10 -26 4 -48 28 -44 17 2 23 10 23 28 0 18 -6 26 -23 28
-13 2 -25 -3 -28 -12z m46 -17 c0 -25 -33 -22 -38 4 -2 12 3 17 17 17 15 0 21
-6 21 -21z"/>
<path d="M53 140 c-1 -9 6 -16 16 -16 9 0 17 7 17 16 0 9 -7 16 -16 16 -9 0
-17 -7 -17 -16z"/>
<path d="M44 86 c-10 -26 4 -48 28 -44 33 4 33 52 0 56 -13 2 -25 -3 -28 -12z
m41 -16 c0 -8 -8 -16 -17 -18 -13 -2 -18 3 -18 18 0 15 5 20 18 18 9 -2 17
-10 17 -18z"/>
<path d="M124 70 c0 -9 7 -16 16 -16 9 0 16 7 16 16 0 9 -7 16 -16 16 -9 0
-16 -7 -16 -16z"/>
</g>
</svg>