<svg xmlns="http://www.w3.org/2000/svg" height="7px" width="255px" version="1.1">
<polyline points="100.500000,0.000000 103.000000,0.000000 " stroke="black" stroke-width="1" fill="none" />
<polyline points="98.000000,2.500000 103.000000,0.000000 " stroke="black" stroke-width="1" fill="none" />
<polyline points="89.500000,0.000000 92.500000,0.500000 96.500000,1.000000 103.500000,0.000000 " stroke="black" stroke-width="1" fill="none" />
<polyline points="80.500000,2.500000 88.000000,1.000000 90.000000,2.000000 93.500000,2.500000 103.500000,0.000000 105.500000,1.000000 " stroke="black" stroke-width="1" fill="none" />
<polyline points="79.000000,1.000000 83.500000,1.000000 87.500000,0.500000 103.500000,0.500000 105.000000,0.500000 106.500000,0.500000 " stroke="black" stroke-width="1" fill="none" />
<polyline points="78.000000,1.000000 84.500000,2.500000 104.500000,0.500000 107.000000,0.000000 " stroke="black" stroke-width="1" fill="none" />
<polyline points="76.500000,1.500000 107.000000,0.000000 " stroke="black" stroke-width="1" fill="none" />
<polyline points="72.500000,3.500000 106.500000,0.500000 " stroke="black" stroke-width="1" fill="none" />
<polyline points="69.500000,2.500000 106.000000,0.500000 " stroke="black" stroke-width="1" fill="none" />
<polyline points="68.000000,1.000000 105.000000,1.000000 " stroke="black" stroke-width="1" fill="none" />
<polyline points="67.000000,1.000000 105.000000,0.000000 " stroke="black" stroke-width="1" fill="none" />
<polyline points="66.500000,0.500000 104.500000,0.500000 " stroke="black" stroke-width="1" fill="none" />
<polyline points="65.500000,1.000000 104.500000,0.000000 " stroke="black" stroke-width="1" fill="none" />
<polyline points="63.000000,2.000000 104.500000,0.000000 " stroke="black" stroke-width="1" fill="none" />
<polyline points="44.500000,1.000000 61.500000,1.000000 104.500000,0.500000 " stroke="black" stroke-width="1" fill="none" />
<polyline points="43.500000,0.500000 46.000000,1.000000 61.000000,0.500000 105.000000,1.000000 " stroke="black" stroke-width="1" fill="none" />
<polyline points="43.500000,0.000000 47.000000,0.500000 60.500000,0.500000 106.000000,0.500000 " stroke="black" stroke-width="1" fill="none" />
<polyline points="43.500000,0.000000 47.500000,0.500000 60.500000,0.000000 106.500000,0.000000 " stroke="black" stroke-width="1" fill="none" />
<polyline points="43.500000,0.000000 48.000000,0.500000 54.000000,2.000000 60.000000,0.500000 106.500000,0.000000 " stroke="black" stroke-width="1" fill="none" />
<polyline points="43.000000,0.000000 48.500000,5.000000 56.500000,3.500000 106.500000,0.000000 " stroke="black" stroke-width="1" fill="none" />
<polyline points="43.000000,0.000000 106.500000,0.000000 " stroke="black" stroke-width="1" fill="none" />
<polyline points="42.500000,0.500000 106.500000,0.000000 " stroke="black" stroke-width="1" fill="none" />
<polyline points="42.500000,0.000000 106.000000,0.500000 " stroke="black" stroke-width="1" fill="none" />
<polyline points="42.500000,0.000000 105.000000,1.000000 " stroke="black" stroke-width="1" fill="none" />
<polyline points="42.500000,0.000000 104.500000,0.500000 " stroke="black" stroke-width="1" fill="none" />
<polyline points="42.500000,0.000000 104.000000,0.500000 " stroke="black" stroke-width="1" fill="none" />
<polyline points="42.000000,0.000000 104.000000,0.000000 " stroke="black" stroke-width="1" fill="none" />
<polyline points="42.000000,0.000000 103.500000,0.500000 " stroke="black" stroke-width="1" fill="none" />
<polyline points="41.500000,0.500000 103.500000,0.000000 " stroke="black" stroke-width="1" fill="none" />
<polyline points="41.000000,0.500000 103.500000,0.000000 " stroke="black" stroke-width="1" fill="none" />
<polyline points="40.000000,1.000000 103.500000,0.000000 " stroke="black" stroke-width="1" fill="none" />
<polyline points="39.500000,0.500000 103.500000,0.500000 " stroke="black" stroke-width="1" fill="none" />
<polyline points="38.000000,1.500000 104.000000,0.500000 " stroke="black" stroke-width="1" fill="none" />
<polyline points="36.500000,1.000000 104.500000,0.500000 " stroke="black" stroke-width="1" fill="none" />
<polyline points="35.000000,1.000000 105.000000,1.000000 " stroke="black" stroke-width="1" fill="none" />
<polyline points="34.500000,0.500000 106.500000,0.500000 " stroke="black" stroke-width="1" fill="none" />
<polyline points="34.000000,0.500000 107.000000,0.500000 " stroke="black" stroke-width="1" fill="none" />
<polyline points="34.000000,0.000000 107.500000,0.500000 " stroke="black" stroke-width="1" fill="none" />
<polyline points="33.500000,0.500000 108.000000,0.500000 " stroke="black" stroke-width="1" fill="none" />
<polyline points="33.000000,0.500000 108.500000,1.000000 " stroke="black" stroke-width="1" fill="none" />
<polyline points="32.500000,0.500000 109.500000,0.500000 113.500000,3.000000 144.000000,4.000000 " stroke="black" stroke-width="1" fill="none" />
<polyline points="32.500000,0.000000 110.000000,1.000000 113.000000,0.500000 116.500000,0.500000 142.500000,1.000000 148.500000,1.500000 " stroke="black" stroke-width="1" fill="none" />
<polyline points="32.000000,0.500000 111.500000,1.000000 117.500000,1.000000 141.500000,1.000000 150.000000,0.500000 " stroke="black" stroke-width="1" fill="none" />
<polyline points="31.500000,0.500000 118.500000,0.500000 141.000000,0.500000 150.500000,0.500000 " stroke="black" stroke-width="1" fill="none" />
<polyline points="31.500000,0.000000 119.000000,1.000000 140.000000,1.000000 151.000000,1.000000 " stroke="black" stroke-width="1" fill="none" />
<polyline points="31.500000,0.000000 120.500000,1.000000 139.500000,0.500000 152.500000,1.000000 " stroke="black" stroke-width="1" fill="none" />
<polyline points="31.000000,0.000000 121.500000,0.500000 139.500000,0.000000 154.000000,0.500000 " stroke="black" stroke-width="1" fill="none" />
<polyline points="31.000000,0.000000 122.000000,0.500000 139.500000,0.000000 154.500000,1.000000 " stroke="black" stroke-width="1" fill="none" />
<polyline points="30.500000,0.500000 122.500000,0.000000 139.500000,0.000000 156.000000,1.000000 " stroke="black" stroke-width="1" fill="none" />
<polyline points="30.500000,0.000000 122.500000,0.000000 139.500000,0.000000 157.000000,0.500000 " stroke="black" stroke-width="1" fill="none" />
<polyline points="30.000000,0.500000 122.500000,0.500000 139.500000,0.000000 157.500000,0.500000 162.000000,0.500000 180.000000,0.500000 " stroke="black" stroke-width="1" fill="none" />
<polyline points="29.500000,0.500000 123.000000,0.500000 139.500000,0.000000 158.000000,0.500000 160.000000,1.500000 163.000000,1.000000 178.000000,1.500000 181.000000,1.500000 " stroke="black" stroke-width="1" fill="none" />
<polyline points="29.500000,0.000000 123.500000,0.500000 140.000000,0.000000 159.000000,0.500000 164.000000,1.500000 177.500000,0.500000 182.500000,1.000000 " stroke="black" stroke-width="1" fill="none" />
<polyline points="29.500000,0.000000 124.000000,0.500000 140.000000,0.000000 166.000000,2.000000 176.500000,1.000000 183.500000,0.500000 " stroke="black" stroke-width="1" fill="none" />
<polyline points="29.000000,0.000000 124.500000,3.500000 140.000000,0.000000 168.500000,0.500000 175.000000,1.000000 184.000000,0.500000 " stroke="black" stroke-width="1" fill="none" />
<polyline points="29.000000,0.000000 128.500000,2.000000 140.500000,0.000000 169.500000,1.000000 174.500000,0.500000 185.000000,6.000000 " stroke="black" stroke-width="1" fill="none" />
<polyline points="29.000000,0.000000 130.500000,1.000000 140.500000,0.000000 170.500000,1.000000 174.000000,0.500000 191.500000,0.500000 " stroke="black" stroke-width="1" fill="none" />
<polyline points="29.000000,0.000000 131.500000,1.000000 140.000000,0.000000 171.500000,2.500000 192.000000,0.000000 " stroke="black" stroke-width="1" fill="none" />
<polyline points="29.500000,0.000000 132.500000,1.000000 139.500000,0.500000 192.000000,0.000000 " stroke="black" stroke-width="1" fill="none" />
<polyline points="29.500000,0.000000 133.500000,0.500000 139.000000,0.500000 192.000000,0.000000 " stroke="black" stroke-width="1" fill="none" />
<polyline points="29.500000,0.500000 134.000000,1.000000 138.500000,0.500000 192.000000,0.000000 " stroke="black" stroke-width="1" fill="none" />
<polyline points="30.000000,0.500000 135.000000,1.000000 138.000000,0.500000 192.500000,0.000000 " stroke="black" stroke-width="1" fill="none" />
<polyline points="30.500000,0.000000 136.500000,1.500000 192.500000,0.000000 " stroke="black" stroke-width="1" fill="none" />
<polyline points="30.500000,0.000000 192.500000,0.000000 " stroke="black" stroke-width="1" fill="none" />
<polyline points="30.000000,0.000000 192.500000,0.000000 " stroke="black" stroke-width="1" fill="none" />
<polyline points="30.000000,0.000000 192.500000,0.000000 " stroke="black" stroke-width="1" fill="none" />
<polyline points="29.500000,0.500000 185.500000,1.000000 192.500000,0.000000 " stroke="black" stroke-width="1" fill="none" />
<polyline points="29.000000,0.500000 185.500000,0.000000 186.500000,0.000000 192.500000,0.000000 " stroke="black" stroke-width="1" fill="none" />
<polyline points="28.500000,0.500000 185.500000,0.000000 186.500000,0.500000 192.500000,0.000000 " stroke="black" stroke-width="1" fill="none" />
<polyline points="28.000000,0.500000 185.500000,0.000000 187.000000,0.000000 192.500000,0.000000 " stroke="black" stroke-width="1" fill="none" />
<polyline points="27.500000,0.500000 185.500000,0.000000 187.000000,0.500000 192.500000,0.000000 " stroke="black" stroke-width="1" fill="none" />
<polyline points="27.000000,0.500000 185.500000,0.000000 187.500000,0.000000 193.000000,0.000000 " stroke="black" stroke-width="1" fill="none" />
<polyline points="26.500000,0.500000 185.500000,0.000000 188.000000,0.000000 193.000000,0.000000 " stroke="black" stroke-width="1" fill="none" />
<polyline points="26.000000,0.500000 186.000000,0.000000 188.000000,0.000000 193.000000,0.000000 " stroke="black" stroke-width="1" fill="none" />
<polyline points="25.500000,0.500000 186.000000,0.000000 188.000000,0.000000 193.000000,0.000000 " stroke="black" stroke-width="1" fill="none" />
<polyline points="24.500000,1.000000 186.000000,0.500000 188.000000,0.500000 193.000000,0.000000 " stroke="black" stroke-width="1" fill="none" />
<polyline points="24.000000,0.500000 186.500000,0.500000 188.500000,0.500000 193.000000,0.000000 " stroke="black" stroke-width="1" fill="none" />
<polyline points="24.000000,0.000000 187.000000,0.500000 189.000000,0.500000 193.000000,0.000000 " stroke="black" stroke-width="1" fill="none" />
<polyline points="23.500000,0.500000 187.500000,0.500000 189.500000,0.000000 193.000000,0.000000 " stroke="black" stroke-width="1" fill="none" />
<polyline points="23.000000,0.500000 188.000000,0.000000 189.500000,0.500000 193.000000,0.000000 " stroke="black" stroke-width="1" fill="none" />
<polyline points="20.000000,2.500000 188.000000,0.500000 190.000000,0.000000 193.000000,0.000000 " stroke="black" stroke-width="1" fill="none" />
<polyline points="18.500000,1.000000 188.500000,0.500000 190.000000,0.500000 193.000000,0.000000 " stroke="black" stroke-width="1" fill="none" />
<polyline points="18.000000,0.500000 189.000000,0.000000 190.500000,0.500000 193.000000,0.000000 " stroke="black" stroke-width="1" fill="none" />
<polyline points="18.000000,0.000000 189.000000,0.500000 191.000000,0.500000 193.000000,0.000000 " stroke="black" stroke-width="1" fill="none" />
<polyline points="17.500000,0.500000 189.500000,0.500000 191.500000,1.500000 " stroke="black" stroke-width="1" fill="none" />
<polyline points="17.000000,0.500000 190.000000,0.500000 " stroke="black" stroke-width="1" fill="none" />
<polyline points="17.000000,0.000000 190.500000,0.000000 " stroke="black" stroke-width="1" fill="none" />
<polyline points="16.500000,0.500000 190.500000,0.500000 " stroke="black" stroke-width="1" fill="none" />
<polyline points="16.500000,0.000000 191.000000,0.000000 " stroke="black" stroke-width="1" fill="none" />
<polyline points="16.000000,0.500000 191.000000,0.000000 " stroke="black" stroke-width="1" fill="none" />
<polyline points="16.000000,0.000000 191.000000,0.000000 " stroke="black" stroke-width="1" fill="none" />
<polyline points="15.500000,0.500000 191.000000,0.000000 " stroke="black" stroke-width="1" fill="none" />
<polyline points="15.500000,0.000000 191.500000,0.000000 " stroke="black" stroke-width="1" fill="none" />
<polyline points="15.000000,0.500000 191.500000,0.000000 " stroke="black" stroke-width="1" fill="none" />
<polyline points="14.500000,0.500000 191.500000,0.500000 " stroke="black" stroke-width="1" fill="none" />
<polyline points="13.500000,1.000000 192.000000,0.000000 " stroke="black" stroke-width="1" fill="none" />
<polyline points="13.000000,0.500000 192.000000,0.500000 " stroke="black" stroke-width="1" fill="none" />
<polyline points="13.000000,0.000000 192.500000,0.500000 " stroke="black" stroke-width="1" fill="none" />
<polyline points="12.500000,0.500000 193.000000,0.500000 " stroke="black" stroke-width="1" fill="none" />
<polyline points="12.000000,0.500000 193.500000,0.000000 " stroke="black" stroke-width="1" fill="none" />
<polyline points="12.000000,0.000000 193.500000,0.500000 " stroke="black" stroke-width="1" fill="none" />
<polyline points="12.000000,0.000000 194.000000,0.500000 " stroke="black" stroke-width="1" fill="none" />
<polyline points="11.500000,0.000000 194.500000,0.000000 " stroke="black" stroke-width="1" fill="none" />
<polyline points="11.500000,0.000000 194.500000,0.000000 " stroke="black" stroke-width="1" fill="none" />
<polyline points="11.500000,0.000000 195.000000,0.000000 " stroke="black" stroke-width="1" fill="none" />
<polyline points="11.000000,0.500000 195.000000,0.500000 " stroke="black" stroke-width="1" fill="none" />
<polyline points="10.500000,0.500000 195.500000,0.000000 " stroke="black" stroke-width="1" fill="none" />
<polyline points="10.500000,0.000000 195.500000,0.500000 " stroke="black" stroke-width="1" fill="none" />
<polyline points="9.500000,1.000000 196.000000,0.000000 " stroke="black" stroke-width="1" fill="none" />
<polyline points="9.000000,0.500000 196.000000,0.500000 " stroke="black" stroke-width="1" fill="none" />
<polyline points="8.500000,0.500000 196.500000,0.000000 " stroke="black" stroke-width="1" fill="none" />
<polyline points="8.000000,0.500000 196.500000,0.500000 " stroke="black" stroke-width="1" fill="none" />
<polyline points="8.000000,0.000000 197.000000,0.000000 " stroke="black" stroke-width="1" fill="none" />
<polyline points="8.000000,0.000000 197.500000,0.000000 " stroke="black" stroke-width="1" fill="none" />
<polyline points="7.500000,0.000000 197.500000,0.000000 " stroke="black" stroke-width="1" fill="none" />
<polyline points="7.500000,0.000000 197.500000,0.000000 " stroke="black" stroke-width="1" fill="none" />
<polyline points="7.500000,0.000000 197.000000,0.000000 " stroke="black" stroke-width="1" fill="none" />
<polyline points="7.500000,0.000000 197.000000,0.000000 " stroke="black" stroke-width="1" fill="none" />
<polyline points="7.500000,0.000000 197.000000,0.000000 " stroke="black" stroke-width="1" fill="none" />
<polyline points="7.000000,0.000000 197.000000,0.000000 " stroke="black" stroke-width="1" fill="none" />
<polyline points="7.000000,0.000000 197.000000,0.000000 " stroke="black" stroke-width="1" fill="none" />
<polyline points="6.500000,0.500000 197.000000,0.500000 " stroke="black" stroke-width="1" fill="none" />
<polyline points="6.500000,0.000000 197.500000,0.500000 " stroke="black" stroke-width="1" fill="none" />
<polyline points="6.000000,0.500000 198.000000,0.500000 " stroke="black" stroke-width="1" fill="none" />
<polyline points="6.000000,0.000000 198.500000,0.500000 " stroke="black" stroke-width="1" fill="none" />
<polyline points="5.500000,0.500000 199.000000,0.500000 " stroke="black" stroke-width="1" fill="none" />
<polyline points="4.500000,1.000000 199.500000,0.500000 " stroke="black" stroke-width="1" fill="none" />
<polyline points="3.500000,1.000000 200.500000,1.000000 " stroke="black" stroke-width="1" fill="none" />
<polyline points="3.500000,0.000000 201.500000,0.000000 " stroke="black" stroke-width="1" fill="none" />
<polyline points="3.500000,0.000000 201.500000,0.000000 " stroke="black" stroke-width="1" fill="none" />
<polyline points="3.000000,0.000000 202.000000,0.000000 " stroke="black" stroke-width="1" fill="none" />
<polyline points="3.000000,0.000000 202.000000,0.000000 " stroke="black" stroke-width="1" fill="none" />
<polyline points="3.000000,0.000000 202.000000,0.000000 " stroke="black" stroke-width="1" fill="none" />
<polyline points="3.000000,0.000000 202.000000,0.000000 " stroke="black" stroke-width="1" fill="none" />
<polyline points="3.000000,0.000000 202.000000,0.500000 " stroke="black" stroke-width="1" fill="none" />
<polyline points="3.500000,0.000000 202.500000,1.000000 " stroke="black" stroke-width="1" fill="none" />
<polyline points="3.500000,0.000000 203.500000,0.500000 " stroke="black" stroke-width="1" fill="none" />
<polyline points="3.500000,0.000000 204.000000,0.000000 " stroke="black" stroke-width="1" fill="none" />
<polyline points="3.500000,0.000000 204.000000,0.000000 " stroke="black" stroke-width="1" fill="none" />
<polyline points="3.500000,1.000000 203.500000,0.000000 " stroke="black" stroke-width="1" fill="none" />
<polyline points="4.500000,0.500000 203.500000,0.000000 " stroke="black" stroke-width="1" fill="none" />
<polyline points="5.000000,0.500000 203.500000,0.000000 " stroke="black" stroke-width="1" fill="none" />
<polyline points="5.500000,0.000000 203.500000,0.000000 " stroke="black" stroke-width="1" fill="none" />
<polyline points="5.500000,0.000000 203.500000,0.000000 " stroke="black" stroke-width="1" fill="none" />
<polyline points="6.000000,0.000000 203.500000,0.000000 " stroke="black" stroke-width="1" fill="none" />
<polyline points="6.000000,0.000000 203.500000,0.000000 " stroke="black" stroke-width="1" fill="none" />
<polyline points="6.000000,0.000000 203.500000,0.500000 " stroke="black" stroke-width="1" fill="none" />
<polyline points="6.000000,0.000000 204.000000,0.000000 " stroke="black" stroke-width="1" fill="none" />
<polyline points="6.000000,0.000000 204.000000,0.000000 " stroke="black" stroke-width="1" fill="none" />
<polyline points="6.000000,0.000000 204.500000,0.000000 " stroke="black" stroke-width="1" fill="none" />
<polyline points="6.000000,0.000000 204.500000,0.000000 " stroke="black" stroke-width="1" fill="none" />
<polyline points="6.000000,0.000000 204.500000,0.000000 " stroke="black" stroke-width="1" fill="none" />
<polyline points="6.000000,0.000000 204.500000,0.000000 " stroke="black" stroke-width="1" fill="none" />
<polyline points="6.000000,0.000000 204.500000,0.000000 " stroke="black" stroke-width="1" fill="none" />
<polyline points="6.000000,0.500000 205.000000,0.000000 " stroke="black" stroke-width="1" fill="none" />
<polyline points="6.500000,0.000000 205.000000,0.500000 " stroke="black" stroke-width="1" fill="none" />
<polyline points="6.500000,0.500000 205.500000,0.500000 " stroke="black" stroke-width="1" fill="none" />
<polyline points="7.000000,0.000000 206.000000,0.500000 " stroke="black" stroke-width="1" fill="none" />
<polyline points="7.000000,0.000000 206.500000,0.500000 " stroke="black" stroke-width="1" fill="none" />
<polyline points="6.500000,0.000000 207.000000,0.500000 " stroke="black" stroke-width="1" fill="none" />
<polyline points="6.500000,0.000000 207.500000,0.500000 " stroke="black" stroke-width="1" fill="none" />
<polyline points="6.500000,0.000000 208.000000,0.500000 " stroke="black" stroke-width="1" fill="none" />
<polyline points="6.500000,0.000000 208.500000,0.500000 " stroke="black" stroke-width="1" fill="none" />
<polyline points="6.000000,0.000000 209.000000,0.500000 " stroke="black" stroke-width="1" fill="none" />
<polyline points="6.000000,0.000000 209.500000,0.000000 " stroke="black" stroke-width="1" fill="none" />
<polyline points="6.000000,0.000000 209.500000,0.000000 " stroke="black" stroke-width="1" fill="none" />
<polyline points="6.000000,0.000000 210.000000,0.000000 " stroke="black" stroke-width="1" fill="none" />
<polyline points="6.000000,0.000000 210.000000,0.000000 " stroke="black" stroke-width="1" fill="none" />
<polyline points="5.500000,0.000000 210.000000,0.000000 " stroke="black" stroke-width="1" fill="none" />
<polyline points="5.500000,0.000000 210.000000,0.000000 " stroke="black" stroke-width="1" fill="none" />
<polyline points="5.500000,0.000000 210.000000,0.000000 " stroke="black" stroke-width="1" fill="none" />
<polyline points="5.500000,0.000000 210.000000,0.000000 " stroke="black" stroke-width="1" fill="none" />
<polyline points="5.500000,0.000000 210.000000,0.000000 " stroke="black" stroke-width="1" fill="none" />
<polyline points="5.500000,0.000000 210.500000,0.000000 " stroke="black" stroke-width="1" fill="none" />
<polyline points="5.000000,0.500000 210.500000,0.000000 " stroke="black" stroke-width="1" fill="none" />
<polyline points="5.000000,0.000000 210.500000,0.000000 " stroke="black" stroke-width="1" fill="none" />
<polyline points="5.000000,0.000000 210.500000,0.500000 " stroke="black" stroke-width="1" fill="none" />
<polyline points="5.000000,0.000000 211.000000,0.000000 " stroke="black" stroke-width="1" fill="none" />
<polyline points="5.000000,0.000000 211.000000,0.500000 " stroke="black" stroke-width="1" fill="none" />
<polyline points="4.500000,0.500000 211.500000,1.000000 " stroke="black" stroke-width="1" fill="none" />
<polyline points="3.500000,1.000000 212.500000,0.500000 " stroke="black" stroke-width="1" fill="none" />
<polyline points="2.500000,1.000000 213.000000,0.500000 " stroke="black" stroke-width="1" fill="none" />
<polyline points="1.000000,1.000000 213.500000,0.500000 " stroke="black" stroke-width="1" fill="none" />
<polyline points="0.500000,0.000000 214.000000,0.000000 " stroke="black" stroke-width="1" fill="none" />
<polyline points="214.000000,0.500000 " stroke="black" stroke-width="1" fill="none" />
<polyline points="214.500000,0.500000 " stroke="black" stroke-width="1" fill="none" />
<polyline points="0.500000,0.500000 215.500000,1.000000 " stroke="black" stroke-width="1" fill="none" />
<polyline points="1.500000,0.500000 217.000000,1.000000 " stroke="black" stroke-width="1" fill="none" />
<polyline points="2.000000,0.500000 218.000000,0.500000 " stroke="black" stroke-width="1" fill="none" />
<polyline points="2.500000,0.500000 218.500000,0.500000 " stroke="black" stroke-width="1" fill="none" />
<polyline points="3.000000,0.000000 219.000000,0.500000 " stroke="black" stroke-width="1" fill="none" />
<polyline points="3.000000,0.500000 219.500000,0.000000 " stroke="black" stroke-width="1" fill="none" />
<polyline points="3.500000,0.500000 219.500000,0.500000 " stroke="black" stroke-width="1" fill="none" />
<polyline points="4.000000,0.500000 220.000000,0.500000 " stroke="black" stroke-width="1" fill="none" />
<polyline points="4.500000,0.000000 220.500000,0.500000 " stroke="black" stroke-width="1" fill="none" />
<polyline points="4.500000,0.000000 221.000000,1.000000 " stroke="black" stroke-width="1" fill="none" />
<polyline points="4.500000,0.000000 222.500000,0.500000 " stroke="black" stroke-width="1" fill="none" />
<polyline points="4.500000,0.000000 223.000000,0.000000 " stroke="black" stroke-width="1" fill="none" />
<polyline points="4.000000,0.000000 223.500000,0.000000 " stroke="black" stroke-width="1" fill="none" />
<polyline points="4.000000,0.000000 223.500000,0.500000 " stroke="black" stroke-width="1" fill="none" />
<polyline points="4.000000,0.000000 224.000000,0.500000 " stroke="black" stroke-width="1" fill="none" />
<polyline points="4.500000,0.000000 224.500000,0.500000 " stroke="black" stroke-width="1" fill="none" />
<polyline points="4.500000,0.000000 225.000000,0.500000 " stroke="black" stroke-width="1" fill="none" />
<polyline points="4.500000,0.000000 225.500000,0.500000 " stroke="black" stroke-width="1" fill="none" />
<polyline points="5.000000,0.000000 226.000000,0.000000 " stroke="black" stroke-width="1" fill="none" />
<polyline points="5.000000,0.000000 226.000000,0.000000 " stroke="black" stroke-width="1" fill="none" />
<polyline points="5.000000,0.500000 226.000000,0.000000 " stroke="black" stroke-width="1" fill="none" />
<polyline points="6.000000,1.500000 226.500000,0.000000 " stroke="black" stroke-width="1" fill="none" />
<polyline points="7.500000,0.500000 226.000000,0.000000 252.500000,1.500000 " stroke="black" stroke-width="1" fill="none" />
<polyline points="8.000000,0.500000 226.000000,0.000000 251.500000,1.000000 254.000000,0.500000 " stroke="black" stroke-width="1" fill="none" />
<polyline points="8.500000,0.500000 226.000000,0.000000 250.000000,1.000000 254.500000,0.000000 " stroke="black" stroke-width="1" fill="none" />
<polyline points="9.000000,0.000000 226.000000,1.000000 249.500000,0.500000 254.500000,0.000000 " stroke="black" stroke-width="1" fill="none" />
<polyline points="9.000000,0.500000 227.000000,0.500000 248.500000,1.000000 254.500000,0.000000 " stroke="black" stroke-width="1" fill="none" />
<polyline points="9.500000,0.000000 227.500000,0.500000 241.000000,7.000000 254.500000,0.000000 " stroke="black" stroke-width="1" fill="none" />
<polyline points="9.500000,0.500000 228.000000,0.000000 239.500000,1.000000 254.500000,0.000000 " stroke="black" stroke-width="1" fill="none" />
<polyline points="10.000000,0.500000 228.000000,0.500000 239.000000,0.500000 254.500000,0.000000 " stroke="black" stroke-width="1" fill="none" />
<polyline points="10.500000,1.000000 228.500000,0.500000 234.500000,4.500000 254.500000,0.000000 " stroke="black" stroke-width="1" fill="none" />
<polyline points="11.500000,0.500000 229.000000,0.500000 233.000000,1.000000 254.500000,0.000000 " stroke="black" stroke-width="1" fill="none" />
<polyline points="12.000000,0.500000 229.500000,0.500000 232.500000,0.500000 255.000000,0.000000 " stroke="black" stroke-width="1" fill="none" />
<polyline points="12.500000,0.000000 230.500000,1.500000 255.000000,0.000000 " stroke="black" stroke-width="1" fill="none" />
<polyline points="12.500000,0.500000 255.000000,0.000000 " stroke="black" stroke-width="1" fill="none" />
<polyline points="13.000000,0.500000 254.500000,1.000000 " stroke="black" stroke-width="1" fill="none" />
<polyline points="13.500000,0.000000 254.000000,0.500000 " stroke="black" stroke-width="1" fill="none" />
<polyline points="13.500000,0.000000 254.000000,0.000000 " stroke="black" stroke-width="1" fill="none" />
<polyline points="14.000000,0.000000 253.500000,0.000000 " stroke="black" stroke-width="1" fill="none" />
<polyline points="14.000000,0.500000 253.500000,0.000000 " stroke="black" stroke-width="1" fill="none" />
<polyline points="14.500000,0.500000 253.500000,0.000000 " stroke="black" stroke-width="1" fill="none" />
<polyline points="15.000000,0.500000 253.500000,0.000000 " stroke="black" stroke-width="1" fill="none" />
<polyline points="15.500000,0.000000 253.000000,0.000000 " stroke="black" stroke-width="1" fill="none" />
<polyline points="15.500000,0.500000 253.000000,0.000000 " stroke="black" stroke-width="1" fill="none" />
<polyline points="16.000000,0.500000 253.000000,0.000000 " stroke="black" stroke-width="1" fill="none" />
<polyline points="16.500000,0.000000 252.500000,0.500000 " stroke="black" stroke-width="1" fill="none" />
<polyline points="16.500000,0.500000 252.000000,0.500000 " stroke="black" stroke-width="1" fill="none" />
<polyline points="17.000000,0.000000 252.000000,0.000000 " stroke="black" stroke-width="1" fill="none" />
<polyline points="17.000000,0.500000 251.500000,0.500000 " stroke="black" stroke-width="1" fill="none" />
<polyline points="17.500000,0.000000 251.000000,0.500000 " stroke="black" stroke-width="1" fill="none" />
<polyline points="17.500000,0.500000 250.500000,0.500000 " stroke="black" stroke-width="1" fill="none" />
<polyline points="18.000000,0.500000 250.500000,0.000000 " stroke="black" stroke-width="1" fill="none" />
<polyline points="18.500000,0.500000 250.000000,0.000000 " stroke="black" stroke-width="1" fill="none" />
<polyline points="19.000000,0.500000 250.000000,0.000000 " stroke="black" stroke-width="1" fill="none" />
<polyline points="19.500000,0.500000 250.000000,0.000000 " stroke="black" stroke-width="1" fill="none" />
<polyline points="20.000000,0.500000 249.500000,0.000000 " stroke="black" stroke-width="1" fill="none" />
<polyline points="20.500000,0.500000 249.000000,0.500000 " stroke="black" stroke-width="1" fill="none" />
<polyline points="21.000000,0.500000 248.500000,0.500000 " stroke="black" stroke-width="1" fill="none" />
<polyline points="21.500000,0.500000 248.000000,0.500000 " stroke="black" stroke-width="1" fill="none" />
<polyline points="22.000000,0.500000 247.500000,0.500000 " stroke="black" stroke-width="1" fill="none" />
<polyline points="22.500000,1.000000 247.500000,0.000000 " stroke="black" stroke-width="1" fill="none" />
<polyline points="23.500000,0.500000 247.500000,0.000000 " stroke="black" stroke-width="1" fill="none" />
<polyline points="24.000000,1.000000 247.500000,0.000000 " stroke="black" stroke-width="1" fill="none" />
<polyline points="25.000000,0.500000 75.500000,2.000000 247.000000,0.000000 " stroke="black" stroke-width="1" fill="none" />
<polyline points="25.500000,1.000000 75.000000,0.500000 77.500000,2.000000 247.000000,0.000000 " stroke="black" stroke-width="1" fill="none" />
<polyline points="26.500000,0.500000 72.500000,2.500000 80.000000,3.000000 247.000000,0.000000 " stroke="black" stroke-width="1" fill="none" />
<polyline points="27.000000,0.500000 70.000000,2.000000 83.000000,0.500000 247.000000,0.000000 " stroke="black" stroke-width="1" fill="none" />
<polyline points="27.500000,1.000000 70.000000,0.000000 83.500000,0.500000 246.500000,0.500000 " stroke="black" stroke-width="1" fill="none" />
<polyline points="28.500000,1.000000 69.000000,1.000000 84.000000,0.000000 246.000000,0.500000 " stroke="black" stroke-width="1" fill="none" />
<polyline points="29.500000,0.500000 66.500000,2.000000 84.000000,0.000000 246.000000,0.000000 " stroke="black" stroke-width="1" fill="none" />
<polyline points="30.000000,0.500000 51.000000,3.000000 65.000000,1.000000 84.500000,0.000000 245.500000,0.500000 " stroke="black" stroke-width="1" fill="none" />
<polyline points="30.500000,1.000000 48.500000,2.000000 54.500000,1.000000 64.500000,0.500000 84.500000,0.000000 245.000000,0.500000 " stroke="black" stroke-width="1" fill="none" />
<polyline points="31.500000,1.000000 47.000000,1.000000 55.500000,0.000000 64.000000,0.500000 84.500000,0.000000 244.500000,0.500000 " stroke="black" stroke-width="1" fill="none" />
<polyline points="32.500000,1.000000 45.500000,1.000000 55.500000,0.500000 62.000000,2.000000 84.500000,0.000000 244.000000,0.500000 " stroke="black" stroke-width="1" fill="none" />
<polyline points="33.500000,1.000000 44.500000,0.500000 56.000000,5.500000 85.000000,0.000000 244.000000,0.000000 " stroke="black" stroke-width="1" fill="none" />
<polyline points="34.500000,1.000000 43.500000,1.000000 85.000000,0.500000 243.500000,0.500000 " stroke="black" stroke-width="1" fill="none" />
<polyline points="35.500000,0.500000 41.500000,1.500000 85.500000,0.500000 243.500000,0.000000 " stroke="black" stroke-width="1" fill="none" />
<polyline points="36.000000,0.500000 40.500000,1.000000 86.000000,1.000000 90.000000,3.000000 243.000000,0.500000 " stroke="black" stroke-width="1" fill="none" />
<polyline points="36.500000,1.500000 40.000000,0.500000 87.500000,2.000000 93.500000,5.000000 242.500000,0.500000 " stroke="black" stroke-width="1" fill="none" />
<polyline points="38.500000,1.000000 98.500000,0.500000 242.500000,0.000000 " stroke="black" stroke-width="1" fill="none" />
<polyline points="99.000000,0.500000 242.000000,0.500000 " stroke="black" stroke-width="1" fill="none" />
<polyline points="99.500000,1.000000 241.500000,0.500000 " stroke="black" stroke-width="1" fill="none" />
<polyline points="100.500000,0.500000 241.000000,0.500000 " stroke="black" stroke-width="1" fill="none" />
<polyline points="101.000000,0.000000 240.500000,0.500000 " stroke="black" stroke-width="1" fill="none" />
<polyline points="101.000000,0.000000 240.000000,0.500000 " stroke="black" stroke-width="1" fill="none" />
<polyline points="101.500000,0.000000 239.500000,0.500000 " stroke="black" stroke-width="1" fill="none" />
<polyline points="101.500000,0.000000 239.000000,0.500000 " stroke="black" stroke-width="1" fill="none" />
<polyline points="101.500000,0.000000 238.500000,0.500000 " stroke="black" stroke-width="1" fill="none" />
<polyline points="101.500000,0.000000 238.000000,0.500000 " stroke="black" stroke-width="1" fill="none" />
<polyline points="101.500000,0.000000 237.000000,1.000000 " stroke="black" stroke-width="1" fill="none" />
<polyline points="101.500000,0.000000 236.500000,0.500000 " stroke="black" stroke-width="1" fill="none" />
<polyline points="101.500000,0.000000 236.000000,0.500000 " stroke="black" stroke-width="1" fill="none" />
<polyline points="101.500000,0.000000 235.500000,0.500000 " stroke="black" stroke-width="1" fill="none" />
<polyline points="101.500000,0.000000 235.500000,0.000000 " stroke="black" stroke-width="1" fill="none" />
<polyline points="101.000000,0.500000 235.000000,0.500000 " stroke="black" stroke-width="1" fill="none" />
<polyline points="101.000000,0.000000 234.500000,0.500000 " stroke="black" stroke-width="1" fill="none" />
<polyline points="100.500000,0.000000 233.500000,1.000000 " stroke="black" stroke-width="1" fill="none" />
<polyline points="100.500000,0.000000 233.000000,0.500000 " stroke="black" stroke-width="1" fill="none" />
<polyline points="100.500000,0.000000 232.000000,1.000000 " stroke="black" stroke-width="1" fill="none" />
<polyline points="100.500000,0.000000 231.000000,1.000000 " stroke="black" stroke-width="1" fill="none" />
<polyline points="100.500000,0.000000 230.000000,1.000000 " stroke="black" stroke-width="1" fill="none" />
<polyline points="100.500000,0.000000 229.500000,0.500000 " stroke="black" stroke-width="1" fill="none" />
<polyline points="100.500000,0.000000 229.000000,0.500000 " stroke="black" stroke-width="1" fill="none" />
<polyline points="100.500000,0.000000 228.500000,0.500000 " stroke="black" stroke-width="1" fill="none" />
<polyline points="100.500000,0.000000 228.000000,0.500000 " stroke="black" stroke-width="1" fill="none" />
<polyline points="100.500000,0.000000 227.500000,0.500000 " stroke="black" stroke-width="1" fill="none" />
<polyline points="100.500000,0.000000 227.000000,0.500000 " stroke="black" stroke-width="1" fill="none" />
<polyline points="100.500000,0.000000 226.500000,0.500000 " stroke="black" stroke-width="1" fill="none" />
<polyline points="100.500000,0.000000 226.000000,0.500000 " stroke="black" stroke-width="1" fill="none" />
<polyline points="100.000000,0.000000 225.500000,0.500000 " stroke="black" stroke-width="1" fill="none" />
<polyline points="100.000000,0.000000 225.000000,0.500000 " stroke="black" stroke-width="1" fill="none" />
<polyline points="99.500000,0.000000 224.500000,0.500000 " stroke="black" stroke-width="1" fill="none" />
<polyline points="99.500000,0.000000 224.000000,0.500000 " stroke="black" stroke-width="1" fill="none" />
<polyline points="99.500000,0.000000 223.500000,0.500000 " stroke="black" stroke-width="1" fill="none" />
<polyline points="99.500000,0.000000 223.000000,0.500000 " stroke="black" stroke-width="1" fill="none" />
<polyline points="99.500000,0.000000 222.500000,0.500000 " stroke="black" stroke-width="1" fill="none" />
<polyline points="99.500000,0.000000 222.000000,0.500000 " stroke="black" stroke-width="1" fill="none" />
<polyline points="99.500000,0.000000 222.000000,0.000000 " stroke="black" stroke-width="1" fill="none" />
<polyline points="99.000000,0.000000 221.500000,0.500000 " stroke="black" stroke-width="1" fill="none" />
<polyline points="99.000000,0.000000 221.500000,0.000000 " stroke="black" stroke-width="1" fill="none" />
<polyline points="99.000000,0.000000 221.000000,0.500000 " stroke="black" stroke-width="1" fill="none" />
<polyline points="99.000000,0.000000 220.500000,0.500000 " stroke="black" stroke-width="1" fill="none" />
<polyline points="99.000000,0.000000 220.000000,0.500000 " stroke="black" stroke-width="1" fill="none" />
<polyline points="99.000000,0.000000 219.500000,0.500000 " stroke="black" stroke-width="1" fill="none" />
<polyline points="99.500000,0.000000 219.500000,0.000000 " stroke="black" stroke-width="1" fill="none" />
<polyline points="99.500000,0.000000 218.500000,1.000000 " stroke="black" stroke-width="1" fill="none" />
<polyline points="99.500000,0.500000 218.000000,0.500000 " stroke="black" stroke-width="1" fill="none" />
<polyline points="100.000000,0.000000 218.000000,0.000000 " stroke="black" stroke-width="1" fill="none" />
<polyline points="100.000000,0.500000 217.500000,0.000000 " stroke="black" stroke-width="1" fill="none" />
<polyline points="100.500000,1.000000 216.500000,1.000000 " stroke="black" stroke-width="1" fill="none" />
<polyline points="101.500000,0.500000 215.500000,0.500000 " stroke="black" stroke-width="1" fill="none" />
<polyline points="102.000000,0.500000 215.000000,0.500000 " stroke="black" stroke-width="1" fill="none" />
<polyline points="102.500000,0.500000 215.000000,0.000000 " stroke="black" stroke-width="1" fill="none" />
<polyline points="103.000000,0.500000 215.000000,0.000000 " stroke="black" stroke-width="1" fill="none" />
<polyline points="103.500000,1.000000 214.500000,0.000000 " stroke="black" stroke-width="1" fill="none" />
<polyline points="104.500000,1.000000 214.000000,0.500000 " stroke="black" stroke-width="1" fill="none" />
<polyline points="106.000000,0.500000 214.000000,0.000000 " stroke="black" stroke-width="1" fill="none" />
<polyline points="106.500000,0.500000 213.500000,0.500000 " stroke="black" stroke-width="1" fill="none" />
<polyline points="107.000000,0.000000 213.000000,0.500000 " stroke="black" stroke-width="1" fill="none" />
<polyline points="107.000000,0.000000 212.500000,0.500000 " stroke="black" stroke-width="1" fill="none" />
<polyline points="107.500000,0.000000 212.500000,0.000000 " stroke="black" stroke-width="1" fill="none" />
<polyline points="107.500000,0.500000 212.000000,0.500000 " stroke="black" stroke-width="1" fill="none" />
<polyline points="108.000000,0.000000 211.500000,0.500000 " stroke="black" stroke-width="1" fill="none" />
<polyline points="108.000000,1.000000 211.500000,0.000000 " stroke="black" stroke-width="1" fill="none" />
<polyline points="109.000000,0.500000 211.000000,0.500000 " stroke="black" stroke-width="1" fill="none" />
<polyline points="109.500000,0.500000 211.000000,0.000000 " stroke="black" stroke-width="1" fill="none" />
<polyline points="110.000000,0.000000 211.000000,0.000000 " stroke="black" stroke-width="1" fill="none" />
<polyline points="110.000000,0.500000 211.000000,0.000000 " stroke="black" stroke-width="1" fill="none" />
<polyline points="110.500000,0.000000 211.000000,0.000000 " stroke="black" stroke-width="1" fill="none" />
<polyline points="110.500000,0.000000 210.500000,0.000000 " stroke="black" stroke-width="1" fill="none" />
<polyline points="110.500000,0.000000 210.500000,0.000000 " stroke="black" stroke-width="1" fill="none" />
<polyline points="110.500000,0.000000 210.000000,0.500000 " stroke="black" stroke-width="1" fill="none" />
<polyline points="110.500000,0.000000 209.500000,0.500000 " stroke="black" stroke-width="1" fill="none" />
<polyline points="110.500000,0.000000 209.500000,0.000000 " stroke="black" stroke-width="1" fill="none" />
<polyline points="110.500000,0.000000 209.500000,0.000000 " stroke="black" stroke-width="1" fill="none" />
<polyline points="110.500000,0.000000 209.500000,0.000000 " stroke="black" stroke-width="1" fill="none" />
<polyline points="110.500000,0.000000 209.500000,0.500000 " stroke="black" stroke-width="1" fill="none" />
<polyline points="110.500000,0.500000 210.000000,0.500000 " stroke="black" stroke-width="1" fill="none" />
<polyline points="111.000000,0.000000 210.500000,0.500000 " stroke="black" stroke-width="1" fill="none" />
<polyline points="111.000000,0.500000 211.000000,1.000000 " stroke="black" stroke-width="1" fill="none" />
<polyline points="111.500000,0.500000 212.000000,0.000000 " stroke="black" stroke-width="1" fill="none" />
<polyline points="112.000000,0.000000 212.000000,0.000000 " stroke="black" stroke-width="1" fill="none" />
<polyline points="112.000000,0.500000 212.500000,0.000000 " stroke="black" stroke-width="1" fill="none" />
<polyline points="112.500000,0.500000 212.500000,0.000000 " stroke="black" stroke-width="1" fill="none" />
<polyline points="113.000000,0.500000 212.500000,0.000000 " stroke="black" stroke-width="1" fill="none" />
<polyline points="113.500000,0.000000 212.000000,0.000000 " stroke="black" stroke-width="1" fill="none" />
<polyline points="114.000000,0.000000 212.000000,0.000000 " stroke="black" stroke-width="1" fill="none" />
<polyline points="114.000000,0.000000 211.500000,0.500000 " stroke="black" stroke-width="1" fill="none" />
<polyline points="114.000000,0.000000 211.500000,0.000000 " stroke="black" stroke-width="1" fill="none" />
<polyline points="114.500000,0.000000 211.500000,0.000000 " stroke="black" stroke-width="1" fill="none" />
<polyline points="114.500000,0.500000 211.500000,0.000000 " stroke="black" stroke-width="1" fill="none" />
<polyline points="115.000000,0.000000 211.500000,0.000000 " stroke="black" stroke-width="1" fill="none" />
<polyline points="115.000000,0.000000 211.500000,0.000000 " stroke="black" stroke-width="1" fill="none" />
<polyline points="115.000000,0.000000 211.500000,0.000000 " stroke="black" stroke-width="1" fill="none" />
<polyline points="114.500000,0.500000 212.000000,0.000000 " stroke="black" stroke-width="1" fill="none" />
<polyline points="114.000000,0.500000 212.000000,0.000000 " stroke="black" stroke-width="1" fill="none" />
<polyline points="113.500000,0.500000 212.000000,0.500000 " stroke="black" stroke-width="1" fill="none" />
<polyline points="113.000000,0.500000 212.500000,0.000000 " stroke="black" stroke-width="1" fill="none" />
<polyline points="113.000000,0.000000 213.000000,0.000000 " stroke="black" stroke-width="1" fill="none" />
<polyline points="113.000000,0.000000 213.000000,0.000000 " stroke="black" stroke-width="1" fill="none" />
<polyline points="113.000000,0.500000 213.000000,0.000000 " stroke="black" stroke-width="1" fill="none" />
<polyline points="113.500000,0.500000 213.000000,0.000000 " stroke="black" stroke-width="1" fill="none" />
<polyline points="114.000000,0.500000 213.000000,0.000000 " stroke="black" stroke-width="1" fill="none" />
<polyline points="114.500000,0.000000 213.000000,0.500000 " stroke="black" stroke-width="1" fill="none" />
<polyline points="115.000000,0.000000 213.500000,1.000000 " stroke="black" stroke-width="1" fill="none" />
<polyline points="115.000000,0.000000 214.500000,0.500000 " stroke="black" stroke-width="1" fill="none" />
<polyline points="115.000000,0.500000 215.000000,0.000000 " stroke="black" stroke-width="1" fill="none" />
<polyline points="115.500000,0.000000 215.000000,0.000000 " stroke="black" stroke-width="1" fill="none" />
<polyline points="115.500000,0.500000 215.500000,0.000000 " stroke="black" stroke-width="1" fill="none" />
<polyline points="116.000000,0.500000 215.500000,0.000000 " stroke="black" stroke-width="1" fill="none" />
<polyline points="116.500000,0.500000 215.500000,0.000000 " stroke="black" stroke-width="1" fill="none" />
<polyline points="117.000000,0.000000 215.500000,0.000000 " stroke="black" stroke-width="1" fill="none" />
<polyline points="117.000000,0.000000 215.500000,0.000000 " stroke="black" stroke-width="1" fill="none" />
<polyline points="117.000000,0.000000 215.500000,0.000000 " stroke="black" stroke-width="1" fill="none" />
<polyline points="117.000000,0.000000 215.500000,0.000000 " stroke="black" stroke-width="1" fill="none" />
<polyline points="117.000000,0.000000 215.500000,0.000000 " stroke="black" stroke-width="1" fill="none" />
<polyline points="117.000000,0.000000 215.500000,0.000000 " stroke="black" stroke-width="1" fill="none" />
<polyline points="116.500000,0.000000 215.500000,0.000000 " stroke="black" stroke-width="1" fill="none" />
<polyline points="116.500000,0.000000 215.500000,0.000000 " stroke="black" stroke-width="1" fill="none" />
<polyline points="116.000000,0.500000 216.000000,0.000000 " stroke="black" stroke-width="1" fill="none" />
<polyline points="115.500000,0.500000 216.000000,0.000000 " stroke="black" stroke-width="1" fill="none" />
<polyline points="115.000000,0.500000 216.000000,0.000000 246.500000,2.000000 " stroke="black" stroke-width="1" fill="none" />
<polyline points="114.500000,0.500000 216.000000,0.000000 246.000000,0.500000 248.500000,0.000000 " stroke="black" stroke-width="1" fill="none" />
<polyline points="114.000000,0.500000 216.000000,0.000000 246.000000,0.000000 248.500000,0.500000 " stroke="black" stroke-width="1" fill="none" />
<polyline points="113.500000,0.500000 216.000000,0.000000 246.000000,0.000000 249.000000,0.500000 " stroke="black" stroke-width="1" fill="none" />
<polyline points="113.000000,0.500000 216.000000,0.000000 245.500000,0.000000 249.500000,0.000000 " stroke="black" stroke-width="1" fill="none" />
<polyline points="112.500000,0.500000 216.000000,0.000000 245.500000,0.000000 249.500000,0.500000 " stroke="black" stroke-width="1" fill="none" />
<polyline points="112.000000,0.500000 216.000000,0.000000 245.500000,0.000000 250.000000,0.500000 " stroke="black" stroke-width="1" fill="none" />
<polyline points="112.000000,0.000000 216.000000,0.000000 245.000000,0.500000 250.500000,0.000000 " stroke="black" stroke-width="1" fill="none" />
<polyline points="112.000000,0.000000 215.500000,0.000000 244.000000,1.000000 250.500000,0.000000 " stroke="black" stroke-width="1" fill="none" />
<polyline points="112.000000,0.000000 215.500000,0.000000 243.500000,0.500000 251.000000,0.000000 " stroke="black" stroke-width="1" fill="none" />
<polyline points="112.000000,0.000000 215.500000,0.000000 243.000000,0.500000 251.000000,0.000000 " stroke="black" stroke-width="1" fill="none" />
<polyline points="112.000000,0.000000 215.500000,0.000000 243.000000,0.000000 251.000000,0.000000 " stroke="black" stroke-width="1" fill="none" />
<polyline points="112.000000,0.000000 215.500000,0.000000 242.500000,0.000000 251.000000,0.000000 " stroke="black" stroke-width="1" fill="none" />
<polyline points="112.000000,0.000000 216.000000,0.000000 242.500000,0.000000 250.500000,0.500000 " stroke="black" stroke-width="1" fill="none" />
<polyline points="112.000000,0.000000 216.000000,0.000000 242.500000,0.000000 250.500000,0.000000 " stroke="black" stroke-width="1" fill="none" />
<polyline points="112.000000,0.000000 216.500000,0.000000 242.500000,0.000000 250.500000,0.500000 " stroke="black" stroke-width="1" fill="none" />
<polyline points="112.000000,0.000000 216.500000,0.000000 242.000000,0.500000 251.000000,0.500000 " stroke="black" stroke-width="1" fill="none" />
<polyline points="112.000000,0.000000 216.500000,0.000000 242.000000,0.000000 251.500000,0.000000 " stroke="black" stroke-width="1" fill="none" />
<polyline points="112.000000,0.000000 216.500000,0.000000 242.000000,0.000000 251.500000,0.000000 " stroke="black" stroke-width="1" fill="none" />
<polyline points="111.500000,0.000000 216.500000,0.000000 241.500000,0.000000 252.000000,0.000000 " stroke="black" stroke-width="1" fill="none" />
<polyline points="111.500000,0.000000 216.000000,0.000000 240.500000,1.000000 252.000000,0.000000 " stroke="black" stroke-width="1" fill="none" />
<polyline points="111.500000,0.000000 216.000000,0.000000 240.000000,0.500000 252.000000,0.000000 " stroke="black" stroke-width="1" fill="none" />
<polyline points="111.000000,0.000000 216.000000,0.000000 239.500000,0.500000 252.000000,0.000000 " stroke="black" stroke-width="1" fill="none" />
<polyline points="111.000000,0.000000 215.500000,0.000000 239.500000,0.000000 252.000000,0.000000 " stroke="black" stroke-width="1" fill="none" />
<polyline points="110.500000,0.500000 215.500000,0.000000 238.500000,1.000000 252.000000,0.000000 " stroke="black" stroke-width="1" fill="none" />
<polyline points="110.000000,0.500000 215.500000,0.000000 237.000000,1.000000 251.500000,0.000000 " stroke="black" stroke-width="1" fill="none" />
<polyline points="110.000000,0.000000 215.000000,0.000000 235.500000,1.000000 251.500000,0.000000 " stroke="black" stroke-width="1" fill="none" />
<polyline points="110.000000,0.000000 215.000000,0.000000 233.500000,1.500000 249.000000,2.500000 " stroke="black" stroke-width="1" fill="none" />
<polyline points="109.500000,0.000000 215.000000,0.000000 232.000000,1.000000 249.000000,0.000000 250.500000,0.000000 251.500000,0.000000 " stroke="black" stroke-width="1" fill="none" />
<polyline points="109.500000,0.000000 214.500000,0.500000 231.500000,0.500000 249.000000,0.000000 " stroke="black" stroke-width="1" fill="none" />
<polyline points="109.500000,0.000000 214.000000,0.500000 231.000000,0.500000 249.000000,0.000000 " stroke="black" stroke-width="1" fill="none" />
<polyline points="109.000000,0.000000 213.500000,0.500000 230.500000,0.500000 249.000000,0.000000 " stroke="black" stroke-width="1" fill="none" />
<polyline points="109.000000,0.000000 213.500000,0.000000 230.000000,0.500000 249.000000,0.000000 " stroke="black" stroke-width="1" fill="none" />
<polyline points="109.000000,0.000000 213.000000,0.000000 230.000000,0.000000 248.500000,0.000000 " stroke="black" stroke-width="1" fill="none" />
<polyline points="109.000000,0.000000 212.500000,0.500000 230.000000,0.000000 248.500000,0.000000 " stroke="black" stroke-width="1" fill="none" />
<polyline points="109.000000,0.000000 212.000000,0.500000 229.500000,0.000000 248.500000,0.000000 " stroke="black" stroke-width="1" fill="none" />
<polyline points="109.000000,0.000000 211.500000,0.500000 229.500000,0.000000 248.500000,0.000000 " stroke="black" stroke-width="1" fill="none" />
<polyline points="109.000000,0.000000 210.500000,1.000000 229.500000,0.000000 248.500000,0.000000 " stroke="black" stroke-width="1" fill="none" />
<polyline points="109.000000,0.000000 209.000000,1.500000 229.500000,0.000000 248.500000,0.000000 " stroke="black" stroke-width="1" fill="none" />
<polyline points="109.000000,0.000000 206.000000,2.500000 229.500000,0.000000 248.000000,0.000000 " stroke="black" stroke-width="1" fill="none" />
<polyline points="109.000000,0.000000 205.500000,0.500000 229.500000,0.000000 248.000000,0.000000 " stroke="black" stroke-width="1" fill="none" />
<polyline points="109.000000,0.000000 205.500000,0.000000 229.000000,0.000000 248.000000,0.000000 " stroke="black" stroke-width="1" fill="none" />
<polyline points="109.000000,0.000000 204.500000,1.000000 229.000000,0.000000 248.000000,0.000000 " stroke="black" stroke-width="1" fill="none" />
<polyline points="109.000000,0.000000 204.000000,0.500000 229.000000,0.000000 248.000000,0.000000 " stroke="black" stroke-width="1" fill="none" />
<polyline points="109.000000,0.000000 203.500000,0.500000 229.000000,0.000000 248.000000,0.000000 " stroke="black" stroke-width="1" fill="none" />
<polyline points="109.000000,0.000000 203.000000,0.500000 229.000000,0.000000 247.500000,0.000000 " stroke="black" stroke-width="1" fill="none" />
<polyline points="109.000000,0.500000 202.500000,0.500000 229.000000,0.000000 247.000000,0.500000 " stroke="black" stroke-width="1" fill="none" />
<polyline points="109.500000,0.500000 202.000000,0.500000 229.000000,0.000000 247.000000,0.000000 " stroke="black" stroke-width="1" fill="none" />
<polyline points="110.000000,0.500000 201.500000,0.500000 229.000000,0.000000 246.500000,0.000000 " stroke="black" stroke-width="1" fill="none" />
<polyline points="110.500000,0.500000 201.000000,0.500000 229.000000,0.000000 246.500000,0.000000 " stroke="black" stroke-width="1" fill="none" />
<polyline points="111.000000,0.500000 200.500000,0.500000 229.500000,0.000000 246.500000,0.000000 " stroke="black" stroke-width="1" fill="none" />
<polyline points="111.500000,0.500000 199.500000,1.000000 229.500000,0.000000 246.000000,0.000000 " stroke="black" stroke-width="1" fill="none" />
<polyline points="112.000000,0.500000 199.000000,0.500000 229.500000,0.000000 246.000000,0.000000 " stroke="black" stroke-width="1" fill="none" />
<polyline points="112.500000,0.500000 198.500000,0.500000 229.500000,0.000000 246.000000,0.000000 " stroke="black" stroke-width="1" fill="none" />
<polyline points="113.000000,0.000000 198.000000,0.500000 230.000000,0.000000 246.000000,0.000000 " stroke="black" stroke-width="1" fill="none" />
<polyline points="113.000000,0.500000 197.500000,0.500000 230.000000,0.000000 246.000000,0.000000 " stroke="black" stroke-width="1" fill="none" />
<polyline points="113.500000,0.500000 197.000000,0.500000 230.000000,0.000000 246.000000,0.000000 " stroke="black" stroke-width="1" fill="none" />
<polyline points="114.000000,0.000000 196.500000,0.500000 230.000000,0.000000 246.000000,0.000000 " stroke="black" stroke-width="1" fill="none" />
<polyline points="114.000000,0.500000 196.000000,0.500000 230.000000,0.000000 246.000000,0.000000 " stroke="black" stroke-width="1" fill="none" />
<polyline points="114.500000,0.000000 195.500000,0.500000 230.000000,0.000000 245.500000,0.000000 " stroke="black" stroke-width="1" fill="none" />
<polyline points="114.500000,0.000000 195.000000,0.500000 230.000000,0.000000 245.500000,0.000000 " stroke="black" stroke-width="1" fill="none" />
<polyline points="115.000000,0.000000 194.500000,0.500000 229.500000,0.000000 245.500000,0.000000 " stroke="black" stroke-width="1" fill="none" />
<polyline points="115.000000,0.000000 194.500000,0.000000 229.500000,0.000000 245.500000,0.000000 " stroke="black" stroke-width="1" fill="none" />
<polyline points="115.000000,0.000000 194.500000,0.000000 229.500000,0.000000 245.500000,0.000000 " stroke="black" stroke-width="1" fill="none" />
<polyline points="115.000000,0.000000 194.500000,0.000000 229.500000,0.000000 245.000000,0.000000 " stroke="black" stroke-width="1" fill="none" />
<polyline points="115.500000,0.000000 194.500000,0.000000 229.000000,0.500000 245.000000,0.000000 " stroke="black" stroke-width="1" fill="none" />
<polyline points="115.500000,0.000000 194.500000,0.500000 228.500000,0.500000 244.500000,0.000000 " stroke="black" stroke-width="1" fill="none" />
<polyline points="115.500000,0.000000 195.000000,0.500000 228.500000,0.000000 244.500000,0.000000 " stroke="black" stroke-width="1" fill="none" />
<polyline points="115.500000,0.000000 195.500000,0.500000 228.000000,0.500000 244.500000,0.000000 " stroke="black" stroke-width="1" fill="none" />
<polyline points="116.000000,0.000000 196.000000,0.500000 228.000000,0.000000 244.000000,0.000000 " stroke="black" stroke-width="1" fill="none" />
<polyline points="116.000000,0.000000 196.500000,0.000000 227.500000,0.500000 244.000000,0.000000 " stroke="black" stroke-width="1" fill="none" />
<polyline points="116.500000,0.000000 196.500000,0.000000 226.500000,1.000000 244.000000,0.000000 " stroke="black" stroke-width="1" fill="none" />
<polyline points="116.500000,0.000000 197.000000,0.000000 226.000000,0.500000 244.000000,0.000000 " stroke="black" stroke-width="1" fill="none" />
<polyline points="116.500000,0.500000 196.500000,0.000000 226.000000,0.000000 243.500000,0.000000 " stroke="black" stroke-width="1" fill="none" />
<polyline points="117.000000,1.000000 196.500000,0.000000 226.000000,0.000000 243.500000,0.000000 " stroke="black" stroke-width="1" fill="none" />
<polyline points="118.000000,0.500000 197.000000,0.000000 226.000000,0.000000 243.500000,0.000000 " stroke="black" stroke-width="1" fill="none" />
<polyline points="118.500000,0.000000 197.000000,0.000000 226.000000,0.000000 243.500000,0.000000 " stroke="black" stroke-width="1" fill="none" />
<polyline points="118.500000,0.000000 197.000000,0.000000 226.000000,0.000000 243.000000,0.000000 " stroke="black" stroke-width="1" fill="none" />
<polyline points="119.000000,0.000000 197.000000,0.000000 226.000000,0.000000 243.000000,0.000000 " stroke="black" stroke-width="1" fill="none" />
<polyline points="119.000000,0.000000 197.000000,0.000000 226.500000,0.000000 243.000000,0.000000 " stroke="black" stroke-width="1" fill="none" />
<polyline points="119.000000,0.000000 197.000000,0.000000 226.500000,0.000000 243.000000,0.000000 " stroke="black" stroke-width="1" fill="none" />
<polyline points="119.000000,0.000000 197.000000,0.000000 226.500000,0.000000 243.000000,0.000000 " stroke="black" stroke-width="1" fill="none" />
<polyline points="119.000000,0.000000 197.000000,0.000000 226.500000,0.000000 243.000000,0.000000 " stroke="black" stroke-width="1" fill="none" />
<polyline points="119.000000,0.000000 197.000000,0.000000 226.500000,0.000000 243.000000,0.000000 " stroke="black" stroke-width="1" fill="none" />
<polyline points="119.000000,0.000000 197.000000,0.000000 226.500000,0.500000 242.500000,0.000000 " stroke="black" stroke-width="1" fill="none" />
<polyline points="119.000000,0.000000 197.000000,0.000000 227.000000,0.500000 242.500000,0.000000 " stroke="black" stroke-width="1" fill="none" />
<polyline points="118.500000,0.000000 197.000000,0.000000 227.500000,0.000000 242.500000,0.000000 " stroke="black" stroke-width="1" fill="none" />
<polyline points="118.500000,0.000000 197.000000,0.000000 227.500000,0.000000 242.500000,0.000000 " stroke="black" stroke-width="1" fill="none" />
<polyline points="118.500000,0.000000 197.000000,0.000000 227.500000,0.000000 242.500000,0.000000 " stroke="black" stroke-width="1" fill="none" />
<polyline points="118.500000,0.000000 197.500000,0.000000 227.500000,0.000000 242.000000,0.000000 " stroke="black" stroke-width="1" fill="none" />
<polyline points="118.500000,0.500000 197.500000,0.000000 227.500000,0.000000 242.000000,0.000000 " stroke="black" stroke-width="1" fill="none" />
<polyline points="119.000000,0.000000 197.500000,0.000000 227.500000,0.000000 242.000000,0.000000 " stroke="black" stroke-width="1" fill="none" />
<polyline points="119.000000,0.000000 197.500000,0.000000 227.500000,0.000000 241.500000,0.500000 " stroke="black" stroke-width="1" fill="none" />
<polyline points="119.500000,0.000000 197.500000,0.000000 227.500000,0.000000 241.000000,0.500000 " stroke="black" stroke-width="1" fill="none" />
<polyline points="119.500000,0.000000 197.500000,0.000000 227.500000,0.000000 241.000000,0.000000 " stroke="black" stroke-width="1" fill="none" />
<polyline points="119.500000,0.000000 197.000000,0.500000 227.500000,0.000000 241.000000,0.000000 " stroke="black" stroke-width="1" fill="none" />
<polyline points="119.500000,0.500000 196.500000,0.500000 227.500000,0.000000 241.000000,0.000000 " stroke="black" stroke-width="1" fill="none" />
<polyline points="120.000000,0.000000 195.500000,1.000000 228.000000,0.000000 240.500000,0.500000 " stroke="black" stroke-width="1" fill="none" />
<polyline points="120.500000,0.000000 195.000000,0.500000 228.000000,0.000000 240.000000,0.500000 " stroke="black" stroke-width="1" fill="none" />
<polyline points="120.500000,0.000000 193.500000,1.500000 228.000000,0.500000 239.500000,0.500000 " stroke="black" stroke-width="1" fill="none" />
<polyline points="120.500000,0.000000 191.500000,1.500000 228.500000,0.500000 239.000000,0.500000 " stroke="black" stroke-width="1" fill="none" />
<polyline points="120.500000,0.000000 190.500000,0.500000 229.000000,0.500000 238.500000,0.500000 " stroke="black" stroke-width="1" fill="none" />
<polyline points="120.500000,0.000000 189.000000,1.000000 229.500000,0.500000 238.000000,0.500000 " stroke="black" stroke-width="1" fill="none" />
<polyline points="120.500000,0.000000 188.000000,0.500000 230.000000,0.500000 237.000000,1.000000 " stroke="black" stroke-width="1" fill="none" />
<polyline points="120.500000,0.000000 187.000000,1.000000 230.500000,0.000000 235.000000,1.500000 " stroke="black" stroke-width="1" fill="none" />
<polyline points="120.500000,0.000000 186.500000,0.500000 230.500000,1.000000 234.000000,1.000000 " stroke="black" stroke-width="1" fill="none" />
<polyline points="120.500000,0.000000 186.500000,0.000000 231.500000,2.500000 " stroke="black" stroke-width="1" fill="none" />
<polyline points="120.500000,0.000000 186.500000,0.500000 " stroke="black" stroke-width="1" fill="none" />
<polyline points="120.500000,0.000000 187.000000,0.500000 " stroke="black" stroke-width="1" fill="none" />
<polyline points="120.500000,0.000000 187.500000,0.500000 " stroke="black" stroke-width="1" fill="none" />
<polyline points="120.500000,0.000000 188.000000,0.000000 " stroke="black" stroke-width="1" fill="none" />
<polyline points="121.000000,0.000000 188.000000,0.000000 " stroke="black" stroke-width="1" fill="none" />
<polyline points="121.000000,0.000000 188.000000,0.000000 " stroke="black" stroke-width="1" fill="none" />
<polyline points="121.000000,0.000000 188.000000,0.000000 " stroke="black" stroke-width="1" fill="none" />
<polyline points="121.000000,0.000000 188.000000,0.000000 " stroke="black" stroke-width="1" fill="none" />
<polyline points="121.500000,0.000000 188.000000,0.000000 " stroke="black" stroke-width="1" fill="none" />
<polyline points="121.500000,0.000000 187.500000,0.500000 " stroke="black" stroke-width="1" fill="none" />
<polyline points="121.500000,0.000000 187.500000,0.000000 " stroke="black" stroke-width="1" fill="none" />
<polyline points="122.000000,0.000000 187.500000,0.000000 " stroke="black" stroke-width="1" fill="none" />
<polyline points="122.000000,0.000000 187.000000,0.000000 " stroke="black" stroke-width="1" fill="none" />
<polyline points="122.000000,0.500000 187.000000,0.000000 " stroke="black" stroke-width="1" fill="none" />
<polyline points="122.500000,0.500000 187.000000,0.000000 " stroke="black" stroke-width="1" fill="none" />
<polyline points="123.000000,0.000000 187.000000,0.000000 " stroke="black" stroke-width="1" fill="none" />
<polyline points="123.000000,0.000000 187.000000,0.000000 " stroke="black" stroke-width="1" fill="none" />
<polyline points="123.500000,0.000000 186.500000,0.000000 " stroke="black" stroke-width="1" fill="none" />
<polyline points="123.500000,0.000000 186.500000,0.000000 " stroke="black" stroke-width="1" fill="none" />
<polyline points="123.500000,0.500000 186.500000,0.000000 " stroke="black" stroke-width="1" fill="none" />
<polyline points="124.000000,0.500000 186.500000,0.000000 " stroke="black" stroke-width="1" fill="none" />
<polyline points="124.500000,0.500000 186.500000,0.000000 " stroke="black" stroke-width="1" fill="none" />
<polyline points="125.000000,0.500000 186.000000,0.000000 " stroke="black" stroke-width="1" fill="none" />
<polyline points="125.500000,0.500000 185.500000,0.500000 " stroke="black" stroke-width="1" fill="none" />
<polyline points="126.000000,0.500000 185.500000,0.000000 " stroke="black" stroke-width="1" fill="none" />
<polyline points="126.500000,0.000000 184.000000,1.500000 " stroke="black" stroke-width="1" fill="none" />
<polyline points="127.000000,0.000000 183.500000,0.500000 " stroke="black" stroke-width="1" fill="none" />
<polyline points="127.000000,0.000000 182.500000,1.000000 " stroke="black" stroke-width="1" fill="none" />
<polyline points="127.000000,0.000000 182.000000,0.500000 " stroke="black" stroke-width="1" fill="none" />
<polyline points="127.000000,0.000000 181.500000,0.500000 " stroke="black" stroke-width="1" fill="none" />
<polyline points="127.000000,0.500000 181.000000,0.500000 " stroke="black" stroke-width="1" fill="none" />
<polyline points="127.500000,0.000000 180.500000,0.500000 " stroke="black" stroke-width="1" fill="none" />
<polyline points="127.500000,0.500000 180.000000,0.500000 " stroke="black" stroke-width="1" fill="none" />
<polyline points="128.000000,0.000000 180.000000,0.000000 " stroke="black" stroke-width="1" fill="none" />
<polyline points="128.000000,0.500000 180.000000,0.000000 " stroke="black" stroke-width="1" fill="none" />
<polyline points="128.500000,0.000000 179.500000,0.000000 " stroke="black" stroke-width="1" fill="none" />
<polyline points="128.500000,0.500000 179.500000,0.000000 " stroke="black" stroke-width="1" fill="none" />
<polyline points="129.000000,0.000000 179.500000,0.000000 " stroke="black" stroke-width="1" fill="none" />
<polyline points="129.000000,0.500000 179.500000,0.000000 " stroke="black" stroke-width="1" fill="none" />
<polyline points="129.500000,0.000000 179.500000,0.000000 " stroke="black" stroke-width="1" fill="none" />
<polyline points="129.500000,0.500000 179.000000,0.500000 " stroke="black" stroke-width="1" fill="none" />
<polyline points="130.000000,0.000000 179.000000,0.000000 " stroke="black" stroke-width="1" fill="none" />
<polyline points="130.000000,0.500000 178.500000,0.500000 " stroke="black" stroke-width="1" fill="none" />
<polyline points="130.500000,0.500000 178.000000,0.500000 " stroke="black" stroke-width="1" fill="none" />
<polyline points="131.000000,0.000000 178.000000,0.000000 " stroke="black" stroke-width="1" fill="none" />
<polyline points="131.000000,0.500000 177.500000,0.500000 " stroke="black" stroke-width="1" fill="none" />
<polyline points="131.500000,0.000000 177.000000,0.500000 " stroke="black" stroke-width="1" fill="none" />
<polyline points="131.500000,0.500000 176.500000,0.500000 " stroke="black" stroke-width="1" fill="none" />
<polyline points="132.000000,0.500000 176.000000,0.500000 " stroke="black" stroke-width="1" fill="none" />
<polyline points="132.500000,0.000000 175.500000,0.500000 " stroke="black" stroke-width="1" fill="none" />
<polyline points="132.500000,0.500000 175.000000,0.500000 " stroke="black" stroke-width="1" fill="none" />
<polyline points="133.000000,0.000000 174.500000,0.500000 " stroke="black" stroke-width="1" fill="none" />
<polyline points="133.000000,0.000000 174.000000,0.500000 " stroke="black" stroke-width="1" fill="none" />
<polyline points="133.000000,0.000000 173.500000,0.500000 " stroke="black" stroke-width="1" fill="none" />
<polyline points="133.000000,0.000000 173.000000,0.500000 " stroke="black" stroke-width="1" fill="none" />
<polyline points="132.500000,0.500000 172.500000,0.500000 " stroke="black" stroke-width="1" fill="none" />
<polyline points="132.500000,0.000000 172.000000,0.500000 " stroke="black" stroke-width="1" fill="none" />
<polyline points="132.000000,0.500000 171.500000,0.500000 " stroke="black" stroke-width="1" fill="none" />
<polyline points="132.000000,0.000000 171.000000,0.500000 " stroke="black" stroke-width="1" fill="none" />
<polyline points="132.000000,0.000000 170.500000,0.500000 " stroke="black" stroke-width="1" fill="none" />
<polyline points="132.000000,0.000000 170.000000,0.500000 " stroke="black" stroke-width="1" fill="none" />
<polyline points="132.000000,0.000000 169.500000,0.500000 " stroke="black" stroke-width="1" fill="none" />
<polyline points="132.000000,0.000000 169.000000,0.500000 " stroke="black" stroke-width="1" fill="none" />
<polyline points="132.000000,0.500000 168.500000,0.500000 " stroke="black" stroke-width="1" fill="none" />
<polyline points="132.500000,0.000000 168.000000,0.500000 " stroke="black" stroke-width="1" fill="none" />
<polyline points="132.500000,0.500000 167.500000,0.500000 " stroke="black" stroke-width="1" fill="none" />
<polyline points="133.000000,0.500000 167.000000,0.500000 " stroke="black" stroke-width="1" fill="none" />
<polyline points="133.500000,0.500000 166.000000,1.000000 " stroke="black" stroke-width="1" fill="none" />
<polyline points="134.000000,0.500000 163.500000,2.500000 " stroke="black" stroke-width="1" fill="none" />
<polyline points="134.500000,0.500000 162.000000,1.000000 " stroke="black" stroke-width="1" fill="none" />
<polyline points="135.000000,0.500000 160.000000,1.500000 " stroke="black" stroke-width="1" fill="none" />
<polyline points="135.500000,0.000000 148.000000,2.500000 152.000000,3.000000 158.500000,1.000000 " stroke="black" stroke-width="1" fill="none" />
<polyline points="135.500000,0.500000 147.500000,0.500000 151.000000,0.500000 155.500000,2.500000 " stroke="black" stroke-width="1" fill="none" />
<polyline points="136.000000,0.500000 145.500000,2.000000 " stroke="black" stroke-width="1" fill="none" />
<polyline points="136.500000,0.500000 143.000000,2.000000 " stroke="black" stroke-width="1" fill="none" />
<polyline points="137.000000,0.500000 141.500000,1.000000 " stroke="black" stroke-width="1" fill="none" />
</svg>